<?xml version="1.0" encoding="UTF-8" standalone="no"?>
<svg
   width="40.516502"
   height="39.999981"
   viewBox="0 0 40.516502 39.999981"
   fill="none"
   version="1.1"
   id="svg89"
   sodipodi:docname="icon.svg"
   inkscape:version="1.3 (0e150ed6c4, 2023-07-21)"
   xmlns:inkscape="http://www.inkscape.org/namespaces/inkscape"
   xmlns:sodipodi="http://sodipodi.sourceforge.net/DTD/sodipodi-0.dtd"
   xmlns="http://www.w3.org/2000/svg"
   xmlns:svg="http://www.w3.org/2000/svg">
  <defs
     id="defs89" />
  <sodipodi:namedview
     id="namedview89"
     pagecolor="#ffffff"
     bordercolor="#666666"
     borderopacity="1.0"
     inkscape:showpageshadow="2"
     inkscape:pageopacity="0.0"
     inkscape:pagecheckerboard="0"
     inkscape:deskcolor="#d1d1d1"
     inkscape:zoom="8.2260274"
     inkscape:cx="18.052456"
     inkscape:cy="19.997502"
     inkscape:window-width="1916"
     inkscape:window-height="1032"
     inkscape:window-x="0"
     inkscape:window-y="0"
     inkscape:window-maximized="1"
     inkscape:current-layer="svg89" />
  <path
     d="m 21.108176,3.1409799 c -0.4647,0.12094 -0.9582,0.34474 -1.1926,0.7899 -0.1631,0.26874 -0.2309,0.60416 -0.484,0.81041 -0.2227,0.208 -0.6168,0.19221 -0.8172,-0.0386 -0.107,-0.13498 -0.1567,-0.30505 -0.2614,-0.44165 -0.4057,-0.60417 -1.1914,-0.90207 -1.8987,-0.74724 -0.5355,0.10865 -1.0155,0.46392 -1.2844,0.93769 -0.2034,0.34528 -0.1502,0.76479 -0.2701,1.13585 -0.0813,0.25362 -0.3239,0.46513 -0.6015,0.43706 -0.2661,0.01579 -0.4203,-0.22731 -0.6081,-0.37038 -0.7185,-0.63278 -1.9263,-0.50131 -2.5459,0.20678 -0.2345,0.32841 -0.4958,0.68705 -0.484,1.11074 -0.01,0.38388 0.1601,0.75724 0.0953,1.14111 -0.0608,0.35 -0.4853,0.56327 -0.8032002,0.40319 -0.3519,-0.1887 -0.75413,-0.30789 -1.15633,-0.24661 -0.97983,0.09529 -1.78598,1.06215 -1.66956,2.0461701 0.03795,0.4499 0.3583,0.8009 0.48229,1.2229 0.09359,0.3277 -0.15613,0.7046 -0.5016,0.7198 -0.29294,-0.0123 -0.58695,-0.0718 -0.87922,-0.0228 -0.64597,0.1127 -1.1739,0.6059 -1.41187,1.2054 -0.16774,0.378 -0.12857,0.8051 -0.0497,1.1989 0.10061,0.3545 0.35425,0.6403 0.62666,0.8781 0.2011,0.1724 0.40044,0.4067 0.37356,0.6906 -0.00472,0.2798 -0.25134,0.5246 -0.53077,0.5317 -0.69216,0.087 -1.32179,0.5936 -1.52059,1.2673 -0.22973,0.5913 -0.06375,1.262 0.2982,1.7627 0.20515,0.2745 0.52024,0.4318 0.82371,0.5731 0.15491,0.0665 0.30928,0.1495 0.418,0.2828 0.20461,0.2325 0.17476,0.6426 -0.08239,0.8262 -0.16423,0.1116 -0.3479,0.1927 -0.50457,0.3161 -0.67406,0.5259 -0.878,1.5255 -0.50983,2.288 0.17246,0.284 0.38356,0.5556 0.6588,0.7462 0.36708,0.2489 0.826,0.2424 1.24292,0.3389 0.29172,0.059 0.51335,0.3518 0.46473,0.6514 -0.01108,0.26 -0.26134,0.3927 -0.39693,0.5849 -0.44663,0.5568 -0.50106,1.3805 -0.16247,2.004 0.24377,0.489 0.73078,0.846 1.25804,0.971 0.48809,0.1292 0.96984,-0.1718 1.45618,-0.0526 0.33615,0.1011 0.49808,0.5299 0.31981,0.8315 -0.27538,0.5065 -0.33737,1.1469 -0.07604,1.6715 0.19934,0.3641 0.45771,0.7332 0.85237,0.9021 0.4531002,0.2121 1.0130002,0.3325 1.4779002,0.0876 0.3098,-0.1303 0.5945,-0.3616 0.9435,-0.3646 0.3128,-0.0117 0.6068,0.2851 0.5647,0.6012 -0.0316,0.2752 -0.0778,0.5563 -0.0141,0.8315 0.1514,0.687 0.715,1.251 1.3908,1.4332 0.4823,0.1011 1.0196,0.0497 1.434,-0.2331 0.283,-0.1789 0.4637,-0.4755 0.7384,-0.6637 0.2292,-0.1636 0.5805,-0.1578 0.7781,0.0544 0.1928,0.1776 0.1473,0.4639 0.239,0.69 0.2625,0.8992 1.2867,1.4746 2.1929,1.2422 0.3168,-0.1011 0.6483,-0.2215 0.8833,-0.4674 0.3115,-0.2981 0.3893,-0.7537 0.6788,-1.0686 0.2058,-0.2396 0.6178,-0.2507 0.8365,-0.0229 0.1292,0.1491 0.19,0.3442 0.3191,0.4949 0.529,0.7549 1.6615,0.9647 2.4436,0.4925 0.3625,-0.2319 0.6945,-0.5556 0.8137,-0.981 0.0806,-0.3242 0.0819,-0.6684 0.2087,-0.9798 0.1438,-0.3302 0.6238,-0.4434 0.8909,-0.197 0.3041,0.284 0.6565,0.5568 1.0833,0.606 0.5425,0.1227 1.1096,-0.0743 1.5486,-0.392 0.294,-0.2763 0.5378,-0.6281 0.636,-1.023 0.1157,-0.4675 -0.1188,-0.9273 -0.0655,-1.3953 0.0467,-0.3493 0.4659,-0.5749 0.7845,-0.4236 0.3198,0.1501 0.6635,0.2939 1.0248,0.2618 0.6892,-0.0309 1.3715,-0.4529 1.652,-1.0926 0.1275,-0.3201 0.2227,-0.6701 0.166,-1.0166 -0.0386,-0.4487 -0.4075,-0.7841 -0.4753,-1.2235 -0.0555,-0.2991 0.1625,-0.6164 0.4648,-0.6608 0.1747,-0.0146 0.3472,0.0321 0.5219,0.0304 0.6133,0.035 1.2312,-0.2805 1.5726,-0.7889 0.3917,-0.5129 0.4525,-1.2345 0.2052,-1.8234 -0.1632,-0.3949 -0.5431,-0.6286 -0.7916,-0.9623 -0.1782,-0.2283 -0.1649,-0.5924 0.0538,-0.7905 0.1689,-0.1736 0.4303,-0.1466 0.6424,-0.2279 0.9319,-0.2366 1.5189,-1.3134 1.2769,-2.2295 -0.11,-0.3722 -0.287,-0.7467 -0.6081,-0.9821 -0.2952,-0.2472 -0.7114,-0.3067 -0.9751,-0.5965 -0.2146,-0.2279 -0.1946,-0.6369 0.0527,-0.8326 0.1157,-0.0858 0.2549,-0.1309 0.3753,-0.2092 0.6583,-0.3949 0.9628,-1.241 0.7986,-1.9777 -0.059,-0.3681 -0.2982,-0.6679 -0.5372,-0.9394 -0.2152,-0.2425 -0.5197,-0.3874 -0.8343,-0.4487 -0.3116,-0.0678 -0.6676,-0.0362 -0.9289,-0.2489 -0.2051,-0.1543 -0.2642,-0.4499 -0.1707,-0.6825 0.0947,-0.1904 0.2929,-0.2998 0.4057,-0.4779 0.5325,-0.7199 0.4052,-1.7996 -0.2222,-2.4201 -0.2922,-0.2413 -0.6314,-0.4539 -1.0125,-0.5111 -0.4308,-0.083 -0.8523,0.142 -1.2826,0.0748 -0.3426,-0.0562 -0.5606,-0.4616701 -0.4173,-0.7783301 0.1127,-0.23892 0.2198,-0.48552 0.259,-0.74846 0.0778,-0.76358 -0.342,-1.56346 -1.0376,-1.90064 -0.4502,-0.18397 -0.9792,-0.30032 -1.4404,-0.08706 -0.3151,0.11797 -0.5782,0.3851 -0.9319,0.38388 -0.3256,0.02281 -0.6349,-0.29209 -0.5787,-0.61996 0.0573,-0.37564 0.0585,-0.7741 -0.1058,-1.12531 -0.2227,-0.57906 -0.7629,-0.99858 -1.3579,-1.14287 -0.428,-0.06141 -0.8886,-0.03091 -1.2721,0.18519 -0.3279,0.18816 -0.5308,0.52466 -0.8337,0.74373 -0.2941,0.218 -0.7851,0.08828 -0.8892,-0.27454 -0.0912,-0.39265 -0.1695,-0.82445 -0.4718,-1.11709 -0.4303,-0.49483 -1.1253,-0.74494 -1.7714,-0.62805 z m -0.1971,-1.13584 c 0.8466,-0.14308 1.7504,0.07883 2.4267,0.61051 0.3427,0.28278 0.6442,0.61928 0.8471,1.0172 0.5601,-0.46919 1.3258,-0.61645 2.0403,-0.56961 0.4584,0.00121 0.8822,0.20044 1.2832,0.4025 0.3268,0.18749 0.5916,0.46163 0.847,0.73442 0.3169,0.42073 0.5408,0.92083 0.6103,1.44495 0.6805,-0.29331 1.4632,-0.18047 2.1391,0.07005 0.3296,0.1034 0.6003,0.32719 0.8588,0.54869 0.3718,0.31018 0.6133,0.74441 0.8009,1.18376 0.1847,0.49376 0.2256,1.03651 0.1661,1.5582 0.7857,-0.02632 1.541,0.32597 2.1179,0.842 0.5536,0.5240901 0.8453,1.2760901 0.9189,2.0243901 0.0164,0.5417 -0.1057,1.085 -0.3326,1.5763 0.8091,0.1882 1.4077,0.8378 1.8035,1.5355 0.2888,0.5744 0.3367,1.2398 0.2544,1.8691 -0.1059,0.6187 -0.4216,1.196 -0.8536,1.6482 1.1335,0.7356 1.5726,2.3394 1.0359,3.5675 -0.2461,0.7 -0.8062,1.2556 -1.4493,1.6056 0.8277,1.0458 0.7722,2.6747 -0.0912,3.6838 -0.4548,0.5994 -1.1656,0.9851 -1.9063,1.0932 0.2391,0.6403 0.2041,1.3642 -0.031,2.0017 -0.2398,0.7099 -0.7823,1.304 -1.4511,1.6365 -0.5729,0.3272 -1.2628,0.399 -1.9087,0.3179 0.0753,0.9271 -0.4391,1.7972 -1.116,2.3919 -0.5297,0.3844 -1.1669,0.6205 -1.8227,0.6514 -0.5144,-0.0163 -1.0447,-0.0917 -1.4971,-0.354 -0.0362,0.3435 -0.2485,0.6322 -0.4291,0.9155 -0.4566,0.5621 -1.088,1.0137 -1.8128,1.1405 -0.9974,0.2015 -2.0836,-0.1034 -2.7991,-0.835 -0.408,0.6409 -1.1089,1.0353 -1.8367,1.2001 -0.698,0.1478 -1.4434,0.0386 -2.07,-0.3021 -0.5577,-0.2833 -0.9851,-0.7753 -1.2744,-1.3216 -0.539,0.4569 -1.2709,0.6235 -1.9643,0.5919 -1.3954,-0.0421 -2.6564,-1.2066 -2.8259,-2.5889 -0.4712,0.2284 -1.026,0.2086 -1.5287,0.1122 -0.6424602,-0.128 -1.2645302,-0.4429 -1.6825202,-0.9559 -0.36128,-0.4434 -0.67407,-0.96 -0.73606,-1.5396 -0.04848,-0.3266 -0.03268,-0.6579 -0.00405,-0.9851 -0.88165,0.0503 -1.73047,-0.3879 -2.30973,-1.0317 -0.80385,-0.9214 -0.95755,-2.3248 -0.39517,-3.4069 -0.7547,-0.1566 -1.32882,-0.7437 -1.72696,-1.3735 -0.19583,-0.2886 -0.27417,-0.6323 -0.33211,-0.9705 -0.07887,-0.329 -0.04443,-0.6697 -0.00648,-1.0014 0.06078,-0.6486 0.42556,-1.2235 0.85639,-1.6939 -0.70148,-0.4446 -1.1026,-1.2433 -1.24292,-2.0426 -0.10048,-0.742 0.11048,-1.5027 0.49863,-2.1355 0.31333,-0.4102 0.70148,-0.7759 1.17269,-0.9968 -0.50106,-0.5382 -0.62139,-1.3058 -0.60154,-2.0141 0.09008,-1.3707 1.22361,-2.6245 2.60266,-2.774 -0.26781,-0.5965 -0.22919,-1.2895001 -0.03092,-1.9012201 0.26308,-0.86292 0.97037,-1.53309 1.78354,-1.88889 0.51619,-0.17412 1.06803,-0.23486 1.60947,-0.1613 -0.01702,-0.35702 0.02512,-0.72214 0.15788,-1.05581 0.1981,-0.41951 0.4361002,-0.82849 0.7640002,-1.16095 0.2689,-0.24134 0.5782,-0.43638 0.9033,-0.59242 0.6291,-0.22258 1.3281,-0.32071 1.9795,-0.13268 0.2134,0.05493 0.4209,0.13201 0.6243,0.21623 0.3975,-1.35788 1.8877,-2.27925 3.2831,-2.05248 0.6776,0.0444 1.2874,0.40898 1.7749,0.86238 0.4069,-0.67017 1.1622,-1.05405 1.9088,-1.21589"
     fill="#5fe0ff"
     id="path1" />
  <path
     d="m 21.112776,32.2843 c -0.3443,0.1239 -0.3696,0.6543 -0.0415,0.8121 0.2952,0.2092 0.7536,-0.0742 0.7057,-0.4277 -0.0211,-0.3049 -0.3883,-0.52 -0.6642,-0.3844 z m -4.0957,-0.3033 c -0.2584,0.1232 -0.3122,0.5206 -0.0994,0.7105 0.0988,0.0976 0.2372,0.1327 0.3635,0.1817 0.1597,-0.0725 0.3666,-0.1332 0.4105,-0.329 0.1672,-0.3774 -0.338,-0.7735 -0.6746,-0.5632 z m 8.0142,-0.6275 c -0.2438,0.1174 -0.3304,0.4674 -0.1479,0.6754 0.2216,0.3324 0.8307,0.1718 0.843,-0.2337 0.0404,-0.3581 -0.3894,-0.6206 -0.6951,-0.4417 z m -11.7517,-0.94 c -0.1484,0.0677 -0.2244,0.2296 -0.2566,0.3815 0.0088,0.2349 0.1888,0.4406 0.4133,0.4991 0.2807,0.0554 0.5682,-0.2128 0.5273,-0.4961 -0.0257,-0.3108 -0.401,-0.541 -0.684,-0.3844 m 15.3207,-1.2152 c -0.3204,0.0725 -0.4811,0.5148 -0.224,0.7467 0.235,0.3021 0.7735,0.1139 0.8085,-0.2542 0.0708,-0.3172 -0.2917,-0.5936 -0.5847,-0.4925 m -8.3568,-0.4955 c 0.0386,0.2092 0.0836,0.4177 0.0976,0.631 0.2982,0.1536 0.5677,0.3535 0.8009,0.5942 0.2151,-0.3915 0.5799,-0.6865 0.9809,-0.8729 -0.1835,-0.388 -0.6015,-0.6597 -1.0336,-0.6451 -0.3028,0.0316 -0.5571,0.2145 -0.8458,0.2928 z m -2.7739,-0.4617 c -0.0153,0.2133 -0.0362,0.4278 -0.0872,0.6363 0.2222,0.2502 0.4274,0.5165 0.58,0.815 0.3226,-0.3143 0.764,-0.4534 1.1978,-0.5276 -0.058,-0.4142 -0.359,-0.7929 -0.7617,-0.9185 -0.3046,-0.0859 -0.6197,0.0071 -0.9289,-0.0052 z m 6.3265,-0.52 c -0.3274,0.083 -0.5109,0.3932 -0.7938,0.5527 0.1139,0.1857 0.2216,0.3774 0.2834,0.5872 0.335,0.0421 0.6613,0.1362 0.9548,0.3068 0.08,-0.4371 0.3443,-0.8273 0.6665,-1.1253 -0.2719,-0.3051 -0.7164,-0.4476 -1.1109,-0.3214 z m -13.5515,0.0228 c -0.3548002,0.1373 -0.3987002,0.6982 -0.0409,0.8576 0.259,0.1654 0.6156,-0.0256 0.6647,-0.3161 0.0748,-0.3307 -0.3087,-0.6666 -0.6238,-0.5416 m 4.7399,-0.8192 c -0.0602,0.215 -0.1543,0.4195 -0.2777,0.6059 0.1479,0.3033 0.2531,0.6257 0.283,0.9629 0.408,-0.1987 0.8816,-0.2132 1.3212,-0.1297 0.0831,-0.4446 -0.1198,-0.9231 -0.5056,-1.1609 -0.2549,-0.1484 -0.5794,-0.104 -0.8207,-0.2781 m 16.3015,-0.8373 c -0.245,0.0578 -0.4361,0.3149 -0.3776,0.5673 0.0321,0.2647 0.3426,0.4032 0.5817,0.3418 0.1998,-0.0853 0.3846,-0.2928 0.3408,-0.5234 -0.0298,-0.2547 -0.2988,-0.4306 -0.5449,-0.3857 z m -5.3016,0.2454 c -0.2069,0.1975 -0.2976,0.4773 -0.4783,0.6953 0.1567,0.139 0.3104,0.2828 0.449,0.4406 0.3356,-0.0251 0.6752,-0.0432 1.009,0.0193 -0.0691,-0.4441 0.0672,-0.8998 0.2806,-1.2877 -0.3987,-0.2186 -0.9213,-0.1747 -1.2603,0.1327 m -13.4166,-0.9045 c 0.0485,0.3319 0.0567,0.6689 -0.0141,0.9991 0.4444,-0.0625 0.8968,0.07 1.289,0.274 0.1935,-0.347 0.1918,-0.8029 -0.0327,-1.1353 -0.1999,-0.2693 -0.5279,-0.385 -0.7863,-0.5837 -0.1438,0.1561 -0.287,0.3149 -0.4559,0.4459 z m -4.4336502,-1.144 c -0.36951,0.1192 -0.41503,0.6777 -0.06726,0.8519 0.31333,0.222 0.7705,-0.1478 0.66475,-0.5019 -0.04146,-0.2664 -0.34264,-0.4634 -0.59749,-0.35 z M 27.833976,24.107 c -0.2338,0.2635 -0.2076,0.6409 -0.345,0.9482 0.1999,0.0818 0.3952,0.1764 0.5741,0.2986 0.3041,-0.1519 0.6285,-0.26 0.9658,-0.3074 -0.2034,-0.4054 -0.2086,-0.8781 -0.1333,-1.3163 -0.3858,-0.0484 -0.8091,0.069 -1.0616,0.3769 z m -16.6407,-1.3491 c -0.0578,0.3336 -0.1537,0.6619 -0.3051,0.9664 0.4461,0.0631 0.8179,0.3423 1.1272,0.6532 0.3133,-0.3074 0.4431,-0.7969 0.2764,-1.2101 -0.1215,-0.267 -0.3705,-0.4417 -0.5261,-0.6853 -0.1842,0.1039 -0.3731,0.2015 -0.5724,0.2758 z m 21.5583,-0.3979 c -0.1923,0.0777 -0.3098,0.2892 -0.29,0.4937 0.0136,0.2758 0.3344,0.5036 0.5946,0.3804 0.2508,-0.0725 0.3887,-0.3669 0.2975,-0.6077 -0.072,-0.2466 -0.3717,-0.3623 -0.6021,-0.2664 z m -3.904,-0.8589 c -0.1876,0.3289 -0.058,0.7128 -0.0708,1.0681 0.2128,0.0258 0.4262,0.0554 0.6349,0.1081 0.2455,-0.2308 0.5109,-0.4423 0.8214,-0.5808 -0.3174,-0.3172 -0.4811,-0.7636 -0.5337,-1.2024 -0.3555,0.0579 -0.7144,0.2577 -0.8518,0.607 z M 7.1401158,20.3577 c -0.13209,0.066 -0.21285,0.2027 -0.24675,0.3424 -0.07428,0.2904 0.22392,0.6135 0.52024,0.5405 0.28645,-0.0427 0.47296,-0.4002 0.34263,-0.6591 -0.07833,-0.253 -0.39396,-0.3337 -0.61612,-0.2238 z m 3.5805602,-0.5468 c -0.1666,0.2928 -0.3489,0.5808 -0.6062,0.8027 0.4034,0.2004 0.6751,0.5924 0.8797,0.9816 0.3392,-0.1724 0.6068,-0.5154 0.6309,-0.9033 0.063,-0.3581 -0.2199,-0.6439 -0.2684,-0.9845 -0.2099,0.0473 -0.4209,0.0917 -0.6361,0.1033 m 22.0663,-0.9908 c 0.0245,0.2938 0.373,0.5048 0.6361,0.3475 0.2502,-0.0818 0.2799,-0.3633 0.2759,-0.5871 -0.0941,-0.1127 -0.1812,-0.2501 -0.3339,-0.2858 -0.3045,-0.1081 -0.6442,0.2156 -0.5781,0.5252 m -3.8286,-0.0491 c -0.0743,0.3763 0.19,0.6958 0.2613,1.0493 0.2152,-0.0438 0.4309,-0.0905 0.6513,-0.1005 0.1543,-0.3033 0.3414,-0.5907 0.6003,-0.815 -0.401,-0.2075 -0.6857,-0.5819 -0.8868,-0.9769 -0.3216,0.1671 -0.5875,0.4727 -0.6261,0.8431 z m -17.7958,-1.9205 c -0.2438,0.2268 -0.5056,0.4365 -0.8049,0.5854 0.3017,0.3202 0.4671,0.7625 0.5126,1.1966 0.4163,-0.0467 0.7834,-0.3488 0.9284,-0.7379 0.0884,-0.3137 -0.0082,-0.6356 0.0018,-0.953 -0.2146,-0.0175 -0.431,-0.0303 -0.6379,-0.0911 z M 7.5451458,16.2723 c -0.35601,0.0953 -0.48526,0.6217 -0.16666,0.835 0.30698,0.2494 0.81196,-0.0631 0.7424,-0.4452 -0.03214,-0.2687 -0.314,-0.4727 -0.57587,-0.3897 M 28.259776,16.2707 c 0.0876,0.3184 0.38,0.5048 0.5571,0.7677 0.1835,-0.1016 0.3653,-0.2097 0.5647,-0.2793 0.0567,-0.3347 0.1566,-0.6643 0.3308,-0.9582 -0.4454,-0.063 -0.8447,-0.3289 -1.147,-0.6526 -0.2912,0.2845 -0.4412,0.7269 -0.3056,1.1224 z m 3.8465,-1.913 c -0.3017,0.1368 -0.3677,0.5965 -0.0982,0.8022 0.2468,0.2647 0.7208,0.0316 0.7343,-0.3073 0.0597,-0.3365 -0.325,-0.6363 -0.6359,-0.4949 m -19.5923,-0.1811 c -0.3023,0.1478 -0.6239,0.2559 -0.9606,0.2903 0.1929,0.4008 0.2199,0.8775 0.1316,1.3093 0.4729,0.1082 1.0178,-0.1484 1.2037,-0.6035 0.1093,-0.226 0.0871,-0.4902 0.2034,-0.714 -0.1981,-0.0818 -0.4027,-0.1559 -0.5781,-0.2821 z m 14.3613,-0.0895 c 0.1963,0.1945 0.4654,0.2875 0.6769,0.4634 0.1403,-0.1571 0.2905,-0.3056 0.4519,-0.4423 -0.0322,-0.3348 -0.0352,-0.6713 0.0029,-1.0055 -0.4408,0.0334 -0.8897,-0.0561 -1.2708,-0.2828 -0.2287,0.402 -0.1825,0.9288 0.1391,1.2672 z M 9.1251658,12.5203 c -0.32859,0.0712 -0.49579,0.4978 -0.26768,0.7577 0.21393,0.3069 0.74479,0.1508 0.80089,-0.2062 0.1163,-0.3091 -0.2269,-0.6416 -0.53321,-0.5515 z M 13.623076,12.036 c 0.0485,0.4416 -0.0818,0.8799 -0.2707,1.2748 0.3905,0.2402 0.933,0.1782 1.2663,-0.1355 0.186,-0.1957 0.2882,-0.4528 0.4554,-0.6631 -0.1589,-0.1478 -0.3238,-0.2916 -0.4571,-0.4634 -0.3309,0.0386 -0.6648,0.0474 -0.9939,-0.0128 z m 7.221,-0.274 c -0.2134,0.2231 -0.5197,0.3049 -0.8003,0.4084 -0.5641,0.1864 -1.1757,0.0695 -1.7,-0.1805 -0.1624,0.2981 -0.4478,0.4996 -0.7243,0.6836 -0.4571,0.3119 -1.0493,0.3944 -1.5842,0.2763 -0.0216,0.1221 -0.0374,0.2494 -0.1052,0.357 -0.2163,0.3711 -0.4677,0.7502 -0.8529,0.9647 -0.2834,0.1811 -0.608,0.2833 -0.9382,0.336 0.062,0.8897 -0.4723,1.7796 -1.2867,2.146 0.1953,0.4411 0.1449,0.9394 0.0796,1.4034 -0.1152,0.4019 -0.3648,0.7496 -0.6507,1.0487 0.2232,0.2191 0.3103,0.5277 0.4192,0.8122 0.1689,0.5585 0.062,1.1738 -0.1923,1.6897 0.3916,0.2354 0.6612,0.6333 0.8623,1.0347 0.1491,0.406 0.1702,0.8524 0.1117,1.2789 0.2432,0.0281 0.4524,0.1624 0.6518,0.2951 0.2555,0.1857 0.5126,0.3891 0.6728,0.6672 0.1848,0.2752 0.2672,0.5994 0.3262,0.9214 0.4396,-0.0345 0.878,0.1092 1.2663,0.3061 0.3823,0.2291 0.6735,0.5861 0.8839,0.9751 0.2947,-0.1327 0.6256,-0.125 0.9418,-0.1227 0.5706,0.0093 1.1096,0.291 1.4988,0.6988 0.3479,-0.2991 0.8079,-0.4294 1.2522,-0.5031 0.4316,-0.014 0.8722,0.0713 1.2499,0.2863 0.1426,-0.2547 0.3735,-0.4411 0.602,-0.6152 0.4893,-0.3676 1.1388,-0.4675 1.7333,-0.3652 0.031,-0.3751 0.2912,-0.6754 0.5197,-0.9541 0.3292,-0.4113 0.8541,-0.5901 1.3505,-0.7011 -0.0246,-0.4539 0.128,-0.8998 0.3309,-1.2994 0.2344,-0.3623 0.5769,-0.6474 0.9587,-0.8449 -0.1268,-0.2827 -0.1257,-0.5994 -0.125,-0.9032 0.0012,-0.5837 0.2905,-1.1329 0.6909,-1.5442 -0.3191,-0.3407 -0.4127,-0.8238 -0.4958,-1.2673 -0.0047,-0.4294 0.076,-0.8689 0.2917,-1.2451 -0.2864,-0.1314 -0.487,-0.3891 -0.6617,-0.6421 -0.328,-0.4767 -0.4157,-1.0844 -0.3274,-1.6482 -0.466,-0.0993 -0.8471,-0.4235 -1.1757,-0.7514 -0.2269,-0.3423 -0.4238,-0.7157 -0.473,-1.1299 -0.8892,0.0228 -1.793,-0.4908 -2.149,-1.3198 -0.2992,0.153 -0.6477,0.1595 -0.9763,0.1513 -0.5636,-0.0151 -1.088,-0.3079 -1.4755,-0.7035 z m 3.417,-0.5977 c -0.0387,0.371 0.0544,0.7906 0.3583,1.0335 0.2618,0.2454 0.6389,0.2582 0.964,0.3628 0.0924,-0.1951 0.1806,-0.3937 0.2998,-0.5743 -0.1484,-0.2998 -0.2636,-0.6158 -0.3035,-0.9489 -0.4062,0.1892 -0.8832,0.2045 -1.3188,0.1267 m 5.7331,-0.2676 c -0.3537,0.1169 -0.3706,0.6631 -0.0537,0.8325 0.2701,0.2163 0.7213,-0.0502 0.6863,-0.3868 0.0083,-0.3109 -0.3344,-0.5877 -0.6326,-0.4457 z m -13.6632,-0.5318 c -0.0742,0.4376 -0.3437,0.8179 -0.6542,1.1235 0.2111,0.2454 0.5448,0.3477 0.8582,0.3629 0.4384,-0.0018 0.7067,-0.3885 1.0452,-0.6018 -0.1093,-0.1869 -0.2192,-0.3745 -0.2935,-0.5778 -0.3297,-0.0614 -0.6535,-0.1596 -0.9558,-0.3067 m 5.0826,-0.0117 c 0.0509,0.4727 0.4396,0.8862 0.9096,0.9617 0.2601,0.0228 0.5167,-0.0485 0.7775,-0.0432 0.0246,-0.2098 0.0537,-0.4195 0.1034,-0.6246 -0.2327,-0.2431 -0.4408,-0.51 -0.5927,-0.8109101 -0.3209,0.3119101 -0.7617,0.4620101 -1.1978,0.5170101 z m -2.9505,0.1198 c 0.1655,0.3337 0.4906,0.5924 0.867,0.6316 0.36,0.0526 0.6629,-0.1911 0.9967,-0.2763 -0.0281,-0.208 -0.0597,-0.416 -0.0761,-0.6252 -0.2982,-0.1642 -0.5752,-0.3651501 -0.8202,-0.6012301 -0.2075,0.39319 -0.5904,0.6556301 -0.9675,0.8711301 m -6.7024,-1.0352701 c -0.1485,0.04846 -0.2935,0.14727 -0.3432,0.30209 -0.0894,0.21448 0.0316,0.4802801 0.2415,0.5707801 0.287,0.1455 0.6763,-0.1092 0.6665,-0.4294601 0.0187,-0.284 -0.3042,-0.51468 -0.5648,-0.44341 z m 15.1395,-1.17323 c -0.2338,0.08004 -0.3566,0.38037 -0.2403,0.5989 0.0719,0.20328 0.3017,0.34123 0.515,0.2956 0.2111,-0.02686 0.3554,-0.24309 0.3642,-0.44462 0.0141,-0.31193 -0.3444,-0.58769 -0.6389,-0.44988 z m -11.6984,-0.94121 c -0.2935,0.07006 -0.4723,0.46041 -0.2679,0.70702 0.1918,0.30384 0.6887,0.22784 0.8225,-0.09003 0.172,-0.32543 -0.2162,-0.73496 -0.5546,-0.61699 z m 7.962,-0.62346 c -0.1742,0.07302 -0.3098,0.24309 -0.3145,0.4353 0.003,0.16535 0.1017,0.32368 0.2496,0.399 0.2584,0.17763 0.6781,-0.01282 0.6874,-0.33542 0.0485,-0.3249 -0.3174,-0.6228 -0.6226,-0.49902 m -4.3056,0.32665 c 0.0684,0.17291 0.2677,0.21097 0.421,0.27455 0.1549,-0.06142 0.3467,-0.10569 0.4185,-0.27631 0.1544,-0.26752 -0.0665,-0.6263 -0.3635,-0.65613 -0.3531,-0.08827 -0.6623,0.35351 -0.4758,0.65789 m -0.7723,-1.31226 c 0.5729,-0.63683 1.679,-0.68354 2.3022,-0.09408 0.356,0.32314 0.5541,0.81041 0.5272,1.28999 -0.0409,0.54923 -0.3776,1.03758 -0.8354,1.33089 0.0502,0.30856 0.1754,0.62751 0.4624,0.78706 0.5928,0.44691 1.6088,0.06722 1.6831,-0.69298 -0.3192,-0.3114 -0.5408,-0.74495 -0.5227,-1.1978 -0.0175,-0.59715 0.3543,-1.17324 0.8833,-1.43901 0.4659,-0.25943 1.0529,-0.21502 1.5188,0.02214 0.8682,0.3944 1.1358,1.66631 0.5285,2.3902 -0.2355,0.33367 -0.6109,0.52763 -0.9985,0.62697 -0.0246,0.25943 -0.021,0.53466 0.1152,0.76533 0.225,0.3581 0.6548,0.6094101 1.0844,0.5475101 0.3484,-0.0327 0.6945,-0.2319301 0.8453,-0.5574901 -0.2268,-0.3932 -0.2841,-0.87291 -0.1368,-1.30471 0.1198,-0.44691 0.4677,-0.80623 0.8927,-0.97927 0.819,-0.37106 1.8724,0.09057 2.1847,0.9273 0.1812,0.53924 0.0959,1.18836 -0.2905,1.61961 -0.1865,0.17237 -0.3695,0.3686601 -0.6203,0.4433601 -0.2561,0.1099 -0.539,0.1157 -0.8132,0.1233 -0.0655,0.1618 -0.166,0.3184 -0.1677,0.4983 0.0029,0.4996 0.3595,0.9828 0.8488,1.1066 0.3537,0.0946 0.7424,-0.0181 1.0084,-0.2647 -0.0871,-0.5312 0.0362,-1.1218 0.449,-1.4922 0.6073,-0.6345401 1.7742,-0.6099701 2.3267,0.0836 0.2052,0.2424 0.3899,0.5252 0.4186,0.8495 0.0205,0.2687 0.0268,0.5487 -0.0701,0.8052 -0.1999,0.579 -0.7642,1.0019 -1.3756,1.0375 -0.2905,0.0602 -0.5717,-0.0467 -0.8465,-0.1239 -0.1345,0.1548 -0.2772,0.3137 -0.3314,0.5171 -0.1035,0.3967 0.0386,0.8449 0.3477,1.1136 0.3186,0.2805 0.8109,0.3704 1.192,0.1631 0.0568,-0.6065 0.4835,-1.1821 1.0745,-1.3614 0.7472,-0.2693 1.6726,0.1239 1.9789,0.8606 0.1285,0.3033 0.2016,0.6415 0.1466,0.971 -0.0929,0.6047 -0.5658,1.1301 -1.154,1.2947 -0.3671,0.0666 -0.7635,0.0718 -1.1079,-0.09 -0.1584,-0.0871 -0.3052,-0.1934 -0.4513,-0.2986 -0.1695,0.1175 -0.3625,0.2191 -0.4748,0.399 -0.1501,0.2547 -0.2309,0.5696 -0.1385,0.8594 0.1245,0.5131 0.6542,0.9179 1.1879,0.8308 0.221,-0.4399 0.6244,-0.8009 1.1079,-0.9201 0.4916,-0.1145 1.0278,0.0221 1.4223,0.3324 0.2186,0.211 0.4004,0.4675 0.5063,0.7531 0.0683,0.4539 0.0989,0.967 -0.1637,1.3689 -0.2747,0.4575 -0.7956,0.7322 -1.3195,0.7754 -0.6073,0.0145 -1.1797,-0.3313 -1.5001,-0.8396 -0.367,0.0432 -0.722,0.2477 -0.8593,0.6047 -0.3321,0.6035 0.083,1.4613 0.771,1.5506 0.5099,-0.5906 1.4762,-0.7098 2.1116,-0.2559 0.4805,0.3079 0.7407,0.8986 0.6892,1.4606 -0.0462,0.3699 -0.1631,0.7508 -0.4291,1.0237 -0.3776,0.3926 -0.9575,0.5673 -1.4919,0.475 -0.3852,-0.0562 -0.7062,-0.3137 -0.9523,-0.6007 -0.1783,-0.1934 -0.245,-0.4539 -0.3397,-0.6923 -0.5133,-0.1227 -1.0762,0.1934 -1.2387,0.6941 -0.1976,0.4832 0.0188,1.092 0.484,1.3328 0.3824,-0.2103 0.8372,-0.2798 1.2581,-0.1519 0.5594,0.1438 1.0102,0.62 1.1359,1.1808 0.0568,0.3769 0.0538,0.7957 -0.1596,1.1259 -0.218,0.3763 -0.5541,0.7128 -0.9844,0.8285 -0.6074,0.1437 -1.3324,-0.0176 -1.7094,-0.5458 -0.2882,-0.3365 -0.3583,-0.7934 -0.3572,-1.2222 -0.2626,-0.1169 -0.5642,-0.2162 -0.8466,-0.1064 -0.4548,0.1292 -0.777,0.5732 -0.8003,1.0383 0.0052,0.2781 0.0971,0.5563 0.2917,0.7601 0.5373,-0.1011 1.1054,0.0665 1.5036,0.4381 0.246,0.2845 0.4501,0.6386 0.4489,1.0248 0.0199,0.4639 -0.1328,0.9582 -0.4881,1.2725 -0.3356,0.3267 -0.8044,0.5317 -1.2786,0.4745 -0.4747,-0.0205 -0.902,-0.2963 -1.1867,-0.6644 -0.3274,-0.4825 -0.3502,-1.1054 -0.1602,-1.6452 -0.1466,-0.1397 -0.3057,-0.2758 -0.5068,-0.3272 -0.6214,-0.1776 -1.3241,0.3137 -1.3919,0.9524 -0.0415,0.1987 0.0321,0.3937 0.1069,0.5749 0.4472,0.0577 0.8928,0.2775 1.1423,0.6643 0.3548,0.4738 0.404,1.1569 0.1275,1.6781 -0.3741,0.7748 -1.4229,1.0949 -2.1864,0.7269 -0.5202,-0.2688 -0.9149,-0.8291 -0.8827,-1.4285 -0.0116,-0.4208 0.1607,-0.8203 0.421,-1.144 -0.1509,-0.3254 -0.4449,-0.5854 -0.8097,-0.6292 -0.6869,-0.1408 -1.3914,0.5065 -1.2814,1.2076 0.5402,0.2442 0.95,0.7876 0.9623,1.3906 0.0788,0.7635 -0.5145,1.4957 -1.247,1.6605 -0.4566,0.0812 -0.9686,0.0326 -1.3452,-0.26 -0.4471,-0.3109 -0.705,-0.8618 -0.6665,-1.404 0.0304,-0.5528 0.3766,-1.0436 0.8401,-1.3299 -0.0445,-0.3224 -0.2087,-0.638 -0.4946,-0.8079 -0.2707,-0.1508 -0.6033,-0.2302 -0.9038,-0.1222 -0.3899,0.1004 -0.6934,0.4364 -0.774,0.8285 0.3548,0.3325 0.5817,0.818 0.5378,1.3105 -0.038,0.4687 -0.2613,0.9454 -0.6658,1.2065 -0.3829,0.2547 -0.878,0.3891 -1.3276,0.2466 -0.511,-0.0976 -0.95,-0.4669 -1.1488,-0.9448 -0.1783,-0.4755 -0.1713,-1.0505 0.1362,-1.4728 0.2315,-0.3897 0.6425,-0.6386 1.0746,-0.7485 0.0193,-0.2512 0.0421,-0.5264 -0.1123,-0.7432 -0.252,-0.478 -0.8832,-0.6988 -1.382,-0.4983 -0.2268,0.0946 -0.421,0.2657 -0.5385,0.4825 0.2491,0.4687 0.2912,1.0587 0.0509,1.5396 -0.2005,0.3552 -0.5068,0.6689 -0.9025,0.7976 -0.4941,0.1671 -1.0751,0.1016 -1.4908,-0.2256 -0.6909,-0.4067 -0.8968,-1.3893 -0.5179,-2.0758 0.3028,-0.6007 1.0044,-0.8922 1.6544,-0.8524 0.0643,-0.1847 0.1572,-0.3699 0.1403,-0.5708 -0.0012,-0.4955 -0.3974,-0.9384 -0.8728,-1.0436 -0.3392,-0.0858 -0.7068,0.0239 -0.9676,0.2519 0.0801,0.478 -0.01,1.0026 -0.3344,1.376 -0.3332,0.4358 -0.9055,0.6521 -1.4451,0.5878 -0.2706002,-0.0537 -0.5337002,-0.1543 -0.7664102,-0.3021 -0.33211,-0.278 -0.61788,-0.6566 -0.66529,-1.099 -0.08887,-0.645 0.23851,-1.3466 0.8242,-1.6482 0.4537002,-0.2477 0.9997002,-0.2371 1.4727002,-0.0484 0.245,-0.2449 0.4308,-0.5749 0.3625,-0.9331 -0.065,-0.7099 -0.9108,-1.2112 -1.5545002,-0.8712 -0.0567,0.5008 -0.36074,0.9646 -0.79103,1.2257 -0.45541,0.26 -1.04358,0.3091 -1.51533,0.0625 -0.23553,-0.1244 -0.44717,-0.2962 -0.61558,-0.5025 -0.18071,-0.3103 -0.31333,-0.6619 -0.31738,-1.0242 5.4e-4,-0.6591 0.4677,-1.2731 1.08382,-1.4881 0.56886,-0.1987 1.20605,-0.0234 1.66848,0.3406 0.42452,-0.1892 0.7032202,-0.6538 0.6221202,-1.1188 -0.0562,-0.5796 -0.6360302,-1.0762 -1.2254102,-0.9517 -0.17774,0.3698 -0.47581,0.6952 -0.86693,0.839 -0.48107,0.1811 -1.06572,0.1571 -1.48723,-0.156 -0.43731,-0.2904 -0.72485,-0.794 -0.71621,-1.3228 -0.06077,-0.7374 0.49053,-1.4606 1.20727,-1.6219 0.51443,-0.1239 1.09139,0.014 1.48319,0.3739 0.12857,0.1285 0.24026,0.2727 0.35249,0.4154 0.47472,-0.0502 0.89973,-0.4335 0.94413,-0.9173 0.1047,-0.5445 -0.28762,-1.1597 -0.84824,-1.2317 -0.21865,0.1613 -0.42502,0.3588 -0.69513,0.4301 -0.56184,0.1997 -1.23468,0.0625 -1.65444,-0.3658 -0.72322,-0.6539 -0.5987,-1.9591 0.19759,-2.5019 0.64422,-0.4943 1.66254,-0.3645 2.16589,0.2693 0.18233,0.2186 0.29226,0.4843 0.37303,0.755 0.20055,0.004 0.411,0.0409 0.6028,-0.0386 0.3338002,-0.1315 0.5892002,-0.4301 0.6874002,-0.7724 0.1245,-0.4662 -0.0959,-1.0054 -0.5338,-1.2229 -0.4436102,0.2466 -1.0019402,0.2833 -1.4708502,0.0848 -0.52847,-0.2419 -0.91554,-0.7841 -0.93418,-1.3702 -0.00824,-0.2758 -0.01175,-0.5778 0.14667,-0.8168 0.19637,-0.3342 0.4519,-0.6724 0.82776,-0.8127 0.54603,-0.2284 1.2264,-0.1495 1.6773002,0.2442 0.2046,0.1969 0.377,0.4336 0.4758,0.7018 0.1099,0.2348 0.0795,0.5018 0.0936,0.7537 0.2495,0.1162 0.5279,0.2074 0.8031,0.1215 0.5852,-0.132 0.9722,-0.7859 0.8109,-1.362 -0.0462,-0.1676 -0.1461,-0.3126 -0.2538,-0.4463 -0.4209,0.0654 -0.8734,0.0128 -1.2282,-0.2361 -0.4413,-0.2728 -0.7178,-0.7806 -0.726,-1.2970301 -0.0631,-0.957 0.8874,-1.82113 1.8321,-1.6786 0.4881,0.06952 0.9565,0.34946 1.2026,0.7841 0.2502,0.46446 0.2555,1.0300301 0.0718,1.5190301 0.1427,0.128 0.2842,0.2758 0.48,0.3196 0.5899,0.1875 1.2762,-0.2173 1.4049,-0.8209 0.0643,-0.2343201 0.021,-0.4807901 -0.0871,-0.6947301 -0.57,-0.04738 -1.0758,-0.43531 -1.3095,-0.94944 -0.1836,-0.39616 -0.1685,-0.86117 -0.0299,-1.2684 0.1333,-0.25821 0.3192,-0.49024 0.5355,-0.6842 0.3811,-0.25538 0.8559,-0.38564 1.313,-0.31086 0.4479,0.09881 0.8553,0.3774 1.0863,0.77707 0.2093,0.29628 0.2267,0.67125 0.2093,1.02071 -0.0479,0.34069 -0.2186,0.64439 -0.4185,0.91786 0.1175,0.19221 0.2379,0.40075 0.4471,0.50657 0.207,0.09867 0.4409,0.16589 0.6718,0.12567 0.5735,-0.06074 1.068,-0.63278 0.9663,-1.21697 -0.5021,-0.20854 -0.8493,-0.68353 -0.9505,-1.20995 -0.052,-0.48606 0.0743,-1.01072 0.4226,-1.36666"
     fill="#af66e1"
     id="path2" />
  <path
     d="m 23.726876,21.1212 c 0.0202,0.0198 0.0202,0.0198 0,0 z m -3.7596,-3.1189 c -0.1544,0.1105 -0.3367,0.1613 -0.525,0.1642 -0.1099,0.1578 -0.2618,0.2787 -0.4466,0.3365 -0.0485,0.1952 -0.1672,0.361 -0.3349,0.4715 0.0065,0.191 -0.0415,0.3768 -0.1602,0.5281 0.062,0.1887 0.066,0.3904 0.0023,0.5791 0.1215,0.146 0.1789,0.326 0.1783,0.5153 0.1631,0.1127 0.2929,0.2682 0.3338,0.4675 0.2011,0.0351 0.359,0.1618 0.4776,0.3219 0.1893,-5e-4 0.3748,0.0462 0.5262,0.1648 0.1853,-0.0579 0.3823,-0.0665 0.5688,-0.0047 0.1456,-0.128 0.3292,-0.1905 0.5227,-0.187 0.1145,-0.1641 0.2712,-0.2945 0.47,-0.3389 0.0439,-0.1876 0.1637,-0.3383 0.3103,-0.4574 -0.0047,-0.197 0.0387,-0.3909 0.1655,-0.5458 -0.0457,-0.1823 -0.0467,-0.3716 5e-4,-0.5532 -0.1286,-0.1536 -0.1847,-0.3442 -0.1812,-0.5423 -0.1637,-0.1046 -0.2807,-0.2606 -0.3455,-0.4423 -0.1835,-0.0596 -0.3425,-0.1718 -0.4542,-0.3289 -0.1946,0 -0.3876,-0.0409 -0.5402,-0.1671 -0.1841,0.0642 -0.3801,0.0625 -0.5682,0.0187 z m -2.5471,-0.614 c 0.0101,0.0102 0.0101,0.0102 0,0 z m 5.2028,-0.4674 c 0.0098,0.0097 0.0098,0.0097 0,0 z m -0.9984,-0.5931 c 0.0194,0.0207 0.0194,0.0207 0,0 z m -1.7509,-2.2663 c 0.3221,-0.1694 0.767,0.0292 0.8337,0.3914 0.0608,0.2449 -0.1075,0.4569 -0.1356,0.6918 -0.0421,0.3202 -0.0725,0.6426 -0.0701,0.9663 0.1456,-0.5071 0.3432,-1.0014 0.6179,-1.4525 0.1409,-0.2097 0.3168,-0.4634 0.6028,-0.4499 0.3233,-0.0316 0.6266,0.2653 0.6038,0.5889 0.0163,0.2103 -0.1456,0.3611 -0.2503,0.5235 -0.187,0.3044 -0.3133,0.6409 -0.4285,0.9775 0.2852,-0.3909 0.5975,-0.763 0.9553,-1.0902 0.2063,-0.1496 0.4302,-0.3442 0.7067,-0.2945 0.3484,0.0338 0.5817,0.4282 0.4682,0.7554 -0.0544,0.2226 -0.2782,0.3179 -0.4443,0.4447 -0.2345,0.1986 -0.4139,0.4528 -0.6314,0.6689 0.0199,0.0216 0.0404,0.0427 0.0615,0.0643 0.2011,-0.2075 0.4647,-0.3325 0.7097,-0.478 0.3098,-0.1706 0.6437,-0.3593 1.0072,-0.3453 0.4175,0.0392 0.6395,0.5849 0.3882,0.9138 -0.1468,0.2268 -0.4426,0.2268 -0.66,0.3453 -0.307,0.1636 -0.5998,0.3518 -0.8886,0.5452 0.4735,-0.211 0.9886,-0.3149 1.5001,-0.3821 0.2555,0.0023 0.5601,-0.0392 0.7594,0.1577 0.2601,0.2268 0.2391,0.6883 -0.0414,0.8893 -0.1959,0.1729 -0.4695,0.0848 -0.7033,0.1122 -0.37,0.0473 -0.7248,0.1653 -1.0845,0.2582 0.6613,-0.0304 1.3469,-0.0035 1.9725,0.2343 0.3537,0.1425 0.4437,0.6596 0.1765,0.9243 -0.1707,0.1975 -0.4647,0.2203 -0.6944,0.1227 -0.4063,-0.1495 -0.8448,-0.1355 -1.2709,-0.1355 0.5046,0.0941 0.9746,0.3167 1.4194,0.565 0.2129,0.1624 0.4888,0.3453 0.48,0.6474 0.0304,0.3277 -0.2747,0.6328 -0.6027,0.6017 -0.2268,0.0163 -0.3718,-0.1736 -0.5403,-0.2892 -0.2852,-0.1789 -0.6068,-0.2858 -0.9213,-0.3985 0.4788,0.4032 1.016,0.773 1.33,1.3316 0.1017,0.2278 0.0445,0.5246 -0.1543,0.683 -0.2391,0.2127 -0.6665,0.1746 -0.8413,-0.1017 -0.249,-0.3891 -0.6284,-0.6584 -0.9821,-0.9429 0.3765,0.5527 0.8441,1.1095 0.8985,1.8025 0.0204,0.4563 -0.5805,0.7314 -0.9272,0.4493 -0.2314,-0.1495 -0.2063,-0.4511 -0.3226,-0.6702 -0.138,-0.2582 -0.2965,-0.506 -0.4712,-0.7402 0.135,0.5866 0.36,1.1755 0.2841,1.7873 -0.0168,0.2822 -0.2841,0.5176 -0.5653,0.5078 -0.3087,0.0216 -0.6074,-0.2595 -0.5817,-0.5721 0.0357,-0.4364 -0.0971,-0.8606 -0.2251,-1.2719 -0.0299,0.6117 -0.0216,1.2526 -0.2782,1.8217 -0.1497,0.3424 -0.6553,0.4218 -0.9149,0.1624 -0.19,-0.1659 -0.2275,-0.4517 -0.1268,-0.676 0.1666,-0.4271 0.138,-0.8922 0.1795,-1.3403 -0.1853,0.6169 -0.3982,1.2527 -0.8167,1.7551 -0.2011,0.2722 -0.6501,0.2775 -0.8717,0.0286 -0.2076,-0.2085 -0.2058,-0.5778 -0.0047,-0.7904 0.2829,-0.339 0.3957,-0.7736 0.5548,-1.1756 -0.373,0.5235 -0.781,1.0453 -1.3329,1.3906 -0.3472,0.1834 -0.8295,-0.0841 -0.8307,-0.4826 -0.0327,-0.2371 0.1152,-0.4463 0.3093,-0.565 0.2975,-0.1934 0.4923,-0.4948 0.7441,-0.7374 -0.0239,-0.0221 -0.0479,-0.0432 -0.0713,-0.0642 -0.3168,0.2729 -0.6909,0.4679 -1.0652,0.6485 -0.2636,0.0941 -0.5869,0.2128 -0.8435,0.0397 -0.2952,-0.1799 -0.3485,-0.6321 -0.1135,-0.881 0.1404,-0.1706 0.3766,-0.1718 0.5654,-0.2547 0.3098,-0.1373 0.5846,-0.3382 0.8687,-0.5199 -0.5923,0.1653 -1.195,0.3563 -1.8169,0.3249 -0.2958,0.0012 -0.549,-0.2788 -0.5373,-0.5703 -0.0176,-0.2956 0.2403,-0.5866 0.542,-0.5773 0.4454,0.0181 0.8729,-0.1204 1.3002,-0.2256 -0.6179,-0.0519 -1.2669,-0.0321 -1.8421,-0.2962 -0.3279,-0.1501 -0.4097,-0.6311 -0.1707,-0.8922 0.1509,-0.1882 0.4233,-0.2502 0.6448,-0.1607 0.4572,0.1812 0.9558,0.1619 1.4381,0.1952 -0.6595,-0.1531 -1.3153,-0.4113 -1.835,-0.8548 -0.3432,-0.3091 -0.1216,-0.96 0.3443,-0.9839 0.3169,-0.0596 0.5162,0.2261 0.7682,0.3541 0.2468,0.125 0.5039,0.2336 0.7711,0.3079 -0.4454,-0.3764 -0.9424,-0.7192 -1.251,-1.2265 -0.1608,-0.2278 -0.1193,-0.5725 0.0929,-0.7542 0.2478,-0.2331 0.7039,-0.1841 0.8764,0.1174 0.1905,0.3372 0.5307,0.5382 0.7933,0.811 0.024,-0.0228 0.0479,-0.0457 0.0718,-0.0678 -0.2121,-0.1805 -0.3279,-0.4376 -0.4629,-0.6737 -0.1702,-0.3201 -0.3719,-0.6614 -0.3502,-1.0353 0.0456,-0.4054 0.5716,-0.6199 0.8985,-0.3867 0.204,0.1204 0.2355,0.3676 0.3145,0.5686 0.1509,0.3442 0.3601,0.6584 0.5777,0.9634 -0.1988,-0.4737 -0.3174,-0.981 -0.3713,-1.4916 0.0058,-0.2477 -0.0322,-0.5434 0.1654,-0.7321 0.231,-0.2565 0.6922,-0.2291 0.8898,0.0549 0.1642,0.1911 0.0801,0.4534 0.1047,0.68 0.0397,0.357 0.1613,0.6976 0.2443,1.0458 -0.0222,-0.5241 0.0263,-1.0498 0.1187,-1.5652 0.073,-0.2343 0.1519,-0.5095 0.3922,-0.6252"
     fill="#5fe0ff"
     id="path3" />
  <path
     d="m 20.378076,12.3408 c 0.349,-0.1345 0.7798,0.1344 0.7793,0.5158 0.0344,0.3144 -0.2403,0.6193 -0.5571,0.6135 -0.3105,0.0281 -0.6068,-0.2436 -0.6021,-0.555 -0.0228,-0.2501 0.1465,-0.4913 0.3799,-0.5743 z"
     fill="#3055f1"
     id="path4" />
  <path
     d="m 18.251276,12.5554 c 0.3929,-0.1753 0.8746,0.1876 0.7974,0.614 -0.0269,0.4335 -0.5963,0.6643 -0.9284,0.3961 -0.3583,-0.2454 -0.2812,-0.8664 0.131,-1.0101 z"
     fill="#3055f1"
     id="path5" />
  <path
     d="m 22.494476,12.7757 c 0.38,-0.1391 0.8225,0.1992 0.7652,0.6047 -0.0076,0.4581 -0.6244,0.7023 -0.9553,0.3972 -0.346,-0.2647 -0.2309,-0.8834 0.1901,-1.0019 z"
     fill="#3055f1"
     id="path6" />
  <path
     d="m 16.287076,13.4223 c 0.3871,-0.1508 0.8413,0.201 0.7745,0.6147 -0.0198,0.4441 -0.6085,0.6795 -0.9399,0.3962 -0.3573,-0.2565 -0.2579,-0.8836 0.1654,-1.0109 z"
     fill="#3055f1"
     id="path7" />
  <path
     d="m 24.361676,13.829 c 0.3812,-0.1425 0.8278,0.1969 0.7693,0.6042 -0.0082,0.4586 -0.6256,0.7017 -0.9558,0.3961 -0.3444,-0.264 -0.2315,-0.8787 0.1865,-1.0003 z"
     fill="#3055f1"
     id="path8" />
  <path
     d="m 14.675676,14.8937 c 0.3689,-0.1659 0.8413,0.1391 0.8085,0.5498 0.0233,0.4487 -0.5478,0.735 -0.9044,0.4773 -0.3818,-0.2314 -0.3215,-0.8705 0.0959,-1.0271 z"
     fill="#3055f1"
     id="path9" />
  <path
     d="m 25.771076,15.4545 c 0.3367,-0.1613 0.7886,0.0713 0.8207,0.4504 0.0585,0.3225 -0.2086,0.6591 -0.539,0.6609 -0.3098,0.0356 -0.6133,-0.2291 -0.6161,-0.541 -0.0264,-0.2379 0.1198,-0.4715 0.3344,-0.5703 z"
     fill="#3055f1"
     id="path10" />
  <path
     d="m 13.628876,16.7921 c 0.3484,-0.156 0.8009,0.1087 0.8044,0.4966 0.0421,0.3295 -0.2573,0.6456 -0.5882,0.6234 -0.2987,0.01 -0.5759,-0.2569 -0.5706,-0.5567 -0.0216,-0.2402 0.1333,-0.4738 0.3542,-0.5633 z"
     fill="#3055f1"
     id="path11" />
  <path
     d="m 26.703776,17.3634 c 0.3432,-0.1262 0.7594,0.1321 0.7705,0.5031 0.0467,0.3435 -0.2759,0.6732 -0.6214,0.6281 -0.3391,-0.003 -0.6028,-0.3588 -0.5302,-0.6853 0.0298,-0.2045 0.1882,-0.3798 0.3811,-0.4459 z"
     fill="#3055f1"
     id="path12" />
  <path
     d="m 13.182076,18.8588 c 0.3899,-0.1571 0.8541,0.201 0.7799,0.6199 -0.0246,0.4476 -0.6285,0.6749 -0.9535,0.3764 -0.3385,-0.2612 -0.238,-0.8665 0.1736,-0.9962 z"
     fill="#3055f1"
     id="path13" />
  <path
     d="m 26.869976,19.5511 c 0.3379,-0.1729 0.8014,0.0602 0.833,0.4459 0.059,0.3284 -0.2192,0.6678 -0.5553,0.6596 -0.3046,0.0269 -0.5975,-0.2372 -0.5998,-0.5428 -0.0252,-0.2325 0.1145,-0.4617 0.3221,-0.5627 z"
     fill="#3055f1"
     id="path14" />
  <path
     d="m 13.353276,21.0471 c 0.3806,-0.2093 0.9038,0.1256 0.8435,0.5632 0.0023,0.4511 -0.598,0.7076 -0.9359,0.4213 -0.3356,-0.2372 -0.2817,-0.8132 0.0924,-0.9845 z"
     fill="#3055f1"
     id="path15" />
  <path
     d="m 26.475376,21.6477 c 0.3367,-0.1596 0.7868,0.073 0.8184,0.4521 0.0578,0.3225 -0.2093,0.6579 -0.539,0.6597 -0.3104,0.0351 -0.6138,-0.2296 -0.6161,-0.5417 -0.0257,-0.2389 0.121,-0.4727 0.3367,-0.5703 z"
     fill="#3055f1"
     id="path16" />
  <path
     d="m 14.330776,22.9567 c 0.3671,-0.1641 0.8348,0.1426 0.8021,0.5498 0.0239,0.4446 -0.5396,0.7332 -0.898,0.482 -0.3899,-0.2268 -0.3314,-0.8822 0.0959,-1.0318 z"
     fill="#3055f1"
     id="path17" />
  <path
     d="m 25.437976,23.4834 c 0.3788,-0.1712 0.8606,0.1618 0.8038,0.5813 0,0.4399 -0.5706,0.6994 -0.9143,0.4382 -0.373,-0.2354 -0.3058,-0.87 0.1105,-1.0195 z"
     fill="#3055f1"
     id="path18" />
  <path
     d="m 15.750376,24.5285 c 0.3899,-0.1606 0.8576,0.1969 0.784,0.6164 -0.0229,0.4487 -0.6274,0.6772 -0.9535,0.3792 -0.3374,-0.2606 -0.2391,-0.8629 0.1695,-0.9956 z"
     fill="#3055f1"
     id="path19" />
  <path
     d="m 23.924676,24.9527 c 0.4017,-0.1297 0.8325,0.2635 0.7314,0.6754 -0.0585,0.4336 -0.6543,0.6217 -0.9629,0.3207 -0.3384,-0.278 -0.1998,-0.8992 0.2315,-0.9961 z"
     fill="#3055f1"
     id="path20" />
  <path
     d="m 17.683676,25.6479 c 0.3279,-0.0911 0.7015,0.153 0.7238,0.4983 0.0532,0.3295 -0.2338,0.6609 -0.5689,0.6474 -0.3198,0.0221 -0.6126,-0.2723 -0.5892,-0.5907 -0.0076,-0.2565 0.1865,-0.4973 0.4343,-0.555 z"
     fill="#3055f1"
     id="path21" />
  <path
     d="m 21.845076,25.8598 c 0.3392,-0.1694 0.8009,0.0655 0.8302,0.4511 0.0573,0.3272 -0.2204,0.6637 -0.5548,0.6567 -0.3051,0.0274 -0.5992,-0.2367 -0.601,-0.5435 -0.0251,-0.2336 0.1163,-0.4639 0.3256,-0.5643 z"
     fill="#3055f1"
     id="path22" />
  <path
     d="m 19.722876,26.0483 c 0.3719,-0.1543 0.8338,0.1624 0.7904,0.5696 0.0158,0.4639 -0.6063,0.735 -0.947,0.4306 -0.346,-0.2554 -0.2531,-0.864 0.1566,-1.0002 z"
     fill="#3055f1"
     id="path23" />
  <path
     d="m 25.841676,5.1353899 c 0.3695,-0.1671 0.843,0.13903 0.8097,0.55044 0.0228,0.44935 -0.5513,0.73496 -0.9073,0.47445 -0.3789,-0.23189 -0.3174,-0.86778 0.0976,-1.02489 z"
     fill="#3055f1"
     id="path24" />
  <path
     d="m 29.966576,7.6465999 c 0.2076,-0.04738 0.4414,0.01228 0.5817,0.17763 0.2181,0.23784 0.1842,0.65789 -0.0789,0.84956 -0.2659,0.21556 -0.7127,0.13147 -0.8704,-0.17588 -0.186,-0.3172 0.0029,-0.77653 0.3677,-0.85131 z"
     fill="#3055f1"
     id="path25" />
  <path
     d="m 21.226076,4.0250099 c 0.3934,-0.17709 0.8809,0.18168 0.8038,0.61226 -0.0256,0.43653 -0.602,0.6672 -0.9324,0.39266 -0.353,-0.24661 -0.2742,-0.85415 0.1286,-1.00492 z"
     fill="#3055f1"
     id="path26" />
  <path
     d="m 16.476776,4.4681399 c 0.3361,-0.15954 0.7851,0.07181 0.8184,0.44934 0.0603,0.3249 -0.2099,0.66315 -0.5425,0.66261 -0.3087,0.03334 -0.6098,-0.23081 -0.6121,-0.54167 -0.0256,-0.23837 0.121,-0.47215 0.3362,-0.57028 z"
     fill="#3055f1"
     id="path27" />
  <path
     d="m 12.116276,6.2720299 c 0.3489,-0.15252 0.7996,0.11514 0.7996,0.50307 0.0397,0.3284 -0.2596,0.64088 -0.5887,0.61874 -0.3479,0.01283 -0.6361,-0.34122 -0.5641,-0.67948 0.0234,-0.19801 0.1714,-0.36809 0.3532,-0.44233 z"
     fill="#3055f1"
     id="path28" />
  <path
     d="m 8.4746558,9.3731099 c 0.33035,-0.15077 0.76577,0.07248 0.80791,0.43936 0.0678,0.3266301 -0.19934,0.6736301 -0.5355,0.6759301 -0.31684,0.0369 -0.62544,-0.2401 -0.61855,-0.5590401 -0.01864,-0.23608 0.13208,-0.46271 0.34614,-0.55625 z"
     fill="#3055f1"
     id="path29" />
  <path
     d="m 33.015176,11.2289 c 0.3438,-0.1292 0.7635,0.1309 0.7735,0.503 0.0457,0.3418 -0.2736,0.669 -0.6168,0.6275 -0.3402,-5e-4 -0.6073,-0.3564 -0.535,-0.6842 0.0287,-0.2039 0.1859,-0.3798 0.3783,-0.4463 z"
     fill="#3055f1"
     id="path30" />
  <path
     d="m 6.0321358,13.3733 c 0.3922,-0.1746 0.87395,0.187 0.79683,0.6135 -0.02633,0.4359 -0.60032,0.6667 -0.93188,0.3937 -0.3548,-0.2466 -0.27592,-0.8641 0.13505,-1.0072 z"
     fill="#3055f1"
     id="path31" />
  <path
     d="m 34.873176,15.6527 c 0.1959,-0.0445 0.4163,0.0017 0.5594,0.149 0.2333,0.2213 0.2263,0.6415 -0.0205,0.8506 -0.2496,0.2354 -0.7039,0.1806 -0.8822,-0.1157 -0.2157,-0.3137 -0.0344,-0.8039 0.3432,-0.8839 z"
     fill="#3055f1"
     id="path32" />
  <path
     d="m 4.9852458,18.0564 c 0.3999,-0.1263 0.82722,0.264 0.72836,0.6742 -0.05726,0.4364 -0.65705,0.6257 -0.96578,0.3207 -0.33737,-0.2798 -0.19516,-0.8998 0.23742,-0.9949 z"
     fill="#3055f1"
     id="path33" />
  <path
     d="m 35.228776,20.3967 c 0.335,-0.1116 0.7296,0.1355 0.7519,0.4925 0.0544,0.3418 -0.2566,0.6801 -0.6033,0.6451 -0.3502,0.0065 -0.6261,-0.3616 -0.546,-0.6976 0.0368,-0.205 0.1988,-0.3803 0.3976,-0.4399 z"
     fill="#3055f1"
     id="path34" />
  <path
     d="m 5.3026758,22.7688 c 0.38059,-0.1408 0.82668,0.198 0.76698,0.6059 -0.00824,0.4563 -0.62139,0.6993 -0.95228,0.3979 -0.34777,-0.2642 -0.23554,-0.8828 0.1853,-1.0038 z"
     fill="#3055f1"
     id="path35" />
  <path
     d="m 34.132976,25.0166 c 0.3379,-0.1204 0.7448,0.1268 0.7657,0.4908 0.0532,0.3465 -0.2678,0.686 -0.6178,0.6421 -0.3239,-0.003 -0.5882,-0.3277 -0.5385,-0.6456 0.0163,-0.2208 0.1812,-0.4195 0.3906,-0.4873 z"
     fill="#3055f1"
     id="path36" />
  <path
     d="m 7.1562758,27.1687 c 0.35074,-0.1023 0.74713,0.1875 0.72903,0.5574 0.02161,0.3119 -0.26187,0.5999 -0.57412,0.5871 -0.31739,0.0205 -0.60803,-0.2712 -0.58642,-0.5884 -0.00878,-0.2559 0.18422,-0.4978 0.43137,-0.5562 z"
     fill="#3055f1"
     id="path37" />
  <path
     d="m 31.634476,29.0351 c 0.3718,-0.1689 0.8476,0.1483 0.805,0.5615 0.0158,0.4476 -0.5659,0.7244 -0.9154,0.4569 -0.3713,-0.2361 -0.3058,-0.8694 0.1104,-1.0184 z"
     fill="#3055f1"
     id="path38" />
  <path
     d="m 10.197176,30.7221 c 0.3894,-0.1596 0.8553,0.1957 0.784,0.6147 -0.0211,0.4504 -0.6296,0.6807 -0.9558,0.3791 -0.3356002,-0.2612 -0.2363002,-0.8624 0.1718,-0.9938 z"
     fill="#3055f1"
     id="path39" />
  <path
     d="m 27.993976,32.1662 c 0.3362,-0.16 0.7851,0.0708 0.819,0.4482 0.0602,0.3242 -0.2087,0.6631 -0.5413,0.6631 -0.3105,0.0339 -0.6138,-0.2331 -0.6138,-0.5462 -0.0241,-0.2367 0.1227,-0.468 0.3361,-0.5651 z"
     fill="#3055f1"
     id="path40" />
  <path
     d="m 14.264576,33.2445 c 0.3806,-0.1776 0.8687,0.1595 0.8085,0.5826 -0.0023,0.437 -0.5682,0.694 -0.9114,0.4358 -0.373,-0.2326 -0.3103,-0.8647 0.1029,-1.0184 z"
     fill="#3055f1"
     id="path41" />
  <path
     d="m 23.616676,33.9745 c 0.3321,-0.1525 0.7705,0.0731 0.8097,0.4429 0.0648,0.3249 -0.2006,0.6684 -0.535,0.6719 -0.3163,0.0374 -0.6256,-0.2383 -0.6191,-0.5568 -0.0199,-0.2366 0.1298,-0.4644 0.3444,-0.558 z"
     fill="#3055f1"
     id="path42" />
  <path
     d="m 18.957276,34.3594 c 0.3783,-0.1192 0.7973,0.2255 0.7354,0.621 -0.0135,0.461 -0.642,0.6941 -0.9664,0.3781 -0.3426,-0.2775 -0.2034,-0.9033 0.231,-0.9991 z"
     fill="#3055f1"
     id="path43" />
  <path
     d="m 20.247176,0.07759631 c 0.4198,-0.1746625 0.9114,0.2313536 0.791,0.6782676 -0.2911,0.92257599 -1.2364,1.61906599 -2.2138,1.54010599 -0.4039,-0.00931 -0.8014,-0.13322 -1.1423,-0.34757 -0.3093,-0.21799 -0.5413,-0.5252 -0.7366,-0.84483 -0.1444,-0.22433499 -0.104,-0.55044399 0.0971,-0.72794099 0.221,-0.21853 0.6344,-0.207462 0.8307,0.039144 0.145,0.184111 0.2421,0.41074 0.4326,0.556787 0.4115,0.27805999 1.0155,0.22959999 1.3604,-0.134978 0.2503,-0.215021 0.224,-0.652622 0.5812,-0.7589856 z"
     fill="#d3b2f3"
     id="path44" />
  <path
     d="m 23.362376,0.39030091 c 0.2642,-0.104609 0.6016,0.002294 0.7296,0.263478 0.0989,0.235403 0.0971,0.51589099 0.2666,0.72038099 0.3409,0.42181 1.0009,0.54923 1.4463,0.21678 0.1836,-0.12796 0.2742,-0.36985 0.5004,-0.43882 0.3156,-0.1227 0.7138,0.08828 0.771,0.42478 0.0094,0.14956 0.0281,0.32071 -0.0695,0.44691 -0.3525,0.45637 -0.8694,0.79516 -1.444,0.88276 -0.2531,0.01809 -0.5097,0.03739 -0.7617,0.00581 -0.636,-0.14726 -1.233,-0.54518 -1.5486,-1.12464 -0.1198,-0.24837 -0.1976,-0.51643 -0.2467,-0.78707 -0.0457,-0.25645499 0.1169,-0.51939399 0.3565,-0.61050399 z"
     fill="#d3b2f3"
     id="path45" />
  <path
     d="m 14.240876,0.51712991 c 0.3251,-0.080582 0.6822,0.164809 0.7155,0.49901999 -0.0012,0.67192 -0.2835,1.36949 -0.8435,1.76565 -0.6344,0.55976 -1.6007,0.61578 -2.3542,0.28049 -0.2443,-0.15955 -0.4899,-0.32894 -0.6899,-0.54221 -0.2683,-0.34649 0.0065,-0.92487 0.4519,-0.91313 0.394,-0.04265 0.5724,0.41128 0.933,0.47553 0.608,0.18816 1.3341,-0.30262 1.3271,-0.95241 -0.0217,-0.28332199 0.1777,-0.56083799 0.4601,-0.61293999 z"
     fill="#d3b2f3"
     id="path46" />
  <path
     d="m 29.112676,1.8654199 c 0.3005,-0.13552 0.6916,0.02214 0.7939,0.34001 0.0602,0.25943 -0.0334,0.53114 0.0379,0.7899 0.1526,0.51534 0.7331,0.87695 1.2621,0.72861 0.2549,-0.03793 0.428,-0.29911 0.6997,-0.27455 0.3239,-0.00405 0.6098,0.30263 0.5765,0.62631 -0.0013,0.24066 -0.1813,0.4353 -0.39,0.53168 -0.6343,0.36282 -1.4392,0.39373 -2.1016,0.08476 -0.602,-0.31895 -1.092,-0.89923 -1.2025,-1.58397 -0.0298,-0.25889 -0.0286,-0.52116 -0.0082,-0.78058 0.0093,-0.2022 0.1531,-0.37808 0.3321,-0.46217 z"
     fill="#d3b2f3"
     id="path47" />
  <path
     d="m 8.7545058,3.3005799 c 0.28065,-0.08409 0.61086,0.06951 0.71445,0.34649 0.14032,0.55908 0.12276,1.16797 -0.13452,1.69142 -0.173,0.26577 -0.33669,0.55557 -0.60505,0.73792 -0.5016,0.38213 -1.16337,0.57555 -1.78773,0.44111 -0.21812,-0.06546 -0.4361,-0.13497 -0.64422,-0.2273 -0.30982,-0.14429 -0.39747,-0.58608 -0.19583,-0.85239 0.12803,-0.1829 0.36654,-0.27522 0.58466,-0.22555 0.21744,0.05197 0.41502,0.17588 0.64016,0.19801 0.49052,0.00297 0.96349,-0.36106 1.05816,-0.8478 0.06726,-0.21326 -0.02282,-0.42707 -0.05024,-0.63858 -0.04565,-0.27522 0.15721,-0.55098 0.4203,-0.62347 z"
     fill="#d3b2f3"
     id="path48" />
  <path
     d="m 34.013076,5.5136499 c 0.3093,-0.13376 0.7068,0.0432 0.7916,0.37336 0.0906,0.3091 -0.1486,0.57433 -0.179,0.87115 -0.0022,0.29682 0.0959,0.607 0.3099,0.81972 0.2654,0.21448 0.6203,0.38793 0.9668,0.27752 0.2257,-0.06951 0.5039,-0.07478 0.6764,0.11271 0.2987,0.26753 0.1999,0.82269 -0.1748,0.96874 -0.4466,0.13498 -0.9319,0.14254 -1.3778,-0.00122 -0.3414,-0.08409 -0.6144,-0.31719 -0.895,-0.51467 -0.4303,-0.43585 -0.6648,-1.04878 -0.656,-1.65983 -0.0228,-0.3091 0.114,-0.59418 0.2122,-0.87871 0.0502,-0.16184 0.1677,-0.30209 0.3256,-0.36863 z"
     fill="#d3b2f3"
     id="path49" />
  <path
     d="m 4.4566358,7.5874599 c 0.23445,-0.05493 0.50106,0.04144 0.62787,0.25066 0.32387,0.51764 0.46473,1.16905 0.29875,1.76512 -0.05268,0.18289 -0.09414,0.37105 -0.17301,0.5457601 -0.30401,0.4762 -0.74416,0.888 -1.2937,1.0575 -0.32211,0.1285 -0.67407,0.0841 -1.0113,0.0683 -0.29348,0.0018 -0.54482,-0.2745 -0.53604,-0.5638 -0.01701,-0.2617 0.17652,-0.5147 0.43029,-0.5738 0.2747,-0.0444 0.56764,0.069 0.83073,-0.0544 0.29996,-0.1332101 0.56642,-0.3926401 0.62733,-0.7250901 0.09941,-0.29857 0.02391,-0.62698 -0.15896,-0.87588 -0.22621,-0.31963 -0.03268,-0.82553 0.35831,-0.8945 z"
     fill="#d3b2f3"
     id="path50" />
  <path
     d="m 37.630576,10.4894 c 0.352,-0.1122 0.7577,0.1758 0.7431,0.5497 0.0181,0.4148 -0.4689,0.6182 -0.4951,1.0243 -0.1163,0.6052 0.3981,1.2485 1.0248,1.2181 0.3017,-0.007 0.5857,0.2572 0.5811,0.5621 0.0334,0.3225 -0.2601,0.628 -0.5829,0.6123 -0.5132,-0.0199 -1.0348,-0.19 -1.417,-0.541 -0.2262,-0.2058 -0.4197,-0.4494 -0.5694,-0.7146 -0.2905,-0.7141 -0.294,-1.6149 0.2175,-2.2314 0.1408,-0.1806 0.2554,-0.4207 0.4981,-0.4797 z"
     fill="#d3b2f3"
     id="path51" />
  <path
     d="m 1.5686158,13.0062 c 0.26188,-0.0901 0.53023,0.0432 0.69446,0.2471 0.46716,0.4341 0.72552,1.0681 0.69446,1.7049 0.0058,0.627 -0.32211,1.217 -0.78508,1.6237 -0.32441,0.278 -0.74416,0.4078 -1.15406,0.4978 -0.43609195,0.0725 -0.77980895,-0.4441 -0.58046695,-0.8273 0.196367,-0.4288 0.78683695,-0.2851 1.06342695,-0.6263 0.37357,-0.3593 0.41503,-1.0009 0.08306,-1.3993 -0.13384,-0.1596 -0.34966,-0.2617 -0.40449,-0.478 -0.09994,-0.3003 0.0836,-0.6549 0.38869,-0.7426 z"
     fill="#d3b2f3"
     id="path52" />
  <path
     d="m 39.478276,16.371 c 0.3782,-0.1437 0.8231,0.1952 0.7669,0.5995 0.0018,0.2822 -0.2495,0.4428 -0.4642,0.5685 -0.3366,0.1841 -0.4875,0.5877 -0.477,0.9547 0.0432,0.3874 0.3017,0.7502 0.6764,0.8805 0.245,0.08 0.4513,0.3091 0.4268,0.579 0.0256,0.3845 -0.401,0.6871 -0.7589,0.5609 -0.487,-0.208 -0.9377,-0.5399 -1.2031,-1.0055 -0.1654,-0.333 -0.3163,-0.6958 -0.2922,-1.0751 0.0075,-0.5843 0.2191,-1.1732 0.6336,-1.5921 0.2192,-0.1711 0.4384,-0.3518 0.6917,-0.4704 z"
     fill="#d3b2f3"
     id="path53" />
  <path
     d="m 0.57946185,19.0497 c 0.264304,-0.0876 0.50686395,0.084 0.73078395,0.1992 0.29524,0.1601 0.52794,0.4078 0.7266,0.6742 0.1672,0.2004 0.22622,0.4616 0.31104,0.7023 0.08887,0.2349 0.06253,0.4913 0.0497,0.7367 -0.00702,0.3658 -0.17017,0.7041 -0.34601,1.0167 -0.20515,0.3563 -0.56359,0.5773 -0.89907,0.7957 -0.38868995,0.2004 -0.89623295,-0.1636 -0.81898095,-0.5972 0.020528,-0.3816 0.441901,-0.486 0.66704095,-0.7216 0.22973,-0.2828 0.33845,-0.6877 0.19705,-1.0353 -0.09589,-0.3219 -0.37059995,-0.562 -0.68689795,-0.6608 -0.296988,-0.1023 -0.440147,-0.4697 -0.323864,-0.7543 0.068339,-0.1694 0.215685,-0.3068 0.392878,-0.3558 z"
     fill="#d3b2f3"
     id="path54" />
  <path
     d="m 39.332376,22.4872 c 0.2537,-0.1017 0.5699,-0.0211 0.7167,0.2173 0.159,0.2406 0.1075,0.6017 -0.1257,0.777 -0.2538,0.1859 -0.6214,0.1373 -0.8454,0.3739 -0.4905,0.4015 -0.4845,1.2674 0.0556,1.6237 0.2852,0.184 0.3314,0.6281 0.1006,0.8722 -0.176,0.2092 -0.5081,0.2484 -0.7401,0.1187 -0.4823,-0.3593 -0.8448,-0.9051 -0.9044,-1.5121 -0.0982,-0.6408 0.1047,-1.3275 0.5513,-1.8 0.1778,-0.1771 0.3683,-0.3448 0.5847,-0.4738 0.197,-0.0795 0.4057,-0.1268 0.6068,-0.1969 z"
     fill="#d3b2f3"
     id="path55" />
  <path
     d="m 1.3847858,25.0652 c 0.22325,-0.1039 0.46999,-0.0205 0.69797,0.0211 0.40625,0.0953 0.80561,0.2798 1.08855,0.5942 0.21393,0.2647 0.45892,0.5234 0.54373,0.8636 0.17369,0.6591 0.12574,1.4349 -0.32332,1.9789 -0.16247,0.2015 -0.32332,0.4808 -0.6191,0.4755 -0.32332,0.0404 -0.63543,-0.2471 -0.62206,-0.572 -0.02283,-0.347 0.34196,-0.5212 0.44717,-0.8203 0.11925,-0.347 0.07779,-0.7683 -0.18881,-1.0382 -0.18354,-0.2612 -0.5039,-0.3699 -0.81142,-0.3799 -0.29118,-0.0093 -0.55305,-0.2692 -0.54198,-0.5643 -0.02512,-0.2349 0.12277,-0.4569 0.32913,-0.5586 z"
     fill="#d3b2f3"
     id="path56" />
  <path
     d="m 36.827876,28.2417 c 0.3227,-0.0544 0.6577,-0.0555 0.9809,-0.0041 0.418,0.1152 0.5343,0.7257 0.1982,0.9939 -0.2514,0.2371 -0.6144,0.0753 -0.9167,0.1343 -0.5395,0.1109 -0.9148,0.6882 -0.8202,1.2269 0.0445,0.2986 0.3666,0.5019 0.2935,0.8273 -0.0274,0.4522 -0.6407,0.676 -0.9652,0.3699 -0.7331,-0.8461 -0.6261,-2.2665 0.2151,-3.002 0.2888,-0.2576 0.6256,-0.4802 1.0143,-0.5462 z"
     fill="#d3b2f3"
     id="path57" />
  <path
     d="m 4.4812558,30.4421 c 0.30401,-0.0409 0.61504,-0.0234 0.91433,0.0431 0.38815,0.0953 0.72309,0.3307 1.02251,0.5867 0.53779,0.5848 0.80493,1.4723 0.50916,2.2331 -0.07888,0.2097 -0.12452,0.4621 -0.32967,0.5906 -0.30172,0.2103 -0.77577,0.0555 -0.87989,-0.3021 -0.10346,-0.3207 0.14329,-0.5994 0.18057,-0.9068 0.01985,-0.5281 -0.3841,-1.0324 -0.91136,-1.1077 -0.27646,-0.0562 -0.54252,0.132 -0.81669,0.0491 -0.21919,-0.0736 -0.38639,-0.2851 -0.39639,-0.5176 -0.02228,-0.2379 0.11629,-0.4791 0.33211,-0.5808 0.11871,-0.0527 0.24904,-0.0666 0.37532,-0.0876 z"
     fill="#d3b2f3"
     id="path58" />
  <path
     d="m 32.956876,32.9711 c 0.4454,-0.048 0.8786,0.1051 1.2791,0.2822 0.3748,0.212 0.3437,0.8285 -0.0445,1.0096 -0.4227,0.2249 -0.8114,-0.2606 -1.2417,-0.1267 -0.3549,0.0748 -0.6682,0.3166 -0.795,0.6614 -0.11,0.2343 -0.0754,0.4972 -0.0129,0.7397 0.0877,0.3319 -0.1917,0.6982 -0.5349,0.6993 -0.2742,0.0321 -0.5455,-0.1694 -0.6086,-0.4346 -0.135,-0.5977 -0.0824,-1.2626 0.2601,-1.7845 0.3531,-0.5994 1.0126,-0.9803 1.6982,-1.0463 z"
     fill="#d3b2f3"
     id="path59" />
  <path
     d="m 9.1044158,34.6471 c 0.63946,-0.1403 1.3386602,0.0268 1.8543602,0.4265 0.4419,0.3581 0.7657,0.891 0.8266,1.4601 -0.0256,0.3207 0.0719,0.7035 -0.1549,0.9698 -0.2257,0.2693 -0.6969,0.2506 -0.9015,-0.0351 -0.2467,-0.3091 0.0246,-0.7315 -0.1637,-1.0611 -0.1742,-0.4428 -0.6647002,-0.7028 -1.1282202,-0.6521 -0.30401,0.0304 -0.50916,0.3476 -0.82776,0.3074 -0.3163,-0.0111 -0.58047,-0.3196 -0.53604,-0.6351 -0.00405,-0.2173 0.15086,-0.4002 0.33616,-0.4937 0.22095,-0.1198 0.4496,-0.2302 0.69513,-0.2869 z"
     fill="#d3b2f3"
     id="path60" />
  <path
     d="m 27.404376,36.2393 c 0.5681,-0.0906 1.2106,-0.0117 1.659,0.3786 0.2046,0.1578 0.487,0.3074 0.4928,0.603 0.0502,0.3342 -0.2496,0.6649 -0.5882,0.6391 -0.4022,0.0035 -0.5968,-0.472 -0.9938,-0.4955 -0.6109,-0.1152 -1.2581,0.406 -1.2312,1.0353 0.007,0.2705 -0.2087,0.5176 -0.4723,0.5643 -0.2982,0.0655 -0.6273,-0.1408 -0.6851,-0.4416 -0.0889,-1.0739 0.7547,-2.1245 1.8186,-2.2833 z"
     fill="#d3b2f3"
     id="path61" />
  <path
     d="m 14.975876,37.1104 c 0.2794,-0.0263 0.5647,-0.0449 0.8436,-0.0075 0.6447,0.1495 1.2452,0.5655 1.5503,1.1602 0.1011,0.2916 0.239,0.5907 0.2192,0.9063 -0.0509,0.406 -0.5829,0.6158 -0.9061,0.3739 -0.3116,-0.201 -0.2146,-0.6393 -0.4391,-0.9015 -0.2174,-0.2519 -0.5448,-0.4476 -0.8885,-0.4085 -0.3227,-0.004 -0.6121,0.1776 -0.8021,0.4301 -0.1941,0.2687 -0.6274,0.2985 -0.8599,0.066 -0.2368,-0.2093 -0.2526,-0.6158 -0.0281,-0.8391 0.183,-0.1841 0.3723,-0.3668 0.5898,-0.5094 0.2269,-0.1215 0.4701,-0.215 0.7209,-0.2705 z"
     fill="#d3b2f3"
     id="path62" />
  <path
     d="m 21.226976,37.6221 c 0.5337,-0.1139 1.1002,0.0023 1.5761,0.2589 0.2269,0.132 0.4466,0.2928 0.5829,0.5229 0.1344,0.2273 0.366,0.4359 0.3362,0.7239 -0.003,0.3693 -0.4158,0.6356 -0.7588,0.5154 -0.2929,-0.0818 -0.3759,-0.406 -0.5536,-0.6147 -0.4811,-0.5031 -1.4639,-0.3372 -1.6989,0.3377 -0.0695,0.2501 -0.2806,0.478 -0.5553,0.475 -0.3701,0.0461 -0.6934,-0.3307 -0.6156,-0.6883 0.232,-0.7671 0.8961,-1.3795 1.687,-1.5308 z"
     fill="#d3b2f3"
     id="path63" />
  <path
     d="m 21.786076,0.04057881 c 0.3731,-0.1565749 0.8383,0.1623791 0.7928,0.5725801 0.0128,0.46217099 -0.6073,0.73037099 -0.9477,0.42707099 -0.3449,-0.25470399 -0.2525,-0.86116299 0.1549,-0.99965109 z"
     fill="#3055f1"
     id="path64" />
  <path
     d="m 15.674776,0.49894491 c 0.3806,-0.139028 0.8237,0.200983 0.764,0.60699499 -0.0093,0.45745 -0.6249,0.69933 -0.9547,0.39495 -0.346,-0.26469 -0.2309,-0.88343399 0.1906,-1.00194499 z"
     fill="#3055f1"
     id="path65" />
  <path
     d="m 27.780776,1.5992499 c 0.3385,-0.16009 0.7904,0.07531 0.819,0.45568 0.056,0.32071 -0.2093,0.65317 -0.5373,0.65614 -0.3121,0.03617 -0.6178,-0.23082 -0.6185,-0.54518 -0.0239,-0.23784 0.1227,-0.46919 0.3367,-0.56678 z"
     fill="#3055f1"
     id="path66" />
  <path
     d="m 9.9113758,2.2898899 c 0.3480002,-0.13377 0.7793002,0.13268 0.7793002,0.51292 0.0362,0.3149 -0.2385,0.62225 -0.5565,0.61644 -0.3116002,0.02862 -0.6091502,-0.24593 -0.6021302,-0.55854 -0.02106,-0.2489 0.14793,-0.48781 0.37933,-0.57082 z"
     fill="#3055f1"
     id="path67" />
  <path
     d="m 33.041576,4.3167299 c 0.3543,-0.16008 0.8167,0.11865 0.8067,0.51467 0.0345,0.34649 -0.3045,0.65668 -0.6465,0.60174 -0.3391,-0.02214 -0.5857,-0.38321 -0.5016,-0.70931 0.0357,-0.18115 0.1725,-0.33583 0.3414,-0.4071 z"
     fill="#3055f1"
     id="path68" />
  <path
     d="m 5.1223358,6.2845399 c 0.33845,-0.17007 0.7998,0.06425 0.82952,0.44935 0.05847,0.32719 -0.21866,0.6649 -0.5536,0.65788 -0.30631,0.02741 -0.60032,-0.23715 -0.60154,-0.5445 -0.02458,-0.23311 0.11696,-0.46284 0.32562,-0.56273 z"
     fill="#3055f1"
     id="path69" />
  <path
     d="m 36.921476,9.0942299 c 0.3555,-0.18991 0.85,0.08761 0.8407,0.49835 0.0322,0.31841 -0.2548,0.6187201 -0.5734,0.6052201 -0.3239,0.0211 -0.6179,-0.2827601 -0.5858,-0.6052201 -0.004,-0.21098 0.1344,-0.40426 0.3186,-0.49835 z"
     fill="#3055f1"
     id="path70" />
  <path
     d="m 1.9113158,11.4616 c 0.34318,-0.1267 0.75996,0.131 0.77171,0.5013 0.04741,0.3442 -0.27538,0.6737 -0.62085,0.6293 -0.34021,-0.0023 -0.60384,-0.3598 -0.53023,-0.687 0.02985,-0.2033 0.18759,-0.3776 0.37937,-0.4436 z"
     fill="#3055f1"
     id="path71" />
  <path
     d="m 39.277876,14.8108 c 0.3367,-0.1595 0.7868,0.0725 0.8196,0.4511 0.0585,0.3232 -0.2099,0.6602 -0.5407,0.6609 -0.3099,0.0344 -0.6127,-0.2302 -0.6144,-0.5422 -0.0257,-0.2384 0.121,-0.4715 0.3356,-0.5696 z"
     fill="#3055f1"
     id="path72" />
  <path
     d="m 0.31952185,17.5086 c 0.337374,-0.1782 0.80614395,0.0549 0.83896395,0.4411 0.06199,0.3337 -0.22445995,0.6742 -0.56466995,0.6619 -0.299955,0.0211 -0.585193,-0.2371 -0.59046,-0.5375 -0.026876,-0.2331 0.11034,-0.4621 0.316166,-0.5655 z"
     fill="#3055f1"
     id="path73" />
  <path
     d="m 39.741776,20.9277 c 0.3438,-0.1267 0.7612,0.1338 0.7705,0.5054 0.045,0.3429 -0.2764,0.6696 -0.6203,0.6257 -0.3409,-0.0023 -0.605,-0.3605 -0.5307,-0.6888 0.0303,-0.2027 0.1882,-0.3763 0.3805,-0.4423 z"
     fill="#3055f1"
     id="path74" />
  <path
     d="m 0.83215585,23.5976 c 0.39165995,-0.1711 0.86934995,0.1905 0.79276995,0.6158 -0.02633,0.4353 -0.59978,0.6654 -0.93120995,0.3932 -0.35722,-0.2472 -0.276052,-0.8682 0.13844,-1.009 z"
     fill="#3055f1"
     id="path75" />
  <path
     d="m 38.148676,26.9752 c 0.3549,-0.1899 0.8493,0.0866 0.8407,0.4966 0.0333,0.3184 -0.2526,0.6193 -0.5712,0.607 -0.3251,0.0222 -0.6208,-0.284 -0.5875,-0.6077 -0.0029,-0.2102 0.1351,-0.4025 0.3181,-0.496 z"
     fill="#3055f1"
     id="path76" />
  <path
     d="m 3.1340658,29.3151 c 0.38585,-0.1478 0.83653,0.201 0.77225,0.6129 -0.01634,0.4464 -0.61154,0.6842 -0.94296,0.3967 -0.3548,-0.2587 -0.25256,-0.8834 0.17071,-1.0096 z"
     fill="#3055f1"
     id="path77" />
  <path
     d="m 34.927976,32.1527 c 0.3432,-0.1384 0.7757,0.1187 0.7863,0.4949 0.0444,0.3249 -0.2403,0.6456 -0.5689,0.6322 -0.3128,0.0223 -0.6021,-0.26 -0.5898,-0.572 -0.0146,-0.2414 0.1479,-0.4727 0.3724,-0.5551 z"
     fill="#3055f1"
     id="path78" />
  <path
     d="m 7.1054058,34.0781 c 0.34898,-0.1345 0.78049,0.1344 0.77873,0.5159 0.03512,0.3143 -0.2408,0.6205 -0.55832,0.614 -0.31036,0.0268 -0.60627,-0.2466 -0.60032,-0.5574 -0.02161,-0.2494 0.14775,-0.4902 0.37991,-0.5725 z"
     fill="#3055f1"
     id="path79" />
  <path
     d="m 30.185876,36.0996 c 0.373,-0.1566 0.8377,0.1631 0.7915,0.5721 0.0135,0.4621 -0.605,0.7303 -0.9452,0.4282 -0.3467,-0.2541 -0.255,-0.8629 0.1537,-1.0003 z"
     fill="#3055f1"
     id="path80" />
  <path
     d="m 12.349176,37.3297 c 0.3929,-0.1718 0.8717,0.1917 0.7933,0.6182 -0.0293,0.4335 -0.601,0.6619 -0.9318,0.3902 -0.3566,-0.2477 -0.2747,-0.8682 0.1385,-1.0084 z"
     fill="#3055f1"
     id="path81" />
  <path
     d="m 24.525076,38.4449 c 0.3291,-0.0911 0.7032,0.1548 0.7231,0.5013 0.0514,0.3295 -0.2368,0.6596 -0.5717,0.6444 -0.3174,0.0205 -0.6086,-0.2717 -0.5864,-0.5889 -0.0083,-0.2572 0.186,-0.499 0.4349,-0.5568 z"
     fill="#3055f1"
     id="path82" />
  <path
     d="m 18.279976,38.8898 c 0.3367,-0.1671 0.7946,0.0647 0.8273,0.4463 0.0602,0.329 -0.2182,0.6697 -0.5549,0.662 -0.3045,0.0268 -0.598,-0.2367 -0.6003,-0.5422 -0.0251,-0.2354 0.117,-0.4669 0.3279,-0.5661 z"
     fill="#3055f1"
     id="path83" />
</svg>
