<?xml version="1.0" encoding="UTF-8" standalone="no"?>
<svg
   width="50.513466"
   height="50.516331"
   viewBox="0 0 39.689152 39.691403"
   version="1.1"
   id="svg168"
   xmlns="http://www.w3.org/2000/svg"
   xmlns:svg="http://www.w3.org/2000/svg">
  <defs
     id="defs172" />
  <!--<circle cx="22"
                cy="22"
                r="22"
                fill="#ffffff" />-->
  <path
     fill="#999999"
     d="m 21.321829,0.03974392 c 0.36536,-0.15337 0.8212,0.15911 0.77652,0.56087 0.0126,0.45269008 -0.59499,0.71538008 -0.92827,0.41835008 -0.33787,-0.24952008 -0.24739,-0.84358008 0.15175,-0.97922008 z"
     id="path2" />
  <path
     fill="#675491"
     d="m 19.813629,0.21233392 c 0.41116,-0.17112 0.89277,0.22664 0.7748,0.6644501 -0.28518,0.90367998 -1.21117,1.58586998 -2.16865,1.50859998 -0.39571,-0.009 -0.78512,-0.13048 -1.11898,-0.34052 -0.30293,-0.21347 -0.53028,-0.5145 -0.72155,-0.82755 -0.14144,-0.21976998 -0.10193,-0.53912008 0.0951,-0.71310008 0.21647,-0.21404 0.62134,-0.20317 0.81375,0.0384 0.14202,0.18027 0.23708,0.4023301 0.42377,0.54540008 0.40315,0.27242 0.99471,0.22492 1.33257,-0.13219998 0.2451,-0.2106101 0.21933,-0.6392701 0.56923,-0.7434301 z"
     id="path4" />
  <path
     fill="#675491"
     d="m 22.865349,0.38232392 c 0.25884,-0.10244 0.58926,0.002 0.71468,0.25811 0.0968,0.2306401 0.0951,0.50535008 0.26113,0.70565008 0.33386,0.41321 0.98039,0.53797 1.41676,0.21233 0.17981,-0.12533 0.26857,-0.36227 0.49019,-0.4298 0.30924,-0.12018 0.69922,0.0864 0.75534,0.41607 0.009,0.14651 0.0275,0.31419 -0.0682,0.43781 -0.34531,0.44698 -0.85154,0.77891 -1.41446,0.86476 -0.24797,0.0177 -0.49936,0.0366 -0.74618,0.006 -0.62305,-0.14422 -1.20773,-0.53396 -1.51697,-1.10169 -0.1174,-0.24323 -0.19356,-0.50592 -0.24166,-0.77089998 -0.0447,-0.2512401 0.11453,-0.5087801 0.34932,-0.5980601 z"
     id="path6" />
  <path
     fill="#999999"
     d="m 15.334869,0.48892392 c 0.37281,-0.13621 0.80688,0.19687 0.74847,0.59463008 -0.009,0.44811 -0.61217,0.68505 -0.93515,0.38688 -0.33902,-0.25926 -0.2262,-0.86533008 0.18668,-0.98151008 z"
     id="path8" />
  <path
     fill="#675491"
     d="m 13.949769,1.016784 c 0.3184,-0.079 0.66829,0.16139 0.70093,0.48875 -10e-4,0.65816 -0.27774,1.34149 -0.82635,1.72952 -0.62133,0.54827 -1.56794,0.60321 -2.30609,0.2747 -0.23937,-0.15624 -0.47989,-0.3222 -0.67574,-0.5311 -0.26285,-0.33938 0.006,-0.90596 0.44267,-0.89451 0.38597,-0.0418 0.56063,0.4029 0.91396,0.46585 0.59556,0.18429 1.30681,-0.29645 1.29993,-0.93286 -0.0212,-0.27757 0.17409,-0.54941 0.45069,-0.60035 z"
     id="path10" />
  <path
     fill="#999999"
     d="m 27.193629,1.566674 c 0.33157,-0.15681 0.77424,0.0738 0.8023,0.4464 0.055,0.3142 -0.20501,0.63984 -0.52628,0.6427 -0.30579,0.0355 -0.6053,-0.22606 -0.60587,-0.53396 -0.0235,-0.23293 0.12026,-0.45957 0.32985,-0.55514 z"
     id="path12" />
  <path
     fill="#675491"
     d="m 28.518399,2.337314 c 0.29435,-0.13278 0.67746,0.0218 0.77767,0.33308 0.059,0.25411 -0.0326,0.52023 0.0372,0.77376 0.14947,0.50478 0.71812,0.85903 1.23637,0.71367 0.24968,-0.0372 0.41919,-0.29302 0.68547,-0.26899 0.31726,-0.004 0.59729,0.29646 0.56465,0.61352 -0.001,0.23579 -0.17753,0.42636 -0.38197,0.5208 -0.62133,0.3554 -1.40988,0.38573 -2.0587,0.083 -0.58984,-0.31248 -1.06973,-0.88078 -1.17796,-1.55152 -0.0292,-0.25354 -0.0281,-0.5105 -0.008,-0.76461 0.009,-0.19801 0.15004,-0.37028 0.32527,-0.45269 z"
     id="path14" />
  <path
     fill="#55a3b5"
     d="m 20.483679,2.474274 c 0.82921,-0.14021 1.71454,0.0773 2.3771,0.59806 0.33558,0.277 0.63107,0.60665 0.82979,0.99639 0.5486,-0.45956 1.29879,-0.60378 1.99858,-0.558 0.44896,10e-4 0.86414,0.1963 1.25698,0.39432 0.32012,0.18371 0.57953,0.45212 0.82978,0.71939 0.31038,0.41206 0.52971,0.90196 0.59786,1.4153197 0.66657,-0.2872997 1.43336,-0.17685 2.09535,0.0687 0.32298,0.1013 0.58812,0.3205 0.84124,0.5374 0.36421,0.3039 0.60072,0.72912 0.78454,1.1595 0.18096,0.4836004 0.22105,1.0152704 0.16264,1.5263404 0.76965,-0.0258 1.50952,0.31935 2.07474,0.8246989 0.54231,0.51335 0.82806,1.24991 0.90022,1.98304 0.016,0.53053 -0.10365,1.06278 -0.32584,1.54409 0.79255,0.18428 1.37896,0.82068 1.76665,1.50402 0.28289,0.56258 0.32985,1.21444 0.24911,1.83081 -0.10366,0.60608 -0.4129,1.17152 -0.83609,1.61448 1.11039,0.72054 1.54045,2.29152 1.01475,3.49451 -0.24109,0.68563 -0.78969,1.22989 -1.41962,1.5727 0.81089,1.02443 0.75649,2.62002 -0.0893,3.6084 -0.44552,0.58719 -1.14187,0.96491 -1.86743,1.07079 0.23421,0.62724 0.19985,1.33633 -0.0303,1.96072 -0.23479,0.69535 -0.76622,1.27739 -1.42134,1.60303 -0.5612,0.3205 -1.23694,0.39089 -1.86973,0.31134 0.0739,0.90825 -0.43006,1.76042 -1.09321,2.34303 -0.51882,0.37657 -1.14302,0.60779 -1.78554,0.63812 -0.50394,-0.016 -1.02334,-0.0898 -1.46658,-0.34682 -0.0355,0.33652 -0.24338,0.61924 -0.42033,0.89681 -0.44724,0.55056 -1.06572,0.99295 -1.77581,1.11714 -0.97696,0.19745 -2.04096,-0.1013 -2.74189,-0.81782 -0.39972,0.62781 -1.08634,1.01412 -1.7993,1.17551 -0.68375,0.1448 -1.41389,0.0378 -2.02778,-0.29588 -0.54632,-0.27757 -0.96493,-0.75945 -1.2484,-1.29456 -0.52798,0.44754 -1.24495,0.61065 -1.92413,0.57975 -1.36693,-0.0412 -2.60216,-1.18181 -2.76823,-2.5359 -0.46156,0.22378 -1.00501,0.20432 -1.4975,0.10989 -0.62935,-0.12534 -1.23866,-0.43381 -1.64811,-0.9363 -0.3539,-0.43438 -0.66028,-0.9403 -0.72098,-1.50803 -0.0475,-0.31992 -0.0321,-0.64442 -0.004,-0.96491 -0.86357,0.0492 -1.6950702,-0.38001 -2.2625802,-1.0107 -0.7874,-0.90252 -0.93801,-2.2772 -0.38711,-3.33712 -0.7393,-0.15338 -1.30166,-0.72855 -1.69164,-1.34549 -0.19184,-0.28272 -0.26857,-0.61924 -0.32527,-0.9506 -0.0773,-0.32222 -0.0435,-0.65587 -0.006,-0.98094 0.0596,-0.63526 0.41689,-1.19841 0.83894,-1.65912 -0.68719,-0.43553 -1.08003,-1.21787 -1.21747,-2.00079 -0.0985,-0.72683 0.10823,-1.47197 0.48848,-2.09178 0.30694,-0.40176 0.68719,-0.76003 1.14875,-0.97636 -0.49077,-0.52709 -0.60873,-1.2791 -0.58926,-1.97274 0.0882,-1.34263 1.19857,-2.57081 2.5494702,-2.71732 -0.2622802,-0.58432 -0.2244802,-1.26308 -0.0303,-1.8622789 0.25769,-0.8453 0.95061,-1.50174 1.74718,-1.8502704 0.50565,-0.17055 1.04624,-0.23007 1.57653,-0.15796 -0.0166,-0.34968 0.0246,-0.70737 0.15461,-1.03416 0.19414,-0.41092 0.42721,-0.8115297 0.74847,-1.1371797 0.26342,-0.23636 0.56636,-0.42751 0.88476,-0.58031 0.61618,-0.21806 1.30108,-0.3142 1.93902,-0.12992 0.20902,0.0538 0.41231,0.12934 0.6116,0.21175 0.3894,-1.33004 1.84911,-2.23257 3.21605,-2.01051 0.66371,0.0435 1.26099,0.40061 1.73859,0.84472 0.39857,-0.65643 1.13844,-1.03244 1.86973,-1.19097 m 0.19298,1.11257 c -0.45526,0.11847 -0.93858,0.33766 -1.16822,0.77376 -0.15977,0.26326 -0.2262,0.59176 -0.47416,0.79379 -0.21818,0.20374 -0.60415,0.18829 -0.80058,-0.0378 -0.10479,-0.1322 -0.15347,-0.29874 -0.25598,-0.43266 -0.39742,-0.59176 -1.16707,-0.88364 -1.85999,-0.73198 -0.52456,0.10645 -0.99471,0.45441 -1.25813,0.91855 -0.19929,0.33824 -0.14717,0.74915 -0.26457,1.1125697 -0.0796,0.24838 -0.31725,0.45555 -0.58926,0.42809 -0.26056,0.0155 -0.41175,-0.22263 -0.59557,-0.36285 -0.7038,-0.6198097 -1.88691,-0.4910397 -2.49393,0.2026 -0.22963,0.32164 -0.48561,0.67303 -0.47416,1.08796 -0.01,0.376 0.15691,0.7417104 0.0933,1.1177104 -0.0596,0.34281 -0.47531,0.55171 -0.78684,0.39489 -0.34474,-0.18485 -0.73873,-0.3016 -1.13271,-0.24151 -0.95978,0.0933 -1.74948,1.04046 -1.63552,2.0042189 0.0372,0.44068 0.35104,0.78463 0.47245,1.19784 0.0916,0.32106 -0.15291,0.6902 -0.49134,0.70508 -0.28691,-0.012 -0.57495,-0.0704 -0.86129,-0.0223 -0.6327802,0.11046 -1.1498902,0.59349 -1.3829702,1.18068 -0.16435,0.37028 -0.12598,0.78863 -0.0487,1.17437 0.0985,0.34739 0.34703,0.62725 0.61389,0.86018 0.19699,0.16883 0.39227,0.39832 0.36593,0.67647 -0.005,0.27413 -0.24624,0.51393 -0.51998,0.5208 -0.67802,0.0853 -1.29478,0.58146 -1.48948,1.24133 -0.22506,0.57918 -0.0624,1.23619 0.29206,1.72665 0.201,0.26899 0.50966,0.42294 0.80687,0.56144 0.15176,0.0652 0.30294,0.1465 0.40945,0.27699 0.20043,0.22778 0.17123,0.62954 -0.0807,0.80925 -0.16092,0.10931 -0.34074,0.18886 -0.4942,0.30961 -0.66028,0.51508 -0.86014,1.4943 -0.49937,2.24116 0.16894,0.27814 0.37567,0.54426 0.64539,0.73084 0.35963,0.2438 0.80917,0.23751 1.2174702,0.33193 0.28576,0.0578 0.5028,0.34453 0.45527,0.63813 -0.0109,0.25468 -0.25598,0.38459 -0.38884,0.57288 -0.4375102,0.5454 -0.4907702,1.35236 -0.1592002,1.96301 0.2388002,0.47902 0.7158202,0.8287 1.2323702,0.95118 0.47816,0.12648 0.95003,-0.16826 1.42649,-0.0515 0.32927,0.099 0.4879,0.51908 0.31324,0.81439 -0.26972,0.49619 -0.33043,1.12344 -0.0744,1.63737 0.19528,0.35655 0.4484,0.71825 0.83494,0.88365 0.44381,0.20774 0.99242,0.32564 1.44768,0.0858 0.30351,-0.12762 0.5824,-0.35426 0.92427,-0.35712 0.30637,-0.0114 0.59442,0.27929 0.55319,0.58891 -0.0309,0.26956 -0.0762,0.54484 -0.0137,0.81439 0.14832,0.67304 0.70036,1.22531 1.36235,1.40387 0.47245,0.099 0.99872,0.0487 1.40474,-0.22835 0.27716,-0.17513 0.45412,-0.46586 0.72327,-0.65014 0.22448,-0.16025 0.56864,-0.15452 0.7622,0.0532 0.18898,0.17398 0.14431,0.45441 0.23422,0.67589 0.25713,0.88078 1.26042,1.44451 2.14804,1.21673 0.31038,-0.099 0.63508,-0.21691 0.86529,-0.45785 0.30523,-0.29188 0.38139,-0.73828 0.66486,-1.04675 0.20157,-0.23465 0.60529,-0.24552 0.81947,-0.0223 0.12656,0.14594 0.18612,0.33709 0.31267,0.48475 0.51825,0.73942 1.62749,0.94488 2.39371,0.48245 0.35505,-0.2272 0.68032,-0.54426 0.79714,-0.9609 0.079,-0.31763 0.0802,-0.65472 0.20445,-0.95976 0.14087,-0.32336 0.61102,-0.43439 0.87273,-0.19287 0.29778,0.27814 0.64309,0.54541 1.06113,0.59348 0.53143,0.12019 1.08691,-0.0727 1.51697,-0.38402 0.28805,-0.2707 0.52685,-0.61523 0.62305,-1.0021 0.11339,-0.45785 -0.11624,-0.90826 -0.0641,-1.36668 0.0458,-0.34224 0.45641,-0.56315 0.76851,-0.41492 0.31324,0.14709 0.64996,0.28787 1.00387,0.25639 0.67516,-0.0303 1.34345,-0.44353 1.61833,-1.07021 0.12484,-0.31362 0.21818,-0.65643 0.16263,-0.99581 -0.0378,-0.43954 -0.39914,-0.76804 -0.46557,-1.19842 -0.0544,-0.29302 0.1592,-0.60378 0.45526,-0.64728 0.17123,-0.0143 0.34016,0.0315 0.51139,0.0298 0.60072,0.0343 1.20602,-0.2747 1.54045,-0.77261 0.38368,-0.50249 0.44324,-1.20929 0.201,-1.78617 -0.15977,-0.38688 -0.53199,-0.61581 -0.77537,-0.94259 -0.17467,-0.22377 -0.16149,-0.58033 0.0527,-0.77434 0.1655,-0.16997 0.42148,-0.14364 0.62935,-0.2232 0.91282,-0.23178 1.48776,-1.28654 1.25069,-2.18392 -0.10767,-0.36456 -0.28118,-0.73141 -0.59557,-0.96205 -0.2892,-0.24209 -0.69692,-0.30046 -0.95519,-0.58433 -0.21017,-0.22319 -0.1907,-0.62381 0.0515,-0.81553 0.11338,-0.0841 0.24968,-0.1282 0.36765,-0.20489 0.64481,-0.38688 0.94316,-1.21558 0.78224,-1.93726 -0.0578,-0.36055 -0.29205,-0.65415 -0.52627,-0.92027 -0.21074,-0.23751 -0.50909,-0.37944 -0.81718,-0.43953 -0.30523,-0.0664 -0.65398,-0.0355 -0.90996,-0.24381 -0.201,-0.15109 -0.25884,-0.44067 -0.16721,-0.66845 0.0928,-0.18657 0.2869,-0.2936 0.39742,-0.46815 0.5217,-0.70508 0.39686,-1.76271 -0.21761,-2.3705 -0.28633,-0.23636 -0.61847,-0.44468 -0.99184,-0.50076 -0.42205,-0.0813 -0.83494,0.13906 -1.25641,0.0733 -0.33558,-0.0549 -0.54918,-0.45212 -0.40888,-0.7623089 0.11052,-0.23408 0.21532,-0.47559 0.25369,-0.73313 0.0762,-0.748 -0.33501,-1.5314904 -1.01647,-1.8617204 -0.44095,-0.18027 -0.9592,-0.29416 -1.41103,-0.0853 -0.30867,0.11561 -0.56636,0.37715 -0.91282,0.37601 -0.31897,0.0223 -0.62191,-0.28616 -0.56693,-0.60722 0.0561,-0.36799 0.0573,-0.75831 -0.10366,-1.1022697 -0.21818,-0.56715 -0.74731,-0.97807 -1.33028,-1.11943 -0.41919,-0.0601 -0.87044,-0.0303 -1.24611,0.18142 -0.32126,0.18428 -0.51997,0.51393 -0.81661,0.72855 -0.28804,0.21347 -0.76908,0.0864 -0.87101,-0.26898 -0.0893,-0.3846 -0.16607,-0.80753 -0.46213,-1.09426 -0.42148,-0.48474 -1.10237,-0.72969 -1.73516,-0.61523 z"
     id="path16" />
  <path
     fill="#999999"
     d="m 9.708979,2.753124 c 0.34072,-0.13106 0.76335,0.12992 0.76335,0.50249 0.0355,0.30847 -0.23365,0.60951 -0.54517,0.60378 -0.30523,0.028 -0.59671,-0.24094 -0.58984,-0.54712 -0.0206,-0.24381 0.14488,-0.47788 0.37166,-0.55915 z"
     id="path18" />
  <path
     fill="#675491"
     d="m 8.575629,3.743014 c 0.27488,-0.0824 0.59843,0.0681 0.69979,0.33938 0.13743,0.5477 0.12026,1.14405 -0.13171,1.65683 -0.16951,0.2603997 -0.32985,0.5442697 -0.5927,0.7228297 -0.49135,0.37428 -1.1396,0.56372 -1.7512,0.43209 -0.2136,-0.0641 -0.4272,-0.13221 -0.63106,-0.22263 -0.30351,-0.14136 -0.3894102,-0.57402 -0.19184,-0.8349997 0.12541,-0.17913 0.35905,-0.26955 0.57265,-0.22091 0.21303,0.0509 0.40659,0.17227 0.62706,0.19402 0.48046,0.003 0.94375,-0.35369 1.03652,-0.83042 0.0658,-0.20889 -0.0223,-0.41836 -0.0493,-0.62553 -0.0447,-0.26956 0.15404,-0.53969 0.41174,-0.61066 z"
     id="path20" />
  <path
     fill="#999999"
     d="m 20.792639,4.452644 c 0.3854,-0.17341 0.863,0.17799 0.78741,0.59978 -0.0252,0.42751 -0.58984,0.65358 -0.91339,0.38459 -0.34589,-0.24151 -0.26858,-0.83671 0.12598,-0.98437 z"
     id="path22" />
  <path
     fill="#999999"
     d="m 32.366599,4.738594 c 0.34703,-0.15681 0.8,0.11618 0.79027,0.50421 0.0338,0.33938 -0.29836,0.6432697 -0.63336,0.58947 -0.33214,-0.0218 -0.5738,-0.37543 -0.49134,-0.69478 0.0349,-0.17741 0.16893,-0.32908 0.33443,-0.3989 z"
     id="path24" />
  <path
     fill="#999999"
     d="m 16.139659,4.886724 c 0.32928,-0.15624 0.76908,0.0704 0.80172,0.44011 0.059,0.3182 -0.20558,0.6495697 -0.53142,0.6489997 -0.30236,0.0326 -0.59728,-0.2260697 -0.59957,-0.5305397 -0.0252,-0.2335 0.11854,-0.46242 0.32927,-0.55857 z"
     id="path26" />
  <path
     fill="#999999"
     d="m 25.313679,5.540454 c 0.36192,-0.16368 0.82577,0.13621 0.79313,0.5391197 0.0223,0.4401 -0.54002,0.71996 -0.88876,0.46471 -0.37109,-0.22721 -0.31096,-0.8498697 0.0956,-1.0038297 z"
     id="path28" />
  <path
     fill="#675491"
     d="m 17.717139,6.1073837 c 0.5612,-0.6238097 1.64467,-0.6695997 2.25513,-0.0921 0.34875,0.31649 0.54288,0.79379 0.51653,1.26365 -0.0401,0.53798 -0.36993,1.0164204 -0.81832,1.3037204 0.0492,0.30218 0.17179,0.61466 0.45297,0.7709 0.58068,0.43782 1.57596,0.0658 1.64868,-0.67876 -0.31267,-0.30504 -0.52971,-0.72969 -0.51196,-1.1732304 -0.0172,-0.5849 0.34704,-1.14919 0.86529,-1.40959 0.45641,-0.2541097 1.03136,-0.21061 1.48777,0.0218 0.85039,0.38631 1.11267,1.63222 0.51768,2.3413104 -0.23078,0.32679 -0.59842,0.51679 -0.9781,0.61409 -0.024,0.2541 -0.0206,0.52366 0.11281,0.74972 0.22048,0.3508189 0.64138,0.5969089 1.06229,0.5362489 0.3413,-0.0321 0.68031,-0.2272 0.82806,-0.5459789 -0.22219,-0.38516 -0.27831,-0.85503 -0.134,-1.27796 0.11739,-0.43782 0.45812,-0.7897904 0.87445,-0.9591904 0.80229,-0.36342 1.83422,0.0887 2.14002,0.9082504 0.17753,0.52824 0.0939,1.16407 -0.28461,1.5864389 -0.18267,0.16883 -0.36192,0.36112 -0.60759,0.43438 -0.25082,0.10759 -0.52799,0.11332 -0.79657,0.12075 -0.0641,0.15854 -0.16263,0.31191 -0.16435,0.48818 0.003,0.48933 0.35219,0.96263 0.8315,1.08395 0.34646,0.0927 0.72728,-0.0177 0.98784,-0.25925 -0.0853,-0.52023 0.0355,-1.09883 0.4398,-1.46167 0.59499,-0.6215299 1.73802,-0.5974899 2.27918,0.0818 0.201,0.23751 0.38196,0.51451 0.41002,0.83214 0.02,0.26326 0.0263,0.5374 -0.0687,0.78864 -0.19585,0.56716 -0.74846,0.98151 -1.34746,1.01642 -0.28461,0.0589 -0.56006,-0.0458 -0.82921,-0.12133 -0.13171,0.15166 -0.27144,0.30733 -0.3247,0.50649 -0.10136,0.3886 0.0378,0.82756 0.34073,1.09082 0.3121,0.27471 0.79428,0.36284 1.16765,0.15967 0.0555,-0.59405 0.47359,-1.15778 1.05255,-1.33347 0.73186,-0.26384 1.63838,0.12133 1.93845,0.84301 0.12598,0.29702 0.19756,0.62839 0.14373,0.95117 -0.091,0.59234 -0.55433,1.10684 -1.13042,1.26823 -0.35963,0.0652 -0.74789,0.0704 -1.08519,-0.0881 -0.15519,-0.0853 -0.29893,-0.18944 -0.44209,-0.29245 -0.16607,0.11503 -0.35505,0.21461 -0.465,0.39088 -0.14718,0.24953 -0.2262,0.55801 -0.13572,0.84187 0.12198,0.50249 0.6408,0.8991 1.16364,0.81382 0.21647,-0.43095 0.6116,-0.78463 1.08519,-0.90139 0.48161,-0.11217 1.00673,0.0218 1.39327,0.32565 0.21418,0.2066 0.39227,0.45784 0.49593,0.7377 0.067,0.44468 0.0968,0.94717 -0.16035,1.34092 -0.26915,0.44812 -0.77938,0.7171 -1.29249,0.75945 -0.59499,0.0143 -1.15562,-0.3245 -1.46944,-0.82241 -0.35963,0.0424 -0.70723,0.24266 -0.84181,0.59234 -0.32526,0.5912 0.0813,1.43135 0.75534,1.51891 0.49936,-0.57861 1.44596,-0.69536 2.06844,-0.25067 0.47073,0.3016 0.72556,0.8802 0.67517,1.43076 -0.0452,0.36228 -0.15977,0.73542 -0.42034,1.00269 -0.36993,0.38459 -0.93801,0.55571 -1.46142,0.46529 -0.37738,-0.0549 -0.69177,-0.30733 -0.93286,-0.58834 -0.17466,-0.18943 -0.23994,-0.44468 -0.33271,-0.67818 -0.5028,-0.12019 -1.05427,0.18943 -1.21347,0.6799 -0.19355,0.4733 0.0183,1.06964 0.47416,1.30543 0.37452,-0.20603 0.82005,-0.27413 1.23236,-0.1488 0.54804,0.14079 0.98956,0.60722 1.11268,1.15664 0.0556,0.36914 0.0527,0.77948 -0.15634,1.10283 -0.21359,0.36857 -0.54287,0.69822 -0.96435,0.81153 -0.59499,0.14079 -1.30509,-0.0172 -1.67446,-0.53453 -0.28232,-0.32965 -0.35104,-0.77719 -0.34989,-1.19727 -0.25712,-0.11446 -0.55261,-0.21175 -0.82921,-0.10416 -0.44553,0.12648 -0.76106,0.56143 -0.78397,1.01699 0.005,0.27242 0.0951,0.54484 0.28576,0.74457 0.52627,-0.099 1.0829,0.0652 1.47288,0.42923 0.24108,0.27872 0.44094,0.62554 0.4398,1.00383 0.0195,0.45442 -0.13,0.93859 -0.47817,1.24649 -0.32871,0.31992 -0.78798,0.5208 -1.25241,0.46471 -0.46499,-0.02 -0.88361,-0.29016 -1.16249,-0.65071 -0.32069,-0.47273 -0.34302,-1.08281 -0.15691,-1.61162 -0.14374,-0.13678 -0.2995,-0.27013 -0.4965,-0.32049 -0.60873,-0.17398 -1.29706,0.30733 -1.3635,0.93286 -0.0407,0.19458 0.0315,0.38573 0.1048,0.56315 0.43809,0.0567 0.87445,0.27184 1.11897,0.65071 0.34761,0.46415 0.39571,1.13317 0.12484,1.64367 -0.3665,0.75888 -1.39385,1.07251 -2.14174,0.71195 -0.50966,-0.26326 -0.89621,-0.8121 -0.86471,-1.39929 -0.0114,-0.41206 0.15748,-0.80352 0.41231,-1.12058 -0.14774,-0.31878 -0.43579,-0.57345 -0.79313,-0.61637 -0.67287,-0.13793 -1.36293,0.49619 -1.25527,1.18296 0.52914,0.23922 0.93057,0.77146 0.9426,1.36209 0.0773,0.748 -0.50394,1.4651 -1.22148,1.62649 -0.44725,0.0795 -0.9489,0.032 -1.31769,-0.25467 -0.43808,-0.30447 -0.69063,-0.84415 -0.65283,-1.37526 0.0298,-0.5414 0.36879,-1.02214 0.82291,-1.30257 -0.0435,-0.31591 -0.20444,-0.62496 -0.48447,-0.7915 -0.26514,-0.14765 -0.59098,-0.22549 -0.88533,-0.11961 -0.38196,0.0984 -0.67917,0.42751 -0.7582,0.81153 0.3476,0.32564 0.5698,0.80123 0.52685,1.28368 -0.0372,0.459 -0.25598,0.926 -0.65226,1.18182 -0.37509,0.24953 -0.86013,0.38116 -1.30051,0.24151 -0.5005,-0.0956 -0.93057,-0.45727 -1.12527,-0.92542 -0.17466,-0.46585 -0.16779,-1.029 0.13343,-1.44279 0.22677,-0.38172 0.62935,-0.62553 1.05254,-0.73312 0.0189,-0.24609 0.0412,-0.51565 -0.10995,-0.72797 -0.24681,-0.46815 -0.86528,-0.68448 -1.35376,-0.48819 -0.22219,0.0927 -0.41231,0.2604 -0.52742,0.47273 0.24395,0.45899 0.28519,1.03702 0.0498,1.50803 -0.19642,0.34797 -0.49649,0.6553 -0.88418,0.7812 -0.4839,0.16368 -1.05312,0.0996 -1.46028,-0.22091 -0.67689,-0.39832 -0.87846,-1.36095 -0.50738,-2.03341 0.29664,-0.58833 0.98383,-0.87391 1.62063,-0.83499 0.063,-0.18085 0.15404,-0.36227 0.13743,-0.55915 -10e-4,-0.48531 -0.3894,-0.91912 -0.85498,-1.02214 -0.33214,-0.0841 -0.69234,0.0235 -0.94774,0.24667 0.0784,0.46814 -0.01,0.98207 -0.32757,1.34778 -0.32641,0.42694 -0.88704,0.6387 -1.41561,0.57574 -0.26514,-0.0526 -0.52283,-0.15109 -0.75075,-0.29588 -0.32527,-0.27242 -0.6053,-0.64327 -0.65169,-1.07651 -0.087,-0.63183 0.23365,-1.31917 0.80745,-1.61448 0.44438,-0.24266 0.97925,-0.23236 1.44253,-0.0475 0.23994,-0.23979 0.42205,-0.56314 0.35505,-0.91397 -0.0636,-0.69535 -0.89221,-1.18639 -1.5227,-0.85331 -0.0555,0.49047 -0.35333,0.94488 -0.77481,1.2007 -0.4461,0.25468 -1.0222,0.30275 -1.48433,0.0612 -0.23078,-0.1219 -0.43808,-0.29016 -0.60301,-0.49218 -0.17695,-0.3039 -0.30694,-0.64843 -0.31095,-1.00326 6.4e-4,-0.64556 0.45812,-1.24706 1.06171,-1.45767 0.55719,-0.19458 1.18139,-0.0229 1.63436,0.33366 0.41575,-0.18543 0.68891,-0.64041 0.60931,-1.09597 -0.055,-0.56773 -0.62305,-1.05419 -1.20029,-0.93229 -0.17409,0.36227 -0.46614,0.68105 -0.84925,0.82183 -0.4713,0.17742 -1.04396,0.15395 -1.45685,-0.1528 -0.42834,-0.28444 -0.7100902,-0.77776 -0.7015002,-1.29571 -0.0596,-0.72225 0.4804602,-1.43076 1.1825402,-1.58872 0.50394,-0.12133 1.06915,0.0137 1.45283,0.36628 0.12599,0.12591 0.23537,0.26727 0.34531,0.40691 0.46501,-0.0492 0.88132,-0.42466 0.92485,-0.89853 0.1025,-0.53339 -0.28175,-1.13603 -0.83093,-1.20642 -0.21417,0.15796 -0.41632,0.3514 -0.68089,0.42122 -0.55032,0.19573 -1.20945,0.0612 -1.62062,-0.35827 -0.7083802,-0.64041 -0.5864002,-1.91894 0.19355,-2.45062 0.63107,-0.48417 1.62865,-0.35712 2.1217,0.26384 0.17867,0.21404 0.28634,0.47444 0.36536,0.73942 0.19642,0.004 0.40258,0.0401 0.59041,-0.0378 0.32699,-0.12877 0.57724,-0.42122 0.67345,-0.7566 0.12197,-0.4567 -0.0939,-0.98494 -0.52284,-1.19783 -0.43465,0.24151 -0.98153,0.27756 -1.44081,0.083 -0.51768,-0.23693 -0.89678,-0.76804 -0.9151,-1.34206 -0.008,-0.27013 -0.0115,-0.56601 0.14373,-0.80009 0.19242,-0.32736 0.44267,-0.65872 0.81089,-0.79608 0.53486,-0.22377 1.20143,-0.14651 1.64295,0.23923 0.20043,0.19287 0.36937,0.42465 0.46615,0.68734 0.10765,0.23007 0.0779,0.49161 0.0916,0.73828 0.24453,0.11389 0.51711,0.20317 0.78684,0.11904 0.57322,-0.12934 0.95232,-0.76976 0.79427,-1.33405 -0.0452,-0.16425 -0.14316,-0.30619 -0.24853,-0.43725 -0.41232,0.0641 -0.85555,0.0126 -1.20316,-0.23121 -0.43235,-0.26726 -0.70322,-0.7646 -0.71124,-1.27052 -0.0618,-0.9374389 0.8693,-1.7838789 1.79471,-1.6442389 0.47817,0.0681 0.93687,0.34224 1.17796,0.76804 0.2451,0.45498 0.25025,1.0089789 0.0704,1.4879989 0.13973,0.12533 0.27831,0.27013 0.47015,0.31305 0.57781,0.18371 1.25011,-0.2129 1.3761,-0.80409 0.063,-0.2295 0.0206,-0.4710099 -0.0853,-0.6804789 -0.55834,-0.0463 -1.05369,-0.42637 -1.28275,-0.93 -0.17982,-0.38802 -0.16493,-0.84358 -0.0292,-1.2424804 0.13057,-0.25295 0.31267,-0.48016 0.52456,-0.67017 0.37337,-0.2501 0.83837,-0.37772 1.28619,-0.30446 0.43865,0.0967 0.8378,0.36971 1.064,0.76116 0.20501,0.29016 0.22219,0.6575904 0.20501,0.9998204 -0.047,0.33366 -0.21418,0.63126 -0.41003,0.8991 0.11511,0.18829 0.23308,0.3926 0.43809,0.49619 0.20272,0.0967 0.43178,0.162529 0.65798,0.12305 0.56178,-0.0595 1.04625,-0.61981 0.94661,-1.19212 -0.49191,-0.20431 -0.83207,-0.6696 -0.93115,-1.1852504 -0.051,-0.47616 0.0727,-0.99009 0.41404,-1.33862 m 0.75648,1.2854 c 0.067,0.1694 0.26228,0.2066 0.41231,0.26898 0.15176,-0.0601 0.33959,-0.10359 0.41003,-0.2707 0.15118,-0.26212 -0.0653,-0.61351 -0.3562,-0.6427 -0.34588,-0.0864 -0.64882,0.34625 -0.46614,0.64442 m 4.21763,-0.31992 c -0.17065,0.0715 -0.30351,0.23808 -0.30809,0.42637 0.003,0.16196 0.0996,0.31705 0.24452,0.3908804 0.25312,0.17398 0.66429,-0.0126 0.67345,-0.3285004 0.0475,-0.31821 -0.31096,-0.61008 -0.60988,-0.48875 m -7.79961,0.61065 c -0.28747,0.0687 -0.46271,0.4509804 -0.26228,0.6924904 0.18783,0.2976 0.67459,0.2232 0.80574,-0.0881 0.16836,-0.31878 -0.21189,-0.7199704 -0.54346,-0.6043604 m 11.45947,0.9219904 c -0.22906,0.0784 -0.34932,0.37257 -0.23536,0.58661 0.0704,0.19916 0.29549,0.33423 0.50451,0.28959 0.20673,-0.0263 0.34817,-0.23808 0.35676,-0.43553 0.0137,-0.30561 -0.33729,-0.57574 -0.62591,-0.44067 m -14.83014,1.14919 c -0.14545,0.0475 -0.28747,0.144219 -0.33615,0.2958789 -0.0876,0.21004 0.0309,0.47044 0.23651,0.55915 0.28118,0.1425 0.66257,-0.10702 0.65283,-0.42065 0.0183,-0.2781399 -0.29778,-0.5041989 -0.55319,-0.4343789 m 6.56553,1.0141289 c 0.16207,0.32678 0.48046,0.58032 0.84926,0.61866 0.35275,0.0515 0.64939,-0.18714 0.97638,-0.2707 -0.0275,-0.20374 -0.0584,-0.40748 -0.0744,-0.61237 -0.29205,-0.16082 -0.56349,-0.35769 -0.80344,-0.5888999 -0.20329,0.3851599 -0.57838,0.6421299 -0.94775,0.8533099 m 2.89021,-0.11732 c 0.0498,0.46299 0.43064,0.86819 0.89106,0.94201 0.25483,0.0223 0.50622,-0.0475 0.76163,-0.0424 0.0241,-0.20545 0.0527,-0.41091 0.10136,-0.61179 -0.22792,-0.23808 -0.43178,-0.49963 -0.58067,-0.79437 -0.31439,0.30561 -0.74618,0.4527 -1.17338,0.5065 m -4.97869,0.0114 c -0.0727,0.42866 -0.33672,0.80123 -0.64081,1.10055 0.20673,0.24037 0.53372,0.34052 0.84067,0.3554 0.42949,-0.002 0.69234,-0.38058 1.02391,-0.58948 -0.10709,-0.18314 -0.21475,-0.36684 -0.28748,-0.56601 -0.32298,-0.0601 -0.64023,-0.15624 -0.93629,-0.30046 m 13.38417,0.5208 c -0.34646,0.11446 -0.36306,0.64957 -0.0527,0.81554 0.26457,0.21175 0.70666,-0.0492 0.67231,-0.37887 0.008,-0.30447 -0.32756,-0.57574 -0.61962,-0.43667 m -5.61606,0.26212 c -0.0378,0.36341 0.0532,0.77433 0.35104,1.01241 0.25655,0.24037 0.62591,0.25296 0.94431,0.3554 0.0905,-0.19115 0.17695,-0.38573 0.29378,-0.56258 -0.14546,-0.29359 -0.25827,-0.60321 -0.29722,-0.92942 -0.39799,0.18542 -0.86528,0.2003 -1.29191,0.12419 m -3.34719,0.58547 c -0.20902,0.21862 -0.50909,0.29874 -0.78397,0.40004 -0.55261,0.18257 -1.15162,0.0681 -1.66529,-0.17684 -0.1592,0.29187 -0.43866,0.48932 -0.70952,0.6696 -0.44783,0.30561 -1.02793,0.38631 -1.55191,0.2707 -0.0212,0.11961 -0.0367,0.24438 -0.10308,0.34968 -0.21188,0.36341 -0.45812,0.73484 -0.83551,0.94488 -0.27774,0.17741 -0.59556,0.27757 -0.91911,0.32908 0.0607,0.87162 -0.46271,1.74324 -1.26042,2.10208 0.19127,0.43209 0.14201,0.92027 0.0779,1.37468 -0.11282,0.39375 -0.35734,0.73427 -0.63737,1.02729 0.21876,0.21462 0.30408,0.5168 0.4106,0.79551 0.16549,0.54713 0.0607,1.14977 -0.18841,1.65512 0.38368,0.23064 0.64768,0.62038 0.84467,1.01355 0.14603,0.39776 0.16665,0.835 0.10938,1.25278 0.23823,0.0275 0.44324,0.1591 0.63851,0.28902 0.25026,0.18199 0.50222,0.38115 0.65913,0.65357 0.18096,0.26956 0.26171,0.58719 0.31955,0.90253 0.43064,-0.0338 0.86013,0.10703 1.24038,0.29989 0.37451,0.22435 0.6597,0.57402 0.86585,0.95518 0.28862,-0.12991 0.61275,-0.12247 0.92256,-0.12018 0.55891,0.009 1.0869,0.28501 1.46829,0.68448 0.34074,-0.29302 0.79142,-0.42065 1.22664,-0.49276 0.42262,-0.0137 0.8544,0.0698 1.22434,0.28043 0.13973,-0.24952 0.36593,-0.43209 0.58984,-0.60264 0.47932,-0.35998 1.11554,-0.45784 1.69793,-0.35769 0.0303,-0.36742 0.28519,-0.66159 0.50909,-0.93458 0.32241,-0.4029 0.83666,-0.57803 1.32285,-0.68677 -0.0241,-0.44468 0.12541,-0.88135 0.32412,-1.27281 0.22964,-0.35483 0.56521,-0.63412 0.93916,-0.82756 -0.12427,-0.27699 -0.12312,-0.58719 -0.12255,-0.88478 10e-4,-0.57174 0.28461,-1.10971 0.67689,-1.51261 -0.31268,-0.33366 -0.4043,-0.80695 -0.48562,-1.24134 -0.005,-0.42064 0.0744,-0.85102 0.28576,-1.21958 -0.2806,-0.12877 -0.47703,-0.38116 -0.64825,-0.62897 -0.32126,-0.467 -0.40717,-1.0622 -0.32069,-1.61448 -0.45641,-0.0973 -0.82978,-0.41492 -1.15162,-0.73599 -0.22219,-0.33537 -0.41518,-0.70107 -0.46328,-1.10684 -0.87101,0.0223 -1.75634,-0.48074 -2.10509,-1.29284 -0.2932,0.14994 -0.6345,0.15624 -0.95634,0.14823 -0.55204,-0.0149 -1.06572,-0.30161 -1.44539,-0.68906 m -7.07348,0.26841 c 0.0475,0.43266 -0.0802,0.86189 -0.26514,1.24878 0.38254,0.23521 0.91396,0.17455 1.24038,-0.13278 0.1821,-0.19172 0.28232,-0.44354 0.4461,-0.64957 -0.15576,-0.14479 -0.31725,-0.28558 -0.44782,-0.45384 -0.32412,0.0378 -0.65111,0.0464 -0.97352,-0.0126 m -4.40603,0.47444 c -0.32184,0.0698 -0.48561,0.48761 -0.26228,0.74229 0.20959,0.30046 0.72957,0.14765 0.78454,-0.20203 0.11396,-0.30275 -0.22219,-0.62839 -0.52226,-0.54026 m 17.38763,1.53493 c 0.19241,0.19058 0.45583,0.28158 0.66314,0.45384 0.13743,-0.15395 0.28461,-0.29931 0.44266,-0.43324 -0.0315,-0.32793 -0.0344,-0.65757 0.003,-0.98494 -0.43179,0.0326 -0.87159,-0.0549 -1.24496,-0.27699 -0.22391,0.39375 -0.17867,0.90997 0.13629,1.24133 m -14.06793,0.0876 c -0.29606,0.14479 -0.61102,0.25067 -0.94088,0.28443 0.18898,0.39261 0.21533,0.85961 0.12885,1.28254 0.46329,0.10588 0.997,-0.14536 1.17911,-0.59119 0.10708,-0.22148 0.0853,-0.48017 0.19928,-0.69936 -0.19413,-0.0801 -0.39456,-0.15281 -0.56636,-0.27642 m 19.19208,0.17741 c -0.29549,0.13392 -0.36021,0.58433 -0.0962,0.78578 0.24166,0.25925 0.70609,0.0309 0.71926,-0.30104 0.0584,-0.32964 -0.3184,-0.62324 -0.62305,-0.48474 m -3.7681,1.87374 c 0.0859,0.3119 0.37223,0.49447 0.54575,0.75201 0.17981,-0.0996 0.35791,-0.20546 0.55319,-0.27357 0.0555,-0.32793 0.15347,-0.65071 0.32412,-0.93858 -0.43636,-0.0618 -0.82749,-0.32221 -1.12356,-0.63927 -0.28518,0.27872 -0.43235,0.71195 -0.2995,1.09941 m -20.29157,0.002 c -0.34875,0.0933 -0.47531,0.60894 -0.16321,0.81783 0.30064,0.24438 0.79542,-0.0618 0.72728,-0.4361 -0.0315,-0.26326 -0.30752,-0.46299 -0.56407,-0.38173 m 3.54361,0.56602 c -0.2388,0.22205 -0.49535,0.42751 -0.78856,0.57345 0.2955,0.31362 0.45756,0.74686 0.50223,1.17208 0.40773,-0.0458 0.76736,-0.34166 0.90938,-0.72282 0.0865,-0.30733 -0.008,-0.62267 0.002,-0.93344 -0.21016,-0.0172 -0.42205,-0.0298 -0.62477,-0.0893 m 17.4323,1.88117 c -0.0727,0.36857 0.18611,0.68162 0.25598,1.02787 0.21073,-0.0429 0.42205,-0.0887 0.63794,-0.0984 0.15118,-0.29703 0.33443,-0.5786 0.58812,-0.79837 -0.39285,-0.20317 -0.67173,-0.57002 -0.86872,-0.9569 -0.31496,0.16368 -0.57553,0.463 -0.61332,0.82584 m 3.75034,0.0481 c 0.024,0.28788 0.36536,0.49448 0.62305,0.34053 0.2451,-0.0801 0.2743,-0.35598 0.2703,-0.57517 -0.0922,-0.11046 -0.17753,-0.24495 -0.32699,-0.27986 -0.29836,-0.10588 -0.63107,0.21118 -0.56636,0.5145 m -21.61557,0.97063 c -0.16321,0.28673 -0.34188,0.56888 -0.59385,0.78635 0.39514,0.19631 0.66142,0.58032 0.86185,0.96148 0.33214,-0.16883 0.59442,-0.50477 0.6179,-0.88479 0.0619,-0.35082 -0.21532,-0.63068 -0.26285,-0.96433 -0.20558,0.0463 -0.41231,0.0898 -0.62305,0.10129 m -3.50754,0.53568 c -0.12941,0.0647 -0.20844,0.1986 -0.24166,0.33538 -0.0727,0.28443 0.21933,0.60092 0.50967,0.52938 0.2806,-0.0418 0.46328,-0.39203 0.33558,-0.64556 -0.0767,-0.24781 -0.38597,-0.32679 -0.60359,-0.2192 m 21.26396,1.12001 c -0.18383,0.32221 -0.0567,0.69821 -0.0693,1.04618 0.20845,0.0252 0.41746,0.0544 0.62191,0.10587 0.24051,-0.22606 0.5005,-0.43323 0.80458,-0.56887 -0.31095,-0.31076 -0.4713,-0.748 -0.52284,-1.17781 -0.34818,0.0567 -0.69978,0.25239 -0.83436,0.59463 m 3.82421,0.84129 c -0.1884,0.0761 -0.30351,0.28329 -0.28404,0.4836 0.0132,0.27013 0.32756,0.49333 0.58239,0.37257 0.24568,-0.071 0.38083,-0.35941 0.29149,-0.5952 -0.0704,-0.24151 -0.36421,-0.35483 -0.58984,-0.26097 m -21.11792,0.38974 c -0.0567,0.32679 -0.15061,0.64842 -0.29893,0.9466 0.43694,0.0618 0.80115,0.33537 1.10408,0.63984 0.30695,-0.30103 0.43408,-0.78063 0.27087,-1.18525 -0.11911,-0.26155 -0.36306,-0.43267 -0.51539,-0.67132 -0.18039,0.10187 -0.36536,0.19745 -0.56063,0.27013 m 16.30072,1.32146 c -0.22906,0.25811 -0.2033,0.62782 -0.33787,0.92885 0.19585,0.0801 0.38712,0.17284 0.56235,0.29246 0.29778,-0.14881 0.61561,-0.25468 0.94603,-0.30104 -0.19928,-0.39718 -0.20443,-0.86018 -0.13056,-1.28941 -0.37796,-0.0475 -0.79257,0.0675 -1.03995,0.36914 m -19.29744,0.17398 c -0.36193,0.11675 -0.40659,0.66388 -0.0659,0.83443 0.30694,0.21747 0.75477,-0.1448 0.65111,-0.49162 -0.0407,-0.26097 -0.33558,-0.45384 -0.58525,-0.34281 m 4.34304,1.12058 c 0.0475,0.32507 0.0555,0.65529 -0.0137,0.97864 0.43522,-0.0612 0.87846,0.0687 1.26271,0.26842 0.18955,-0.33995 0.18784,-0.78635 -0.0321,-1.112 -0.19586,-0.26383 -0.51712,-0.37715 -0.77023,-0.57173 -0.14087,0.15281 -0.28118,0.30847 -0.44667,0.43667 m 13.14251,0.88593 c -0.20273,0.19344 -0.29149,0.46758 -0.46844,0.68105 0.15348,0.13621 0.30409,0.277 0.4398,0.43152 0.32871,-0.0246 0.66142,-0.0424 0.98841,0.0189 -0.0676,-0.43495 0.0659,-0.88135 0.27488,-1.26136 -0.39055,-0.21405 -0.90251,-0.17112 -1.23465,0.1299 m 5.19344,-0.24036 c -0.23995,0.0567 -0.42721,0.30847 -0.36994,0.55571 0.0315,0.25926 0.33558,0.39489 0.56979,0.3348 0.19585,-0.0836 0.37682,-0.28673 0.33386,-0.51279 -0.0292,-0.24952 -0.29263,-0.42179 -0.53371,-0.37772 m -15.96858,0.82011 c -0.059,0.21061 -0.15119,0.41092 -0.27202,0.59349 0.14489,0.29702 0.24797,0.61294 0.27717,0.94316 0.39972,-0.19458 0.86357,-0.20889 1.29421,-0.12705 0.0813,-0.43553 -0.1174,-0.90425 -0.49535,-1.13718 -0.24968,-0.14536 -0.5675,-0.10187 -0.80401,-0.27242 m -4.64312,0.80238 c -0.3476,0.13449 -0.39055,0.68391 -0.0401,0.84015 0.25368,0.16196 0.603,-0.0252 0.65111,-0.30962 0.0733,-0.32393 -0.30236,-0.653 -0.61103,-0.53053 m 13.2748,-0.0223 c -0.32069,0.0813 -0.5005,0.38517 -0.77767,0.5414 0.11167,0.182 0.21703,0.36972 0.27774,0.57518 0.32813,0.0412 0.64767,0.13334 0.93515,0.30046 0.0785,-0.42809 0.33729,-0.81039 0.65283,-1.10227 -0.26629,-0.29874 -0.70151,-0.43839 -1.08805,-0.31477 m -6.19731,0.50936 c -0.0149,0.20889 -0.0355,0.41893 -0.0853,0.62324 0.21761,0.24495 0.41861,0.50592 0.56808,0.79837 0.31611,-0.3079 0.74846,-0.44411 1.17338,-0.5168 -0.0567,-0.40576 -0.35162,-0.77662 -0.74618,-0.89966 -0.29835,-0.0841 -0.60702,0.007 -0.90995,-0.005 m 2.71726,0.45213 c 0.0378,0.20488 0.0819,0.4092 0.0956,0.61809 0.29205,0.15052 0.55605,0.34625 0.78454,0.58204 0.21074,-0.38345 0.56807,-0.67247 0.96092,-0.85503 -0.17982,-0.38002 -0.58927,-0.64613 -1.01246,-0.63183 -0.29664,0.0309 -0.54575,0.21004 -0.82864,0.28673 m 8.18615,0.48532 c -0.31382,0.071 -0.4713,0.5042 -0.21932,0.7314 0.2302,0.29589 0.75762,0.1116 0.79198,-0.24895 0.0693,-0.31076 -0.28575,-0.58147 -0.57266,-0.48245 m -15.00766,1.19039 c -0.14545,0.0664 -0.2199,0.22492 -0.25139,0.37372 0.009,0.23007 0.18496,0.43152 0.40487,0.48875 0.27487,0.0544 0.55662,-0.20832 0.51653,-0.48589 -0.0252,-0.30446 -0.39284,-0.52995 -0.67001,-0.37658 m 11.51159,0.92084 c -0.23881,0.11504 -0.32356,0.45785 -0.14489,0.66159 0.21704,0.32564 0.81375,0.16826 0.82577,-0.22892 0.0395,-0.35082 -0.38138,-0.60779 -0.68088,-0.43267 m -7.85058,0.61467 c -0.25311,0.12075 -0.3058,0.50992 -0.0974,0.69592 0.0968,0.0956 0.2325,0.12991 0.35619,0.17799 0.15634,-0.071 0.35906,-0.13049 0.40201,-0.32221 0.16378,-0.36971 -0.331,-0.75774 -0.66085,-0.5517 m 4.01205,0.29702 c -0.3373,0.12133 -0.36193,0.64098 -0.0407,0.79551 0.2892,0.20489 0.73816,-0.0727 0.6912,-0.41893 -0.0206,-0.29874 -0.38024,-0.50935 -0.65053,-0.37658 z"
     id="path30" />
  <path
     fill="#675491"
     d="m 33.318529,5.9109237 c 0.30294,-0.1310597 0.69235,0.0424 0.77538,0.3657 0.0888,0.30275 -0.14545,0.56258 -0.17523,0.85331 -0.002,0.29074 0.0939,0.59463 0.30351,0.8029504 0.25999,0.21004 0.60759,0.38001 0.94718,0.27185 0.22104,-0.0681 0.49362,-0.0733 0.66256,0.11045 0.29263,0.26212 0.19585,0.80581 -0.17123,0.94889 -0.43751,0.1322 -0.91281,0.13964 -1.34975,-10e-4 -0.33444,-0.0824 -0.60186,-0.31076 -0.87674,-0.5042 -0.42147,-0.42694 -0.65111,-1.0272904 -0.64252,-1.6259304 -0.0223,-0.30275 0.11166,-0.58203 0.20787,-0.86075 0.0493,-0.15852 0.16435,-0.29588 0.31897,-0.36112 z"
     id="path32" />
  <path
     fill="#999999"
     d="m 5.0181888,6.6661337 c 0.33157,-0.16654 0.7834,0.063 0.8126,0.4401 0.0573,0.3205 -0.21417,0.65129 -0.54231,0.64442 -0.30007,0.0269 -0.58812,-0.23235 -0.58926,-0.53339 -0.024,-0.22835 0.11453,-0.45327 0.31897,-0.55113 z"
     id="path34" />
  <path
     fill="#999999"
     d="m 11.868789,6.6536537 c 0.34188,-0.14937 0.78339,0.11275 0.78339,0.49276 0.0389,0.32164 -0.25426,0.62782 -0.57666,0.60607 -0.34073,0.0126 -0.62305,-0.33422 -0.55262,-0.66559 0.0229,-0.19401 0.16779,-0.36055 0.34589,-0.43324 z"
     id="path36" />
  <path
     fill="#675491"
     d="m 4.3656388,7.9424041 c 0.22964,-0.0538 0.49077,0.0406 0.61504,0.24552 0.31725,0.50706 0.45526,1.14518 0.29263,1.728939 -0.0515,0.1791299 -0.0922,0.3634099 -0.16951,0.5345299 -0.29778,0.46643 -0.72899,0.86991 -1.26729,1.03588 -0.31554,0.12591 -0.66028,0.0824 -0.9907,0.067 -0.28748,0.002 -0.53372,-0.26899 -0.52513,-0.55228 -0.0166,-0.25639 0.17294,-0.5042 0.42148,-0.562 0.26915,-0.0435 0.55605,0.0675 0.81374,-0.0532 0.29378,-0.13049 0.55491,-0.38459 0.61447,-0.7102289 0.0974,-0.29245 0.0235,-0.61409 -0.15577,-0.85789 -0.22162,-0.31305 -0.0321,-0.80867 0.35104,-0.8762 z"
     id="path38" />
  <path
     fill="#999999"
     d="m 29.354469,8.0001541 c 0.20329,-0.0464 0.43236,0.012 0.5698,0.17399 0.2136,0.23292 0.18038,0.64441 -0.0773,0.83213 -0.26057,0.21118 -0.69807,0.12877 -0.85269,-0.17227 -0.18211,-0.31076 0.003,-0.76059 0.3602,-0.83385 z"
     id="path40" />
  <path
     fill="#999999"
     d="m 36.167729,9.4182441 c 0.34818,-0.186 0.83265,0.0858 0.82349,0.488169 0.0315,0.3119099 -0.24969,0.6060799 -0.56178,0.5929099 -0.31726,0.0206 -0.60531,-0.27699 -0.5738,-0.5929099 -0.004,-0.206599 0.1317,-0.396039 0.31209,-0.488169 z"
     id="path42" />
  <path
     fill="#999999"
     d="m 8.301569,9.6913441 c 0.32355,-0.14765 0.75018,0.071 0.79141,0.4303789 0.0664,0.31992 -0.19527,0.65987 -0.52455,0.66216 -0.31038,0.036 -0.61275,-0.23522 -0.60587,-0.5477 -0.0183,-0.23121 0.12942,-0.4532689 0.33901,-0.5448389 z"
     id="path44" />
  <path
     fill="#675491"
     d="m 36.862239,10.784843 c 0.34473,-0.10988 0.74216,0.17227 0.72784,0.53854 0.0178,0.40634 -0.45926,0.60551 -0.48504,1.00326 -0.11395,0.59291 0.38998,1.22302 1.00387,1.19326 0.2955,-0.007 0.57381,0.25182 0.56923,0.55056 0.0326,0.31591 -0.25484,0.61523 -0.57094,0.59978 -0.5028,-0.0195 -1.0136,-0.186 -1.38812,-0.52996 -0.22163,-0.20145 -0.41117,-0.4401 -0.55778,-0.69993 -0.28461,-0.69936 -0.28804,-1.58186 0.21303,-2.18564 0.13801,-0.17685 0.25026,-0.41206 0.48791,-0.46987 z"
     id="path46" />
  <path
     fill="#999999"
     d="m 32.340859,11.509133 c 0.33673,-0.12648 0.7479,0.1282 0.75764,0.49276 0.0447,0.3348 -0.26801,0.65529 -0.60416,0.61466 -0.33329,-6.4e-4 -0.59499,-0.34911 -0.52398,-0.67017 0.0281,-0.19974 0.1821,-0.372 0.3705,-0.43725 z"
     id="path48" />
  <path
     fill="#999999"
     d="m 1.8730888,11.737283 c 0.33615,-0.12419 0.74445,0.1282 0.75591,0.49104 0.0464,0.33709 -0.26973,0.65987 -0.60817,0.61637 -0.33329,-0.002 -0.59155,-0.35253 -0.5194,-0.67303 0.0292,-0.19916 0.18382,-0.36971 0.37166,-0.43438 z"
     id="path50" />
  <path
     fill="#999999"
     d="m 19.961859,12.598183 c 0.34187,-0.13163 0.76392,0.13163 0.76335,0.50535 0.0338,0.3079 -0.23536,0.60664 -0.54574,0.60092 -0.30408,0.0275 -0.59442,-0.23865 -0.58984,-0.54369 -0.0223,-0.24495 0.14374,-0.48131 0.37223,-0.56258 z"
     id="path52" />
  <path
     fill="#999999"
     d="m 17.877989,12.808373 c 0.38482,-0.17169 0.85669,0.18371 0.7811,0.60149 -0.0263,0.42466 -0.58411,0.65072 -0.90938,0.38803 -0.35104,-0.24037 -0.27545,-0.84873 0.12828,-0.98952 z"
     id="path54" />
  <path
     fill="#999999"
     d="m 22.035339,13.024243 c 0.37223,-0.13621 0.80574,0.19516 0.74961,0.59234 -0.007,0.44869 -0.6116,0.68791 -0.93572,0.38917 -0.33901,-0.25926 -0.2262,-0.86533 0.18611,-0.98151 z"
     id="path56" />
  <path
     fill="#675491"
     d="m 1.5366888,13.250093 c 0.25655,-0.0881 0.5194,0.0423 0.68031,0.24208 0.45756,0.42523 0.71068,1.04618 0.68032,1.66999 0.006,0.61409 -0.31553,1.19212 -0.76908,1.59045 -0.31782,0.27242 -0.72899,0.39947 -1.13043005,0.4876 -0.4272,0.071 -0.76392,-0.43495 -0.56864,-0.81039 0.19241,-0.42007 0.77080005,-0.27928 1.04166005,-0.61351 0.36593,-0.35197 0.40659,-0.98036 0.0813,-1.37067 -0.13114,-0.15625 -0.34245,-0.2564 -0.39628,-0.46815 -0.0979,-0.29417 0.0819,-0.64156 0.38082,-0.7274 z"
     id="path58" />
  <path
     fill="#999999"
     d="m 5.908589,13.609553 c 0.38426,-0.17112 0.85613,0.18313 0.78054,0.60092 -0.0258,0.42694 -0.58812,0.65301 -0.9128202,0.38574 -0.3476,-0.24152 -0.2703,-0.84645 0.1322802,-0.98666 z"
     id="path60" />
  <path
     fill="#999999"
     d="m 15.954359,13.657583 c 0.3791,-0.14766 0.82405,0.19687 0.75877,0.60206 -0.0195,0.43496 -0.59614,0.6656 -0.92084,0.38803 -0.34989,-0.25124 -0.25254,-0.86533 0.16207,-0.99009 z"
     id="path62" />
  <path
     fill="#999999"
     d="m 23.864249,14.055843 c 0.37337,-0.13965 0.81088,0.19286 0.75362,0.59176 -0.008,0.44926 -0.61274,0.68734 -0.9363,0.38802 -0.3373,-0.25868 -0.22677,-0.86074 0.18268,-0.97978 z"
     id="path64" />
  <path
     fill="#55a3b5"
     d="m 19.468179,14.283743 c 0.31553,-0.16597 0.75132,0.0286 0.81661,0.38345 0.0595,0.23979 -0.10537,0.44754 -0.13286,0.67761 -0.0412,0.31362 -0.071,0.62954 -0.0687,0.94659 0.14259,-0.49676 0.33615,-0.98093 0.6053,-1.42275 0.13801,-0.20546 0.31039,-0.45384 0.59041,-0.44068 0.31668,-0.0309 0.61389,0.25983 0.59156,0.57689 0.016,0.20603 -0.14259,0.35368 -0.2451,0.51279 -0.18325,0.29817 -0.30695,0.62781 -0.41976,0.95746 0.27946,-0.38287 0.58526,-0.74743 0.93573,-1.06792 0.20215,-0.14651 0.42147,-0.33709 0.69234,-0.28844 0.34131,0.0332 0.5698,0.4195 0.4587,0.73999 -0.0533,0.21805 -0.27259,0.31133 -0.43522,0.43552 -0.22964,0.19459 -0.40544,0.44354 -0.61847,0.6553 0.0195,0.0212 0.0395,0.0418 0.0601,0.063 0.19699,-0.20317 0.45526,-0.32564 0.6952,-0.46815 0.30351,-0.16711 0.6305,-0.35196 0.9867,-0.33823 0.40887,0.0383 0.62649,0.57288 0.38024,0.89509 -0.14373,0.22205 -0.4335,0.22205 -0.64653,0.33823 -0.30065,0.16025 -0.58755,0.34453 -0.87044,0.53396 0.46385,-0.2066 0.96837,-0.30847 1.46944,-0.37428 0.25025,0.002 0.54861,-0.0384 0.74388,0.15452 0.25484,0.22205 0.23422,0.67418 -0.0407,0.87105 -0.19184,0.1694 -0.45984,0.083 -0.6889,0.10988 -0.36249,0.0464 -0.7101,0.16197 -1.06229,0.25296 0.64768,-0.0298 1.31941,-0.003 1.93216,0.2295 0.34645,0.13964 0.43464,0.64613 0.17294,0.90539 -0.16722,0.19344 -0.45527,0.21576 -0.68032,0.12018 -0.39799,-0.14651 -0.82749,-0.13277 -1.24496,-0.13277 0.4942,0.0921 0.95462,0.31019 1.39042,0.55342 0.20844,0.1591 0.47874,0.33823 0.47015,0.63412 0.0298,0.32106 -0.26915,0.61981 -0.59041,0.58947 -0.2222,0.016 -0.36421,-0.16997 -0.52914,-0.28329 -0.27946,-0.17512 -0.59442,-0.27986 -0.90251,-0.39031 0.46901,0.39489 0.99528,0.75716 1.3028,1.30429 0.0996,0.2232 0.0435,0.51393 -0.15118,0.66902 -0.23422,0.20833 -0.65283,0.17112 -0.82406,-0.0996 -0.24395,-0.38116 -0.6156,-0.64499 -0.96206,-0.9237 0.36879,0.5414 0.82691,1.08681 0.88017,1.76556 0.02,0.44698 -0.56865,0.71653 -0.90824,0.44011 -0.22677,-0.14651 -0.20214,-0.44182 -0.3161,-0.65644 -0.13515,-0.25295 -0.29034,-0.49561 -0.46156,-0.72511 0.13228,0.5746 0.35275,1.15148 0.27831,1.75069 -0.0166,0.27642 -0.27831,0.50706 -0.55376,0.49734 -0.30237,0.0212 -0.595,-0.25411 -0.5698,-0.56029 0.0349,-0.42752 -0.0951,-0.84301 -0.22047,-1.24592 -0.0292,0.59921 -0.0212,1.22703 -0.27259,1.78446 -0.1466,0.33537 -0.64195,0.4132 -0.89621,0.1591 -0.18611,-0.16254 -0.22276,-0.4424 -0.12427,-0.66216 0.16321,-0.41836 0.13515,-0.87391 0.17581,-1.31288 -0.18153,0.60436 -0.38998,1.22703 -0.8,1.71922 -0.197,0.26669 -0.6368,0.27184 -0.85384,0.028 -0.20329,-0.20431 -0.20157,-0.56601 -0.005,-0.77433 0.27717,-0.33194 0.38769,-0.75773 0.54346,-1.15148 -0.36536,0.51279 -0.76507,1.02386 -1.30566,1.36209 -0.34016,0.1797 -0.81261,-0.0824 -0.81375,-0.47273 -0.0321,-0.23236 0.11281,-0.43724 0.30293,-0.55342 0.29149,-0.18943 0.48218,-0.48474 0.729,-0.72225 -0.0235,-0.0218 -0.047,-0.0424 -0.0699,-0.063 -0.31038,0.26727 -0.67688,0.45842 -1.04338,0.63527 -0.25827,0.0921 -0.57495,0.20832 -0.82634,0.0389 -0.2892,-0.17627 -0.34131,-0.61923 -0.1111,-0.86304 0.13744,-0.16711 0.36879,-0.16826 0.55376,-0.24952 0.30351,-0.13449 0.57266,-0.33137 0.85097,-0.50936 -0.5801,0.16197 -1.17051,0.34911 -1.77982,0.3182 -0.28977,0.001 -0.53773,-0.27298 -0.52628,-0.55856 -0.0172,-0.28959 0.23537,-0.5746 0.53086,-0.56544 0.43636,0.0177 0.85498,-0.1179 1.27359,-0.22092 -0.6053,-0.0509 -1.24095,-0.0315 -1.80445,-0.29016 -0.32126,-0.14708 -0.40143,-0.61809 -0.16721,-0.87391 0.14775,-0.18428 0.4146,-0.24495 0.63164,-0.15738 0.44782,0.17741 0.9363,0.15853 1.40874,0.19115 -0.64596,-0.14995 -1.28848,-0.40291 -1.79757,-0.83729 -0.33615,-0.30275 -0.11912,-0.9403 0.33729,-0.96377 0.31038,-0.0584 0.50566,0.22149 0.75248,0.34682 0.24166,0.12248 0.49363,0.22892 0.75533,0.30161 -0.43636,-0.36856 -0.92312,-0.70451 -1.22549,-1.20127 -0.15748,-0.2232 -0.11682,-0.56086 0.0911,-0.73885 0.2428,-0.22835 0.68948,-0.18028 0.85841,0.11503 0.18669,0.33022 0.51998,0.5271 0.7771,0.79436 0.0235,-0.0223 0.047,-0.0446 0.0704,-0.0664 -0.20787,-0.17685 -0.32126,-0.42866 -0.45354,-0.65987 -0.16664,-0.31363 -0.36421,-0.64786 -0.34302,-1.01413 0.0447,-0.39719 0.56006,-0.60722 0.88017,-0.37887 0.19986,0.1179 0.23078,0.35998 0.30809,0.55685 0.14775,0.33709 0.35276,0.645 0.56579,0.94374 -0.1947,-0.46414 -0.31095,-0.9609 -0.36364,-1.4611 0.006,-0.24266 -0.0315,-0.53225 0.16206,-0.7171 0.22621,-0.25125 0.67803,-0.22435 0.87159,0.0538 0.16092,0.18715 0.0785,0.44411 0.1025,0.66617 0.0389,0.34968 0.15806,0.68334 0.23938,1.02443 -0.0217,-0.51336 0.0258,-1.02844 0.11625,-1.53321 0.0716,-0.22949 0.14889,-0.49905 0.38425,-0.61237 m 1.71511,2.21998 c 0.0286,0.0303 0.0286,0.0303 0,0 m 0.97811,0.58089 c 0.0143,0.0143 0.0143,0.0143 0,0 m -5.09667,0.45785 c 0.0149,0.0149 0.0149,0.0149 0,0 m 2.49508,0.6015 c -0.15119,0.10816 -0.32986,0.15795 -0.51425,0.16081 -0.10766,0.15453 -0.25655,0.27299 -0.43751,0.32965 -0.0475,0.19115 -0.16378,0.35369 -0.32813,0.46185 0.006,0.18715 -0.0407,0.36914 -0.15691,0.51737 0.0607,0.18486 0.0647,0.3823 0.002,0.56716 0.11912,0.14307 0.17524,0.31934 0.17467,0.50477 0.15977,0.11045 0.2869,0.26269 0.32698,0.45785 0.19699,0.0343 0.35161,0.15852 0.46786,0.31534 0.18554,-6.4e-4 0.36708,0.0452 0.5154,0.16139 0.18153,-0.0567 0.37452,-0.0652 0.55719,-0.005 0.1426,-0.12533 0.32241,-0.18657 0.51196,-0.18313 0.11224,-0.16082 0.26572,-0.28845 0.46041,-0.33194 0.043,-0.18371 0.16035,-0.33137 0.30409,-0.44812 -0.005,-0.19287 0.0378,-0.38287 0.16206,-0.53453 -0.0447,-0.17856 -0.0458,-0.36399 6.4e-4,-0.54198 -0.12598,-0.15052 -0.18096,-0.33709 -0.17752,-0.5311 -0.16035,-0.10244 -0.27488,-0.25525 -0.33845,-0.43324 -0.17981,-0.0584 -0.33557,-0.16826 -0.44495,-0.32221 -0.1907,0 -0.37967,-0.0401 -0.52914,-0.16367 -0.18039,0.063 -0.37222,0.0612 -0.55662,0.0183 m -3.12443,0.35483 c 0.009,0.19058 0.16951,-0.0893 0,0 m -0.1025,2.23257 c 0.005,0.0824 0.0418,0.0979 0.1088,0.0464 -0.006,-0.083 -0.0424,-0.0984 -0.1088,-0.0464 m 6.9097,0.46758 c 0.0298,0.0292 0.0298,0.0292 0,0 m -5.7472,1.44107 c -0.007,0.0704 0.024,0.10015 0.0939,0.0904 0.0235,-0.0898 -0.007,-0.11961 -0.0939,-0.0904 m 4.2537,0.21175 c -0.0991,0.16368 0.19013,0.02 0,0 z"
     id="path66" />
  <path
     fill="#999999"
     d="m 38.475829,15.017833 c 0.32985,-0.15624 0.7708,0.071 0.80287,0.44182 0.0573,0.31649 -0.20558,0.64671 -0.52971,0.64728 -0.30351,0.0338 -0.60015,-0.22549 -0.60186,-0.5311 -0.0252,-0.2335 0.11854,-0.46185 0.3287,-0.558 z"
     id="path68" />
  <path
     fill="#999999"
     d="m 14.375409,15.098843 c 0.36135,-0.16253 0.82405,0.13621 0.79198,0.53854 0.0229,0.43954 -0.53658,0.71997 -0.8859,0.46758 -0.37394,-0.22664 -0.31496,-0.85274 0.0939,-1.00612 z"
     id="path70" />
  <path
     fill="#999999"
     d="m 25.244609,15.648273 c 0.32985,-0.15796 0.77251,0.0698 0.80401,0.44125 0.0573,0.31591 -0.20444,0.64556 -0.52799,0.64728 -0.30351,0.0349 -0.60072,-0.22435 -0.60358,-0.52996 -0.0258,-0.23293 0.11739,-0.46185 0.32756,-0.55857 z"
     id="path72" />
  <path
     fill="#999999"
     d="m 34.160769,15.842253 c 0.19184,-0.0435 0.40773,0.002 0.54803,0.14594 0.22849,0.21691 0.22162,0.6284 -0.02,0.83328 -0.24453,0.23064 -0.68948,0.17684 -0.86414,-0.11332 -0.21131,-0.30733 -0.0338,-0.78749 0.33615,-0.8659 z"
     id="path74" />
  <path
     fill="#675491"
     d="m 38.671789,16.546193 c 0.3705,-0.14079 0.8063,0.19115 0.75133,0.58719 0.002,0.27643 -0.24453,0.43381 -0.45469,0.55686 -0.32985,0.18027 -0.4776,0.57574 -0.4673,0.93515 0.0424,0.37943 0.2955,0.73484 0.66257,0.86246 0.23995,0.0784 0.44209,0.30275 0.41804,0.56716 0.0252,0.37658 -0.39285,0.67303 -0.74331,0.54942 -0.47702,-0.20375 -0.91854,-0.52882 -1.17853,-0.98495 -0.16207,-0.32621 -0.3098,-0.68161 -0.28633,-1.05304 0.007,-0.57231 0.21475,-1.1492 0.62076,-1.55954 0.21475,-0.16768 0.4295,-0.34453 0.67746,-0.46071 z"
     id="path76" />
  <path
     fill="#999999"
     d="m 13.350139,16.958503 c 0.34131,-0.15281 0.78454,0.10645 0.78798,0.48646 0.0412,0.32278 -0.25197,0.6324 -0.57609,0.61065 -0.29263,0.01 -0.56407,-0.25181 -0.55892,-0.5454 -0.0212,-0.23522 0.13057,-0.46415 0.34703,-0.55171 z"
     id="path78" />
  <path
     fill="#999999"
     d="m 26.158429,17.518093 c 0.33615,-0.12361 0.74389,0.12935 0.75476,0.49276 0.0458,0.33652 -0.27029,0.6593 -0.60873,0.61523 -0.33215,-0.003 -0.59041,-0.3514 -0.5194,-0.67132 0.0292,-0.2003 0.18439,-0.372 0.37337,-0.43667 z"
     id="path80" />
  <path
     fill="#999999"
     d="m 0.31308875,17.660423 c 0.33042,-0.17455 0.78969005,0.0538 0.82176005,0.4321 0.0607,0.32678 -0.21990005,0.66044 -0.55319005,0.64842 -0.29377,0.0206 -0.57323,-0.23236 -0.57838,-0.52652 -0.0263,-0.22836 0.10823,-0.4527 0.30981,-0.554 z"
     id="path82" />
  <path
     fill="#999999"
     d="m 4.8833488,18.196763 c 0.3917,-0.12361 0.81031,0.25869 0.71353,0.66045 -0.0561,0.42751 -0.64366,0.61294 -0.94603,0.3142 -0.33042,-0.27414 -0.19127,-0.88136 0.2325,-0.97465 z"
     id="path84" />
  <path
     fill="#999999"
     d="m 12.912679,18.982913 c 0.38196,-0.15395 0.83665,0.19687 0.76393,0.60722 -0.024,0.43838 -0.61561,0.66101 -0.93401,0.36856 -0.33157,-0.25582 -0.23307,-0.84873 0.17008,-0.97578 z"
     id="path86" />
  <path
     fill="#675491"
     d="m 0.56764875,19.169763 c 0.25884,-0.0858 0.49649005,0.0824 0.71582005,0.19515 0.2892,0.15682 0.51712,0.39948 0.71182,0.66045 0.16378,0.1963 0.22162,0.45212 0.30465,0.68791 0.087,0.23007 0.0613,0.48131 0.0487,0.72168 -0.007,0.35827 -0.16665,0.68963 -0.33901,0.99582 -0.20101,0.3491 -0.55205,0.56544 -0.88075,0.77948 -0.38082005,0.1963 -0.87789005,-0.16025 -0.80230005,-0.5849 0.0201,-0.37372 0.43293,-0.47616 0.6534,-0.7068 0.22506005,-0.27699 0.33158005,-0.67361 0.19299005,-1.01413 -0.0939,-0.31534 -0.36306005,-0.55056 -0.67287005,-0.64728 -0.29091,-0.10015 -0.43122,-0.46013 -0.31726,-0.73885 0.067,-0.16597 0.21132,-0.30046 0.38483,-0.34853 z"
     id="path88" />
  <path
     fill="#999999"
     d="m 26.320679,19.660873 c 0.331,-0.1694 0.78511,0.0589 0.81604,0.43667 0.0578,0.32164 -0.21475,0.65415 -0.54403,0.64614 -0.29835,0.0263 -0.58526,-0.23236 -0.58755,-0.53168 -0.0246,-0.22778 0.11225,-0.45212 0.31554,-0.55113 z"
     id="path90" />
  <path
     fill="#999999"
     d="m 34.509549,20.489233 c 0.32813,-0.10931 0.71468,0.13278 0.73643,0.48246 0.0533,0.33479 -0.25139,0.66616 -0.59098,0.63182 -0.34302,0.006 -0.61332,-0.35426 -0.53486,-0.68333 0.0361,-0.20088 0.1947,-0.37258 0.38941,-0.43095 z"
     id="path92" />
  <path
     fill="#999999"
     d="m 38.930249,21.009593 c 0.33672,-0.12419 0.74561,0.13106 0.75476,0.49505 0.0441,0.33594 -0.27087,0.65586 -0.60759,0.61294 -0.33385,-0.002 -0.59269,-0.35311 -0.51996,-0.67475 0.0298,-0.19859 0.18438,-0.36857 0.37279,-0.43324 z"
     id="path94" />
  <path
     fill="#999999"
     d="m 13.080769,21.126243 c 0.3728,-0.20489 0.88533,0.12304 0.82635,0.5517 0.002,0.44182 -0.58583,0.69307 -0.91683,0.41263 -0.32871,-0.23235 -0.27602,-0.79665 0.0905,-0.96433 z"
     id="path96" />
  <path
     fill="#999999"
     d="m 25.933959,21.714673 c 0.32985,-0.15624 0.7708,0.0715 0.80172,0.44297 0.0567,0.31591 -0.20501,0.64442 -0.52799,0.64613 -0.30408,0.0343 -0.60129,-0.22491 -0.60358,-0.53052 -0.0252,-0.23408 0.11854,-0.463 0.32985,-0.55858 z"
     id="path98" />
  <path
     fill="#675491"
     d="m 38.529129,22.536953 c 0.24854,-0.0996 0.55834,-0.0206 0.70208,0.2129 0.15576,0.23579 0.10537,0.58948 -0.12312,0.76117 -0.24853,0.18199 -0.60874,0.13449 -0.82806,0.36627 -0.48047,0.39318 -0.47474,1.24134 0.0544,1.59045 0.27945,0.18027 0.32469,0.61523 0.0985,0.85445 -0.17237,0.20489 -0.49764,0.24323 -0.72498,0.11618 -0.47245,-0.35197 -0.82749,-0.88651 -0.8859,-1.48113 -0.0962,-0.62782 0.1025,-1.30029 0.54001,-1.76328 0.17409,-0.17341 0.36078,-0.33766 0.57266,-0.46414 0.19298,-0.0778 0.39743,-0.12419 0.59442,-0.19287 z"
     id="path100" />
  <path
     fill="#999999"
     d="m 5.1946488,22.812713 c 0.37279,-0.13793 0.8097402,0.19401 0.7513202,0.59348 -0.008,0.44697 -0.6087302,0.68505 -0.9328602,0.38974 -0.34073,-0.25869 -0.23078,-0.86475 0.18154,-0.98322 z"
     id="path102" />
  <path
     fill="#999999"
     d="m 14.038339,22.996833 c 0.35963,-0.16082 0.81776,0.13964 0.78569,0.53854 0.0235,0.43552 -0.52856,0.71824 -0.8796,0.47215 -0.38197,-0.22205 -0.3247,-0.86418 0.0939,-1.01069 z"
     id="path104" />
  <path
     fill="#999999"
     d="m 24.918149,23.512653 c 0.37108,-0.16769 0.84294,0.15853 0.7874,0.56944 0,0.43095 -0.55891,0.68505 -0.89564,0.42923 -0.36536,-0.23064 -0.2995,-0.85216 0.10824,-0.99867 z"
     id="path106" />
  <path
     fill="#999999"
     d="m 0.81533875,23.624713 c 0.38368005,-0.16769 0.85154005,0.18657 0.77652005,0.60321 -0.0258,0.42637 -0.58755,0.65186 -0.91224005,0.38516 -0.3499,-0.24208 -0.2703,-0.85045 0.13572,-0.98837 z"
     id="path108" />
  <path
     fill="#999999"
     d="m 15.428859,24.536493 c 0.38197,-0.15738 0.84009,0.19287 0.76794,0.60379 -0.0223,0.43953 -0.61446,0.6633 -0.93401,0.37142 -0.33042,-0.25524 -0.23421,-0.84529 0.16607,-0.97521 z"
     id="path110" />
  <path
     fill="#999999"
     d="m 23.436339,24.951943 c 0.39341,-0.12706 0.81546,0.25811 0.7164,0.66159 -0.0573,0.42465 -0.64081,0.60893 -0.94317,0.31419 -0.33158,-0.27242 -0.19585,-0.88078 0.22677,-0.97578 z"
     id="path112" />
  <path
     fill="#999999"
     d="m 33.435329,25.014633 c 0.331,-0.11789 0.72957,0.12419 0.75018,0.48074 0.0521,0.33938 -0.26227,0.67189 -0.6053,0.62897 -0.31725,-0.003 -0.57609,-0.32107 -0.52742,-0.6324 0.016,-0.21633 0.17753,-0.41092 0.38254,-0.47731 z"
     id="path114" />
  <path
     fill="#675491"
     d="m 1.3561588,25.062213 c 0.21876,-0.10187 0.46042,-0.02 0.68376,0.0206 0.39799,0.0933 0.78912,0.27414 1.06629,0.58204 0.20959,0.25926 0.44953,0.51279 0.53257,0.84587 0.17008,0.64556 0.12312,1.40559 -0.31668,1.93841 -0.1592,0.19744 -0.31668,0.47101 -0.60645,0.46586 -0.31668,0.0395 -0.62247,-0.24209 -0.60931,-0.5603 -0.0223,-0.33995 0.33501,-0.51049 0.43809,-0.80351 0.11682,-0.33995 0.0762,-0.75259 -0.18497,-1.01699 -0.17981,-0.25582 -0.49363,-0.36227 -0.79485,-0.372 -0.28518,-0.009 -0.54173,-0.26384 -0.53085,-0.55285 -0.0246,-0.23007 0.12025,-0.44755 0.3224,-0.54713 z"
     id="path116" />
  <path
     fill="#999999"
     d="m 17.322529,25.633033 c 0.32126,-0.0893 0.68719,0.14995 0.70895,0.48818 0.0521,0.32278 -0.22906,0.64728 -0.55719,0.63412 -0.31325,0.0218 -0.60015,-0.26669 -0.57724,-0.5786 -0.007,-0.25125 0.18267,-0.48704 0.42548,-0.5437 z"
     id="path118" />
  <path
     fill="#999999"
     d="m 21.398499,25.840623 c 0.33214,-0.16597 0.78454,0.0641 0.81318,0.44182 0.0561,0.32049 -0.2159,0.65014 -0.54346,0.64327 -0.29892,0.0269 -0.58697,-0.23178 -0.58869,-0.53225 -0.0246,-0.22892 0.11396,-0.45441 0.31897,-0.55284 z"
     id="path120" />
  <path
     fill="#999999"
     d="m 19.319589,26.025163 c 0.36421,-0.15109 0.81661,0.15909 0.77424,0.558 0.0155,0.4544 -0.59385,0.71996 -0.92771,0.42179 -0.33901,-0.2501 -0.24796,-0.84645 0.15347,-0.97979 z"
     id="path122" />
  <path
     fill="#999999"
     d="m 37.370089,26.933383 c 0.34759,-0.186 0.83206,0.0847 0.82348,0.48646 0.0326,0.31191 -0.24739,0.60665 -0.55949,0.59463 -0.3184,0.0218 -0.60817,-0.27814 -0.57552,-0.5952 -0.003,-0.20603 0.13228,-0.39432 0.31153,-0.48589 z"
     id="path124" />
  <path
     fill="#999999"
     d="m 7.010199,27.122723 c 0.3436,-0.10015 0.73186,0.18371 0.71411,0.54598 0.0212,0.30562 -0.25655,0.58776 -0.56235,0.57517 -0.31096,0.02 -0.59557,-0.26555 -0.57438,-0.57632 -0.009,-0.25066 0.18039,-0.4876 0.42262,-0.54483 z"
     id="path126" />
  <path
     fill="#675491"
     d="m 36.076159,28.173613 c 0.3161,-0.0532 0.64423,-0.0544 0.96091,-0.004 0.40945,0.11274 0.52341,0.7108 0.19414,0.97349 -0.24625,0.23236 -0.60187,0.0738 -0.89793,0.13163 -0.52857,0.10874 -0.89622,0.67418 -0.80345,1.20185 0.0435,0.29245 0.35906,0.49161 0.28748,0.81039 -0.0269,0.44296 -0.62763,0.66216 -0.94546,0.36227 -0.71811,-0.82871 -0.61332,-2.21999 0.21074,-2.94052 0.2829,-0.25239 0.61274,-0.47044 0.99357,-0.53511 z"
     id="path128" />
  <path
     fill="#999999"
     d="m 30.988329,28.950683 c 0.36422,-0.1654 0.83036,0.14536 0.78855,0.54999 0.0155,0.43838 -0.55433,0.70966 -0.89678,0.44754 -0.36363,-0.23121 -0.2995,-0.85159 0.10823,-0.99753 z"
     id="path130" />
  <path
     fill="#999999"
     d="m 3.0699888,29.225383 c 0.37795,-0.1448 0.81948,0.19687 0.75648,0.60034 -0.016,0.43725 -0.599,0.67018 -0.9237,0.3886 -0.3476,-0.25353 -0.24738,-0.86533 0.16722,-0.98894 z"
     id="path132" />
  <path
     fill="#675491"
     d="m 4.3894088,30.329133 c 0.29778,-0.0401 0.60244,-0.0229 0.89564,0.0424 0.38024,0.0933 0.7083802,0.32392 1.0015802,0.57459 0.52684,0.57288 0.78855,1.44222 0.49878,2.18736 -0.0773,0.20546 -0.12197,0.4527 -0.32298,0.5786 -0.29549,0.20604 -0.7599202,0.0544 -0.8618502,-0.29588 -0.10136,-0.3142 0.1403,-0.58719 0.17695,-0.88822 0.0195,-0.51737 -0.37623,-1.01127 -0.89277,-1.0851 -0.27087,-0.0549 -0.53143,0.12934 -0.8,0.0481 -0.21475,-0.0721 -0.37853,-0.27929 -0.38827,-0.50707 -0.0217,-0.23293 0.11396,-0.46929 0.32527,-0.56887 0.11625,-0.0515 0.24396,-0.0652 0.36765,-0.0858 z"
     id="path134" />
  <path
     fill="#999999"
     d="m 9.988429,30.603363 c 0.38139,-0.15624 0.8378,0.19172 0.76793,0.60207 -0.0206,0.44125 -0.61675,0.66674 -0.9363,0.37143 -0.3287,-0.25583 -0.23135,-0.84473 0.16837,-0.9735 z"
     id="path136" />
  <path
     fill="#999999"
     d="m 27.422309,32.018003 c 0.32928,-0.15682 0.76908,0.0692 0.80229,0.43895 0.059,0.31764 -0.20444,0.64958 -0.53028,0.64958 -0.30408,0.0332 -0.60129,-0.22835 -0.60129,-0.53511 -0.0235,-0.23179 0.12026,-0.45842 0.32928,-0.55342 z"
     id="path138" />
  <path
     fill="#999999"
     d="m 34.214469,32.004773 c 0.33615,-0.13564 0.75992,0.11617 0.77023,0.48474 0.0435,0.3182 -0.23537,0.6324 -0.5572,0.61923 -0.30637,0.0217 -0.58984,-0.25467 -0.57781,-0.56028 -0.0143,-0.23637 0.14488,-0.463 0.36478,-0.54369 z"
     id="path140" />
  <path
     fill="#675491"
     d="m 32.283489,32.806323 c 0.43637,-0.0469 0.8607,0.10301 1.25298,0.27642 0.36707,0.20775 0.33672,0.81153 -0.0435,0.98895 -0.41403,0.22034 -0.79485,-0.25525 -1.21632,-0.12419 -0.34761,0.0733 -0.65455,0.31019 -0.77882,0.64785 -0.10765,0.22949 -0.0739,0.48703 -0.0126,0.72454 0.0859,0.32507 -0.18783,0.68391 -0.52398,0.68505 -0.26858,0.0315 -0.53429,-0.16597 -0.59614,-0.4258 -0.13228,-0.58546 -0.0807,-1.23675 0.25484,-1.74782 0.34588,-0.58719 0.99184,-0.96033 1.66357,-1.025 z"
     id="path142" />
  <path
     fill="#999999"
     d="m 13.973649,33.073953 c 0.37281,-0.17398 0.85097,0.15624 0.79199,0.57059 -0.002,0.42809 -0.55662,0.6799 -0.89278,0.42694 -0.36535,-0.22778 -0.30408,-0.84701 0.10079,-0.99753 z"
     id="path144" />
  <path
     fill="#999999"
     d="m 23.133889,33.789333 c 0.32527,-0.14937 0.75477,0.0715 0.79313,0.43381 0.0636,0.31821 -0.19642,0.65472 -0.52398,0.65816 -0.3098,0.0366 -0.61274,-0.23351 -0.60644,-0.54541 -0.0195,-0.23179 0.12713,-0.45499 0.33729,-0.54656 z"
     id="path146" />
  <path
     fill="#999999"
     d="m 6.960519,33.890883 c 0.34187,-0.13163 0.7645,0.13164 0.76278,0.50535 0.0344,0.3079 -0.23594,0.60779 -0.54689,0.6015 -0.30408,0.0263 -0.59385,-0.24152 -0.58812,-0.54598 -0.0212,-0.24438 0.14488,-0.48017 0.37223,-0.56087 z"
     id="path148" />
  <path
     fill="#999999"
     d="m 18.570169,34.166113 c 0.3705,-0.11675 0.7811,0.22091 0.7204,0.60836 -0.0132,0.45156 -0.62878,0.67991 -0.9466,0.37029 -0.33558,-0.27185 -0.19929,-0.88479 0.2262,-0.97865 z"
     id="path150" />
  <path
     fill="#675491"
     d="m 8.918739,34.448183 c 0.62649,-0.13736 1.31139,0.0263 1.81647,0.41779 0.43293,0.35082 0.75019,0.87276 0.80974,1.43019 -0.0252,0.3142 0.0704,0.68906 -0.15175,0.95003 -0.22105,0.26383 -0.68261,0.24552 -0.88304,-0.0343 -0.24167,-0.30275 0.024,-0.71653 -0.16035,-1.03931 -0.17065,-0.43381 -0.65111,-0.68848 -1.10523,-0.63869 -0.29778,0.0298 -0.49878,0.34052 -0.81088,0.30103 -0.30981,-0.0109 -0.56865,-0.31305 -0.52513,-0.6221 -0.004,-0.2129 0.14775,-0.39203 0.32928,-0.4836 0.21646,-0.11732 0.44037,-0.22549 0.68089,-0.281 z"
     id="path152" />
  <path
     fill="#999999"
     d="m 29.569549,35.870873 c 0.36536,-0.15338 0.82063,0.15968 0.77539,0.56029 0.0132,0.45269 -0.59271,0.71538 -0.926,0.4195 -0.33958,-0.24896 -0.24967,-0.8453 0.15061,-0.97979 z"
     id="path154" />
  <path
     fill="#675491"
     d="m 26.845059,36.007583 c 0.55662,-0.0887 1.18598,-0.0114 1.62521,0.37086 0.20043,0.15452 0.47702,0.30103 0.48275,0.59062 0.0493,0.32736 -0.24453,0.65128 -0.5761,0.6261 -0.39398,0.003 -0.58468,-0.46242 -0.97351,-0.48531 -0.59843,-0.11275 -1.23237,0.39775 -1.20603,1.01413 0.007,0.26497 -0.20443,0.50706 -0.4627,0.55284 -0.29206,0.0641 -0.61446,-0.13792 -0.67116,-0.43266 -0.087,-1.0519 0.7393,-2.08091 1.78154,-2.23658 z"
     id="path156" />
  <path
     fill="#675491"
     d="m 14.670159,36.861033 c 0.27373,-0.0257 0.55319,-0.0441 0.82635,-0.007 0.63164,0.14651 1.21976,0.55399 1.51869,1.1366 0.0991,0.28558 0.23422,0.5786 0.21474,0.88765 -0.0498,0.39775 -0.57094,0.60321 -0.88762,0.36627 -0.30522,-0.19687 -0.21016,-0.6261 -0.43006,-0.88307 -0.21303,-0.24666 -0.53372,-0.43838 -0.87044,-0.40004 -0.31611,-0.004 -0.59958,0.17398 -0.78569,0.42122 -0.19012,0.26326 -0.61446,0.29245 -0.84238,0.0647 -0.23193,-0.20488 -0.24739,-0.60321 -0.0275,-0.82183 0.17924,-0.18028 0.36478,-0.35941 0.57781,-0.49906 0.22219,-0.11903 0.46042,-0.21061 0.70609,-0.26497 z"
     id="path158" />
  <path
     fill="#999999"
     d="m 12.097549,37.075843 c 0.38482,-0.16826 0.85383,0.18772 0.77709,0.6055 -0.0286,0.42465 -0.58869,0.64842 -0.91281,0.3823 -0.34933,-0.24266 -0.26915,-0.85045 0.13572,-0.9878 z"
     id="path160" />
  <path
     fill="#675491"
     d="m 20.793569,37.362323 c 0.52284,-0.11161 1.07774,0.002 1.54389,0.25353 0.22219,0.12934 0.43751,0.28672 0.57094,0.51221 0.13171,0.22263 0.35848,0.42695 0.32928,0.70909 -0.003,0.3617 -0.40716,0.62267 -0.74331,0.50478 -0.28691,-0.0801 -0.36822,-0.39776 -0.54231,-0.60207 -0.4713,-0.49276 -1.43394,-0.33022 -1.66415,0.33079 -0.0681,0.24495 -0.27487,0.46815 -0.54402,0.46529 -0.3625,0.0452 -0.67917,-0.32393 -0.60301,-0.67418 0.22734,-0.75144 0.87789,-1.35122 1.65269,-1.49944 z"
     id="path162" />
  <path
     fill="#999999"
     d="m 24.023989,38.168093 c 0.32241,-0.0893 0.68891,0.15166 0.70838,0.49104 0.0504,0.32278 -0.23192,0.64613 -0.56006,0.63125 -0.31095,0.02 -0.59613,-0.26612 -0.57437,-0.57689 -0.008,-0.25181 0.1821,-0.48875 0.42605,-0.5454 z"
     id="path164" />
  <path
     fill="#999999"
     d="m 17.907029,38.603883 c 0.32985,-0.16368 0.77824,0.0635 0.81031,0.43724 0.059,0.32221 -0.2136,0.65587 -0.54345,0.64843 -0.29836,0.0263 -0.58583,-0.23179 -0.58812,-0.5311 -0.0246,-0.23064 0.11453,-0.45728 0.32126,-0.55457 z"
     id="path166" />
</svg>
