<?xml version="1.0" encoding="utf-8"?>
<!-- Generator: Adobe Illustrator 27.2.0, SVG Export Plug-In . SVG Version: 6.00 Build 0)  -->
<svg version="1.1" id="Vrstva_1" xmlns="http://www.w3.org/2000/svg" xmlns:xlink="http://www.w3.org/1999/xlink" x="0px" y="0px"
	 viewBox="0 0 1200 500" style="enable-background:new 0 0 1200 500;" xml:space="preserve">
<style type="text/css">
	.st0{opacity:0.9;fill:#FFFFFF;}
	.st1{opacity:0.2;fill:#FFFFFF;}
	.st2{opacity:0.5;fill:#FFFFFF;}
	.st3{fill:#FFFFFF;}
</style>
<g>
	<path class="st0" d="M273.8,95.3c2.9-1.2,6.5,1.3,6.1,4.4c0.1,3.6-4.7,5.7-7.3,3.3C269.9,101.1,270.6,96.4,273.8,95.3z"/>
	<path class="st1" d="M261.8,96.7c3.3-1.4,7.1,1.8,6.1,5.3c-2.3,7.2-9.6,12.5-17.2,11.9c-3.1-0.1-6.2-1-8.8-2.7
		c-2.4-1.7-4.2-4.1-5.7-6.5c-1.1-1.7-0.8-4.3,0.8-5.6c1.7-1.7,4.9-1.6,6.4,0.3c1.1,1.4,1.9,3.2,3.4,4.3c3.2,2.2,7.9,1.8,10.5-1
		C259.3,100.9,259.1,97.5,261.8,96.7z"/>
	<path class="st1" d="M286,98c2-0.8,4.7,0,5.7,2c0.8,1.8,0.8,4,2.1,5.6c2.6,3.3,7.8,4.3,11.2,1.7c1.4-1,2.1-2.9,3.9-3.4
		c2.4-1,5.5,0.7,6,3.3c0.1,1.2,0.2,2.5-0.5,3.5c-2.7,3.5-6.7,6.2-11.2,6.8c-2,0.1-3.9,0.3-5.9,0c-4.9-1.1-9.6-4.2-12-8.7
		c-0.9-1.9-1.5-4-1.9-6.1C282.9,100.7,284.1,98.7,286,98z"/>
	<path class="st0" d="M226.4,98.8c2.9-1.1,6.4,1.6,5.9,4.7c-0.1,3.5-4.8,5.4-7.4,3.1C222.3,104.6,223.2,99.8,226.4,98.8z"/>
	<path class="st1" d="M215.3,99c2.5-0.6,5.3,1.3,5.5,3.9c0,5.2-2.2,10.6-6.5,13.7c-4.9,4.3-12.4,4.8-18.2,2.2
		c-1.9-1.2-3.8-2.5-5.3-4.2c-2.1-2.7,0-7.2,3.5-7.1c3.1-0.3,4.4,3.2,7.2,3.7c4.7,1.5,10.3-2.3,10.3-7.4
		C211.6,101.5,213.1,99.4,215.3,99z"/>
	<path class="st0" d="M320.2,107.4c2.6-1.2,6.1,0.6,6.3,3.5c0.4,2.5-1.6,5.1-4.2,5.1c-2.4,0.3-4.8-1.8-4.8-4.2
		C317.4,109.9,318.6,108.1,320.2,107.4z"/>
	<path class="st1" d="M330.5,109.4c2.3-1.1,5.4,0.2,6.1,2.6c0.5,2-0.3,4.1,0.3,6.1c1.2,4,5.7,6.8,9.8,5.6c2-0.3,3.3-2.3,5.4-2.1
		c2.5,0,4.7,2.3,4.5,4.9c0,1.9-1.4,3.4-3,4.1c-4.9,2.8-11.1,3.1-16.3,0.7c-4.7-2.5-8.5-7-9.3-12.3c-0.2-2-0.2-4-0.1-6.1
		C328,111.5,329.1,110.1,330.5,109.4z"/>
	<path class="st2" d="M268.5,119.3c-3.6,0.9-7.4,2.7-9.2,6.1c-1.3,2.1-1.8,4.7-3.7,6.3c-1.7,1.6-4.8,1.5-6.3-0.3
		c-0.8-1-1.2-2.4-2-3.4c-3.1-4.7-9.2-7-14.7-5.8c-4.1,0.8-7.9,3.6-9.9,7.3c-1.6,2.7-1.2,5.9-2.1,8.8c-0.6,2-2.5,3.6-4.7,3.4
		c-2.1,0.1-3.3-1.8-4.7-2.9c-5.6-4.9-14.9-3.9-19.7,1.6c-1.8,2.5-3.8,5.3-3.7,8.6c-0.1,3,1.2,5.9,0.7,8.8c-0.5,2.7-3.8,4.4-6.2,3.1
		c-2.7-1.5-5.8-2.4-9-1.9c-7.6,0.7-13.8,8.2-12.9,15.9c0.3,3.5,2.8,6.2,3.7,9.5c0.7,2.5-1.2,5.5-3.9,5.6c-2.3-0.1-4.5-0.6-6.8-0.2
		c-5,0.9-9.1,4.7-10.9,9.3c-1.3,2.9-1,6.2-0.4,9.3c0.8,2.7,2.7,5,4.9,6.8c1.6,1.3,3.1,3.2,2.9,5.4c0,2.2-1.9,4.1-4.1,4.1
		c-5.4,0.7-10.2,4.6-11.8,9.8c-1.8,4.6-0.5,9.8,2.3,13.7c1.6,2.1,4,3.3,6.4,4.4c1.2,0.5,2.4,1.2,3.2,2.2c1.6,1.8,1.4,5-0.6,6.4
		c-1.3,0.9-2.7,1.5-3.9,2.5c-5.2,4.1-6.8,11.8-3.9,17.7c1.3,2.2,3,4.3,5.1,5.8c2.8,1.9,6.4,1.9,9.6,2.6c2.3,0.5,4,2.7,3.6,5
		c-0.1,2-2,3-3.1,4.5c-3.5,4.3-3.9,10.7-1.3,15.5c1.9,3.8,5.7,6.6,9.7,7.5c3.8,1,7.5-1.3,11.3-0.4c2.6,0.8,3.9,4.1,2.5,6.4
		c-2.1,3.9-2.6,8.9-0.6,13c1.5,2.8,3.5,5.7,6.6,7c3.5,1.6,7.8,2.6,11.4,0.7c2.4-1,4.6-2.8,7.3-2.8c2.4-0.1,4.7,2.2,4.4,4.7
		c-0.2,2.1-0.6,4.3-0.1,6.4c1.2,5.3,5.5,9.7,10.8,11.1c3.7,0.8,7.9,0.4,11.1-1.8c2.2-1.4,3.6-3.7,5.7-5.1c1.8-1.3,4.5-1.2,6,0.4
		c1.5,1.4,1.1,3.6,1.9,5.3c2,7,10,11.4,17,9.6c2.5-0.8,5-1.7,6.8-3.6c2.4-2.3,3-5.8,5.3-8.3c1.6-1.9,4.8-1.9,6.5-0.2
		c1,1.2,1.5,2.7,2.5,3.8c4.1,5.9,12.9,7.5,18.9,3.8c2.8-1.8,5.4-4.3,6.3-7.6c0.6-2.5,0.6-5.2,1.6-7.6c1.1-2.6,4.8-3.4,6.9-1.5
		c2.4,2.2,5.1,4.3,8.4,4.7c4.2,1,8.6-0.6,12-3c2.3-2.1,4.2-4.9,4.9-7.9c0.9-3.6-0.9-7.2-0.5-10.8c0.4-2.7,3.6-4.5,6.1-3.3
		c2.5,1.2,5.1,2.3,7.9,2c5.3-0.2,10.6-3.5,12.8-8.5c1-2.5,1.7-5.2,1.3-7.9c-0.3-3.5-3.2-6.1-3.7-9.5c-0.4-2.3,1.3-4.8,3.6-5.1
		c1.4-0.1,2.7,0.2,4,0.2c4.8,0.3,9.5-2.2,12.2-6.1c3-4,3.5-9.6,1.6-14.1c-1.3-3.1-4.2-4.9-6.1-7.5c-1.4-1.8-1.3-4.6,0.4-6.1
		c1.3-1.3,3.3-1.1,5-1.8c7.2-1.8,11.8-10.2,9.9-17.3c-0.9-2.9-2.2-5.8-4.7-7.6c-2.3-1.9-5.5-2.4-7.6-4.6c-1.7-1.8-1.5-4.9,0.4-6.5
		c0.9-0.7,2-1,2.9-1.6c5.1-3.1,7.5-9.6,6.2-15.3c-0.5-2.9-2.3-5.2-4.2-7.3c-1.7-1.9-4-3-6.5-3.5c-2.4-0.5-5.2-0.3-7.2-1.9
		c-1.6-1.2-2-3.5-1.3-5.3c0.7-1.5,2.3-2.3,3.1-3.7c4.1-5.6,3.1-13.9-1.7-18.8c-2.3-1.9-4.9-3.5-7.8-4c-3.3-0.6-6.6,1.1-9.9,0.6
		c-2.7-0.4-4.3-3.6-3.2-6c0.9-1.9,1.7-3.8,2-5.8c0.6-5.9-2.6-12.1-8-14.7c-3.5-1.4-7.6-2.3-11.2-0.7c-2.4,0.9-4.5,3-7.2,3
		c-2.5,0.2-4.9-2.3-4.5-4.8c0.4-2.9,0.5-6-0.8-8.7c-1.7-4.5-5.9-7.7-10.5-8.9c-3.3-0.5-6.9-0.2-9.9,1.4c-2.5,1.5-4.1,4.1-6.5,5.8
		c-2.3,1.7-6.1,0.7-6.9-2.1c-0.7-3-1.3-6.4-3.7-8.7C278.9,120.4,273.5,118.4,268.5,119.3z M267,110.5c6.6-1.1,13.6,0.6,18.8,4.7
		c2.7,2.2,5,4.8,6.6,7.9c4.3-3.6,10.3-4.8,15.8-4.4c3.6,0,6.8,1.6,9.9,3.1c2.5,1.5,4.6,3.6,6.6,5.7c2.5,3.3,4.2,7.1,4.7,11.2
		c5.3-2.3,11.3-1.4,16.6,0.5c2.6,0.8,4.7,2.5,6.7,4.3c2.9,2.4,4.8,5.8,6.2,9.2c1.4,3.8,1.7,8,1.3,12.1c6.1-0.2,11.9,2.5,16.4,6.5
		c4.3,4.1,6.5,9.9,7.1,15.7c0.1,4.2-0.8,8.4-2.6,12.2c6.3,1.5,10.9,6.5,14,11.9c2.2,4.5,2.6,9.6,2,14.5c-0.8,4.8-3.3,9.3-6.6,12.8
		c8.8,5.7,12.2,18.1,8,27.7c-1.9,5.4-6.2,9.7-11.2,12.4c6.4,8.1,6,20.7-0.7,28.6c-3.5,4.6-9,7.6-14.8,8.5c1.9,5,1.6,10.6-0.2,15.5
		c-1.9,5.5-6.1,10.1-11.2,12.7c-4.4,2.5-9.8,3.1-14.8,2.5c0.6,7.2-3.4,13.9-8.6,18.5c-4.1,3-9,4.8-14.1,5c-4-0.1-8.1-0.7-11.6-2.7
		c-0.3,2.7-1.9,4.9-3.3,7.1c-3.5,4.4-8.4,7.9-14,8.8c-7.7,1.6-16.1-0.8-21.7-6.5c-3.2,5-8.6,8-14.2,9.3c-5.4,1.1-11.2,0.3-16-2.3
		c-4.3-2.2-7.6-6-9.9-10.2c-4.2,3.5-9.8,4.8-15.2,4.6c-10.8-0.3-20.6-9.4-21.9-20.1c-3.7,1.8-7.9,1.6-11.8,0.9c-5-1-9.8-3.4-13-7.4
		c-2.8-3.4-5.2-7.4-5.7-11.9c-0.4-2.5-0.3-5.1,0-7.6c-6.8,0.4-13.4-3-17.9-8c-6.2-7.1-7.4-18-3.1-26.4c-5.8-1.2-10.3-5.8-13.4-10.6
		c-1.5-2.2-2.1-4.9-2.6-7.5c-0.6-2.5-0.3-5.2,0-7.8c0.5-5,3.3-9.5,6.6-13.1c-5.4-3.4-8.5-9.6-9.6-15.8c-0.8-5.8,0.9-11.6,3.9-16.6
		c2.4-3.2,5.4-6,9.1-7.7c-3.9-4.2-4.8-10.1-4.7-15.6c0.7-10.6,9.5-20.3,20.2-21.5c-2.1-4.6-1.8-10-0.2-14.7
		c2-6.7,7.5-11.9,13.8-14.6c4-1.3,8.3-1.8,12.5-1.2c-0.1-2.8,0.2-5.6,1.2-8.2c1.5-3.3,3.4-6.4,5.9-9c2.1-1.9,4.5-3.4,7-4.6
		c4.9-1.7,10.3-2.5,15.3-1c1.7,0.4,3.3,1,4.8,1.7c3.1-10.5,14.6-17.7,25.4-15.9c5.2,0.3,10,3.2,13.7,6.7
		C255.4,114.8,261.2,111.8,267,110.5"/>
	<path class="st0" d="M181.8,112.7c2.7-1,6,1,6,4c0.3,2.4-1.8,4.8-4.3,4.8c-2.4,0.2-4.7-1.9-4.7-4.3
		C178.7,115.2,180,113.4,181.8,112.7z"/>
	<path class="st1" d="M172.8,120.6c2.2-0.7,4.7,0.5,5.5,2.7c1.1,4.3,1,9.1-1,13.1c-1.3,2.1-2.6,4.3-4.7,5.7c-3.9,3-9,4.5-13.8,3.4
		c-1.7-0.5-3.4-1-5-1.8c-2.4-1.1-3.1-4.5-1.5-6.6c1-1.4,2.8-2.1,4.5-1.7c1.7,0.4,3.2,1.4,5,1.5c3.8,0,7.5-2.8,8.2-6.6
		c0.5-1.7-0.2-3.3-0.4-4.9C169.2,123.3,170.8,121.1,172.8,120.6z"/>
	<path class="st1" d="M269.4,126.2c3-1.4,6.8,1.4,6.2,4.7c-0.2,3.4-4.7,5.2-7.2,3C265.7,132.1,266.3,127.3,269.4,126.2z"/>
	<path class="st0" d="M361,128.4c2.7-1.2,6.3,0.9,6.2,4c0.3,2.7-2.4,5.1-5,4.7c-2.6-0.2-4.5-3-3.9-5.5
		C358.6,130.2,359.7,129,361,128.4z"/>
	<path class="st1" d="M232.6,129.6c2.6-1.2,6.1,0.6,6.3,3.5c0.5,2.5-1.6,5.1-4.2,5.1c-2.4,0.3-4.7-1.8-4.7-4.2
		C229.8,132.2,231,130.4,232.6,129.6z"/>
	<path class="st1" d="M305.2,134.8c2.9-1.3,6.5,1.1,6.3,4.3c0.2,3.5-4.3,5.7-7,3.7C301.5,140.9,302,136,305.2,134.8z"/>
	<path class="st0" d="M268.6,345.2c-2.7,1-2.9,5.1-0.3,6.3c2.3,1.6,5.8-0.6,5.5-3.3C273.5,345.8,270.7,344.2,268.6,345.2z
		 M236.8,342.9c-2,1-2.4,4-0.8,5.5c0.8,0.8,1.8,1,2.8,1.4c1.2-0.6,2.8-1,3.2-2.5C243.3,344.3,239.4,341.2,236.8,342.9 M298.9,338
		c-1.9,0.9-2.6,3.6-1.1,5.2c1.7,2.6,6.4,1.3,6.5-1.8C304.6,338.6,301.3,336.6,298.9,338 M207.9,330.7c-1.2,0.5-1.7,1.8-2,3
		c0.1,1.8,1.5,3.4,3.2,3.9c2.2,0.4,4.4-1.6,4.1-3.8C213,331.3,210.1,329.5,207.9,330.7 M326.6,321.3c-2.5,0.6-3.7,4-1.7,5.8
		c1.8,2.3,6,0.9,6.3-2C331.6,322.7,328.8,320.5,326.6,321.3 M261.8,317.5c0.3,1.6,0.6,3.2,0.8,4.9c2.3,1.2,4.4,2.7,6.2,4.6
		c1.7-3,4.5-5.3,7.6-6.8c-1.4-3-4.7-5.1-8-5C266,315.4,264.1,316.8,261.8,317.5 M240.3,313.9c-0.1,1.7-0.3,3.3-0.7,4.9
		c1.7,1.9,3.3,4,4.5,6.3c2.5-2.4,5.9-3.5,9.3-4.1c-0.4-3.2-2.8-6.1-5.9-7.1C245.2,313.3,242.7,314,240.3,313.9 M289.3,309.8
		c-2.5,0.6-4,3-6.1,4.3c0.9,1.4,1.7,2.9,2.2,4.6c2.6,0.3,5.1,1.1,7.4,2.4c0.6-3.4,2.7-6.4,5.2-8.7
		C295.8,310,292.4,308.9,289.3,309.8 M184.4,310c-2.7,1.1-3.1,5.4-0.3,6.6c2,1.3,4.8-0.2,5.1-2.4C189.8,311.7,186.8,309.1,184.4,310
		 M221.1,303.7c-0.5,1.7-1.2,3.3-2.2,4.7c1.1,2.4,2,4.9,2.2,7.5c3.2-1.5,6.8-1.7,10.2-1c0.6-3.4-0.9-7.2-3.9-9
		C225.5,304.7,223,305,221.1,303.7 M347.4,297.2c-1.9,0.4-3.4,2.4-2.9,4.4c0.2,2.1,2.7,3.1,4.5,2.6c1.5-0.7,3-2.3,2.6-4.1
		C351.4,298.2,349.3,296.8,347.4,297.2 M306.3,299.1c-1.6,1.5-2.3,3.7-3.7,5.4c1.2,1.1,2.4,2.2,3.5,3.4c2.6-0.2,5.2-0.3,7.8,0.1
		c-0.5-3.4,0.5-7,2.2-10C313,296.4,308.9,296.7,306.3,299.1 M202.4,292.1c0.4,2.6,0.4,5.2-0.1,7.7c3.4-0.5,6.9,0.5,10,2.1
		c1.5-2.7,1.5-6.2-0.3-8.8c-1.5-2.1-4.1-3-6.1-4.5C204.8,289.8,203.7,291.1,202.4,292.1 M168,283.2c-2.9,0.9-3.2,5.3-0.5,6.6
		c2.4,1.7,6-1.1,5.1-3.9C172.3,283.9,170,282.3,168,283.2 M320.6,281.8c-1.8,2-1.6,5-2.7,7.3c1.5,0.6,3.1,1.4,4.4,2.3
		c2.4-1.2,4.9-2,7.5-2.4c-1.6-3.1-1.6-6.8-1-10.2C325.9,278.5,322.6,279.4,320.6,281.8 M191.7,271.4c-0.4,2.6-1.2,5.1-2.4,7.5
		c3.5,0.5,6.3,2.7,8.7,5.1c2.4-2.4,3.4-6.2,2.1-9.4c-0.9-2.1-2.9-3.4-4.1-5.3C194.7,270,193.3,270.8,191.7,271.4 M358.7,268.3
		c-1.5,0.6-2.4,2.2-2.2,3.8c0.1,2.1,2.6,3.9,4.6,2.9c1.9-0.6,3-2.8,2.3-4.7C362.8,268.4,360.5,267.5,358.7,268.3 M328.5,261.6
		c-1.5,2.5-0.4,5.5-0.5,8.3c1.6,0.2,3.3,0.4,4.9,0.8c1.9-1.8,4-3.4,6.4-4.5c-2.5-2.5-3.7-5.9-4.1-9.3
		C332.3,257.4,329.5,258.9,328.5,261.6 M160.3,252.8c-1,0.5-1.6,1.6-1.9,2.7c-0.6,2.3,1.7,4.8,4,4.2c2.2-0.3,3.7-3.1,2.7-5.1
		C164.5,252.5,162,251.9,160.3,252.8 M188.1,248.5c-1.3,2.3-2.7,4.5-4.7,6.2c3.1,1.6,5.2,4.6,6.8,7.6c2.6-1.3,4.7-4,4.9-7
		c0.5-2.8-1.7-5-2.1-7.6C191.4,248.1,189.7,248.4,188.1,248.5 M359,240.9c0.2,2.3,2.9,3.9,4.9,2.7c1.9-0.6,2.2-2.8,2.1-4.6
		c-0.7-0.9-1.4-1.9-2.6-2.2C361.1,235.9,358.5,238.5,359,240.9 M329.3,240.5c-0.6,2.9,1.5,5.4,2,8.1c1.7-0.3,3.3-0.7,5-0.8
		c1.2-2.4,2.6-4.6,4.7-6.3c-3.1-1.6-5.3-4.5-6.9-7.6C331.7,235.2,329.6,237.6,329.3,240.5 M191.5,225.6c-1.9,1.8-3.9,3.4-6.2,4.5
		c2.3,2.5,3.6,5.9,4,9.3c3.2-0.4,6.1-2.7,7.2-5.7c0.7-2.4-0.1-4.9,0-7.4C194.8,226.2,193.1,226.1,191.5,225.6 M163.5,221.1
		c-2.8,0.7-3.8,4.8-1.3,6.5c2.4,1.9,6.3-0.5,5.8-3.5C167.7,222,165.5,220.5,163.5,221.1 M323.9,221.1c0.7,2.5,2.9,3.9,4.3,6
		c1.4-0.8,2.8-1.6,4.4-2.2c0.4-2.6,1.2-5.1,2.6-7.4c-3.5-0.5-6.5-2.5-8.9-5.1C324,214.6,322.9,218,323.9,221.1 M353.7,206.3
		c-2.3,1.1-2.8,4.6-0.8,6.2c1.9,2.1,5.6,0.2,5.7-2.4C359.1,207.5,356.1,205.2,353.7,206.3 M201.9,204.9c-2.3,1.1-4.8,2-7.4,2.3
		c1.5,3.1,1.7,6.8,1,10.1c3.7,0.8,7.9-1.2,9.3-4.7c0.8-1.8,0.7-3.8,1.6-5.5C204.9,206.4,203.3,205.8,201.9,204.9 M313.2,204.2
		c1.5,1.5,3.6,2.2,5.2,3.6c1.1-1.2,2.3-2.4,3.5-3.4c-0.2-2.6-0.3-5.2,0-7.8c-3.4,0.3-6.9-0.4-9.8-2.2
		C310.4,197.5,310.7,201.5,313.2,204.2 M175.7,192c-2.5,0.6-3.8,3.9-2.1,5.9c1.7,2.4,5.8,1.2,6.2-1.6
		C180.7,193.9,178.1,191.3,175.7,192 M210.5,188.3c0.4,3.4-0.6,6.8-2.1,9.9c3,1.9,7.2,1.4,9.8-1.1c1.4-1.5,2.2-3.5,3.5-5.1
		c-1.2-1.1-2.5-2.3-3.5-3.6C215.7,188.7,213.1,188.7,210.5,188.3 M266.5,186.1c-1.7,1.7-4,2.4-6.2,3.2c-4.4,1.4-9.1,0.5-13.2-1.4
		c-1.3,2.3-3.5,3.9-5.6,5.3c-3.5,2.4-8.1,3.1-12.3,2.1c-0.2,0.9-0.3,1.9-0.8,2.8c-1.7,2.9-3.6,5.8-6.6,7.5c-2.2,1.4-4.7,2.2-7.3,2.6
		c0.5,6.9-3.7,13.8-10,16.6c1.5,3.4,1.1,7.3,0.6,10.9c-0.9,3.1-2.8,5.8-5,8.1c1.7,1.7,2.4,4.1,3.2,6.3c1.3,4.3,0.5,9.1-1.5,13.1
		c3,1.8,5.1,4.9,6.7,8c1.2,3.1,1.3,6.6,0.9,9.9c1.9,0.2,3.5,1.3,5,2.3c2,1.4,4,3,5.2,5.2c1.4,2.1,2.1,4.6,2.5,7.1
		c3.4-0.3,6.8,0.8,9.8,2.4c3,1.8,5.2,4.5,6.8,7.6c2.3-1,4.8-1,7.3-1c4.4,0.1,8.6,2.3,11.6,5.4c2.7-2.3,6.3-3.3,9.7-3.9
		c3.3-0.1,6.8,0.6,9.7,2.2c1.1-2,2.9-3.4,4.7-4.8c3.8-2.8,8.8-3.6,13.4-2.8c0.2-2.9,2.3-5.2,4-7.4c2.5-3.2,6.6-4.6,10.5-5.4
		c-0.2-3.5,1-7,2.6-10.1c1.8-2.8,4.5-5,7.4-6.5c-1-2.2-1-4.6-1-7c0-4.5,2.3-8.8,5.4-12c-2.5-2.6-3.2-6.4-3.8-9.8
		c0-3.3,0.6-6.7,2.3-9.7c-2.2-1-3.8-3-5.1-5c-2.5-3.7-3.2-8.4-2.5-12.8c-3.6-0.8-6.6-3.3-9.1-5.8c-1.8-2.7-3.3-5.5-3.7-8.8
		c-6.9,0.2-13.9-3.8-16.6-10.2c-2.3,1.2-5,1.2-7.6,1.2C273.5,191.5,269.5,189.2,266.5,186.1 M292.9,181.5c-0.3,2.9,0.4,6.1,2.8,8
		c2,1.9,4.9,2,7.5,2.8c0.7-1.5,1.4-3.1,2.3-4.5c-1.2-2.3-2-4.8-2.4-7.4C300,182,296.3,182.1,292.9,181.5 M337.4,179.4
		c-2.7,0.9-2.9,5.1-0.4,6.5c2.1,1.7,5.6-0.4,5.3-3C342.3,180.5,339.7,178.3,337.4,179.4 M231.5,175.3c-0.6,3.4-2.7,6.3-5.1,8.7
		c1.6,1.9,4.2,2.7,6.6,2.8c3.4,0,5.5-3,8.1-4.7c-0.8-1.4-1.7-2.9-2.3-4.5C236.4,177.2,233.9,176.5,231.5,175.3 M270.9,175.2
		c0.4,3.7,3.4,6.9,7,7.5c2,0.2,4-0.4,6-0.3c0.2-1.6,0.4-3.3,0.8-4.8c-1.8-1.9-3.4-4-4.6-6.3C277.7,173.6,274.3,174.8,270.9,175.2
		 M248,176.2c1.3,2.6,3.8,4.6,6.7,4.9c2.8,0.4,5.1-1.5,7.7-2.1c-0.2-1.6-0.5-3.2-0.6-4.8c-2.3-1.3-4.5-2.8-6.4-4.7
		C253.9,172.5,251,174.5,248,176.2 M196.1,168.1c-1.2,0.4-2.3,1.1-2.7,2.3c-0.7,1.7,0.2,3.7,1.9,4.4c2.2,1.1,5.2-0.8,5.2-3.3
		C200.6,169.4,198.1,167.6,196.1,168.1 M313.4,159c-1.8,0.6-2.8,2.9-1.9,4.6c0.6,1.6,2.3,2.6,4,2.3c1.6-0.2,2.8-1.9,2.8-3.4
		C318.4,160.1,315.7,158,313.4,159 M222.8,151.7c-2.3,0.5-3.7,3.6-2.1,5.5c1.5,2.4,5.3,1.8,6.4-0.7
		C228.4,154,225.4,150.8,222.8,151.7 M284.4,146.9c-1.3,0.6-2.4,1.9-2.4,3.4c0,1.3,0.8,2.5,1.9,3.1c2,1.4,5.3-0.1,5.3-2.6
		C289.6,148.3,286.8,145.9,284.4,146.9 M251.1,149.4c0.5,1.3,2.1,1.6,3.3,2.1c1.2-0.5,2.7-0.8,3.2-2.1c1.2-2.1-0.5-4.9-2.8-5.1
		C252,143.7,249.6,147.1,251.1,149.4 M245.1,139.3c4.4-4.9,13-5.3,17.8-0.7c2.8,2.5,4.3,6.3,4.1,10c-0.3,4.3-2.9,8-6.5,10.3
		c0.4,2.4,1.4,4.9,3.6,6.1c4.6,3.5,12.5,0.5,13-5.4c-2.5-2.4-4.2-5.8-4-9.3c-0.1-4.6,2.7-9.1,6.8-11.2c3.6-2,8.2-1.7,11.8,0.2
		c6.7,3.1,8.8,12.9,4.1,18.5c-1.8,2.6-4.7,4.1-7.7,4.9c-0.2,2-0.2,4.1,0.9,5.9c1.7,2.8,5.1,4.7,8.4,4.2c2.7-0.3,5.4-1.8,6.5-4.3
		c-1.8-3-2.2-6.8-1.1-10.1c0.9-3.5,3.6-6.2,6.9-7.6c6.3-2.9,14.5,0.7,16.9,7.2c1.4,4.2,0.7,9.2-2.3,12.6c-1.4,1.3-2.9,2.9-4.8,3.4
		c-2,0.9-4.2,0.9-6.3,1c-0.5,1.3-1.3,2.5-1.3,3.9c0,3.9,2.8,7.6,6.6,8.6c2.7,0.7,5.8-0.1,7.8-2.1c-0.7-4.1,0.3-8.7,3.5-11.6
		c4.7-4.9,13.7-4.7,18,0.6c1.6,1.9,3,4.1,3.2,6.6c0.2,2.1,0.2,4.3-0.5,6.2c-1.5,4.5-5.9,7.8-10.7,8c-2.3,0.5-4.4-0.4-6.6-1
		c-1,1.2-2.1,2.4-2.6,4c-0.8,3.1,0.3,6.5,2.7,8.6c2.5,2.2,6.3,2.9,9.2,1.3c0.4-4.7,3.7-9.2,8.3-10.6c5.8-2.1,13,1,15.3,6.7
		c1,2.4,1.6,5,1.1,7.5c-0.7,4.7-4.4,8.8-8.9,10c-2.8,0.5-5.9,0.6-8.6-0.7c-1.2-0.7-2.4-1.5-3.5-2.3c-1.3,0.9-2.8,1.7-3.7,3.1
		c-1.2,2-1.8,4.4-1.1,6.7c1,4,5.1,7.1,9.2,6.4c1.7-3.4,4.8-6.2,8.6-7.1c3.8-0.9,8,0.2,11,2.6c1.7,1.6,3.1,3.6,3.9,5.8
		c0.5,3.5,0.8,7.5-1.3,10.6c-2.1,3.5-6.2,5.7-10.2,6c-4.7,0.1-9.1-2.6-11.6-6.5c-2.8,0.3-5.6,1.9-6.7,4.7c-2.6,4.7,0.6,11.3,6,12
		c3.9-4.6,11.4-5.5,16.4-2c3.7,2.4,5.7,7,5.3,11.3c-0.4,2.9-1.3,5.8-3.3,7.9c-2.9,3-7.4,4.4-11.6,3.7c-3-0.4-5.5-2.4-7.4-4.7
		c-1.4-1.5-1.9-3.5-2.6-5.4c-4-1-8.3,1.5-9.6,5.4c-1.5,3.7,0.1,8.5,3.7,10.3c3-1.6,6.5-2.2,9.7-1.2c4.3,1.1,7.8,4.8,8.8,9.2
		c0.4,2.9,0.4,6.2-1.2,8.7c-1.7,2.9-4.3,5.5-7.6,6.4c-4.7,1.1-10.3-0.1-13.2-4.2c-2.2-2.6-2.8-6.1-2.8-9.5c-2-0.9-4.4-1.7-6.6-0.8
		c-3.5,1-6,4.4-6.2,8c0,2.2,0.8,4.3,2.3,5.9c4.2-0.8,8.6,0.5,11.6,3.4c1.9,2.2,3.5,4.9,3.5,7.9c0.2,3.6-1,7.4-3.8,9.9
		c-2.6,2.5-6.2,4.1-9.9,3.7c-3.7-0.2-7-2.3-9.2-5.1c-2.5-3.7-2.7-8.6-1.2-12.8c-1.1-1.1-2.4-2.1-3.9-2.5c-4.8-1.4-10.3,2.4-10.8,7.4
		c-0.3,1.5,0.2,3.1,0.8,4.5c3.5,0.4,6.9,2.2,8.8,5.1c2.7,3.7,3.1,9,1,13c-2.9,6-11,8.5-16.9,5.6c-4-2.1-7.1-6.4-6.8-11.1
		c-0.1-3.3,1.2-6.4,3.3-8.9c-1.2-2.5-3.4-4.5-6.3-4.9c-5.3-1.1-10.8,3.9-9.9,9.4c4.2,1.9,7.4,6.1,7.5,10.8c0.6,5.9-4,11.6-9.7,12.9
		c-3.5,0.6-7.5,0.3-10.4-2c-3.5-2.4-5.5-6.7-5.2-10.9c0.2-4.3,2.9-8.1,6.5-10.3c-0.3-2.5-1.6-4.9-3.8-6.3c-2.1-1.2-4.7-1.8-7-0.9
		c-3,0.8-5.4,3.4-6,6.4c2.7,2.6,4.5,6.3,4.2,10.2c-0.3,3.6-2,7.3-5.2,9.4c-3,2-6.8,3-10.3,1.9c-4-0.8-7.4-3.6-8.9-7.3
		c-1.4-3.7-1.3-8.1,1.1-11.4c1.8-3,5-4.9,8.3-5.8c0.1-1.9,0.3-4.1-0.9-5.8c-2-3.7-6.8-5.4-10.7-3.9c-1.8,0.7-3.3,2.1-4.2,3.7
		c1.9,3.6,2.3,8.2,0.4,11.9c-1.6,2.8-3.9,5.2-7,6.2c-3.8,1.3-8.3,0.8-11.5-1.7c-5.4-3.2-6.9-10.8-4-16.1c2.3-4.7,7.8-6.9,12.8-6.6
		c0.5-1.4,1.2-2.9,1.1-4.4c0-3.8-3.1-7.3-6.8-8.1c-2.6-0.7-5.5,0.2-7.5,2c0.6,3.7-0.1,7.8-2.6,10.7c-2.6,3.4-7,5.1-11.2,4.6
		c-2.1-0.4-4.1-1.2-5.9-2.3c-2.6-2.2-4.8-5.1-5.2-8.5c-0.7-5,1.8-10.4,6.4-12.8c3.5-1.9,7.7-1.8,11.4-0.4c1.9-1.9,3.3-4.5,2.8-7.2
		c-0.5-5.5-7.1-9.4-12-6.8c-0.4,3.9-2.8,7.5-6.1,9.5c-3.5,2-8.1,2.4-11.7,0.5c-1.8-1-3.5-2.3-4.8-3.9c-1.4-2.4-2.4-5.1-2.5-7.9
		c0-5.1,3.6-9.9,8.4-11.5c4.4-1.5,9.3-0.2,12.9,2.6c3.3-1.5,5.4-5.1,4.8-8.7c-0.4-4.5-4.9-8.3-9.5-7.4c-1.4,2.9-3.7,5.4-6.7,6.5
		c-3.7,1.4-8.3,1.2-11.5-1.2c-3.4-2.3-5.6-6.2-5.5-10.3c-0.5-5.7,3.8-11.3,9.4-12.6c4-1,8.5,0.1,11.5,2.9c1,1,1.9,2.1,2.7,3.2
		c3.7-0.4,7-3.4,7.3-7.1c0.8-4.2-2.2-9-6.6-9.5c-1.7,1.2-3.3,2.8-5.4,3.3c-4.4,1.5-9.6,0.5-12.8-2.8c-5.6-5.1-4.6-15.2,1.5-19.4
		c5-3.8,12.9-2.8,16.8,2.1c1.4,1.7,2.3,3.8,2.9,5.9c1.6,0,3.2,0.3,4.7-0.3c2.6-1,4.6-3.3,5.3-6c1-3.6-0.7-7.8-4.1-9.5
		c-3.4,1.9-7.8,2.2-11.4,0.7c-4.1-1.9-7.1-6.1-7.2-10.6c-0.1-2.1-0.1-4.5,1.1-6.3c1.5-2.6,3.5-5.2,6.4-6.3c4.2-1.8,9.5-1.2,13,1.9
		c1.6,1.5,2.9,3.4,3.7,5.4c0.9,1.8,0.6,3.9,0.7,5.8c1.9,0.9,4.1,1.6,6.2,0.9c4.5-1,7.5-6.1,6.3-10.6c-0.4-1.3-1.1-2.4-2-3.5
		c-3.3,0.5-6.8,0.1-9.5-1.8c-3.4-2.1-5.6-6.1-5.6-10.1c-0.5-7.4,6.9-14.1,14.2-13c3.8,0.5,7.4,2.7,9.3,6.1c1.9,3.6,2,8,0.6,11.8
		c1.1,1,2.2,2.1,3.7,2.5c4.6,1.5,9.9-1.7,10.9-6.4c0.5-1.8,0.2-3.7-0.7-5.4c-4.4-0.4-8.3-3.4-10.1-7.4c-1.4-3.1-1.3-6.7-0.2-9.8
		c1-2,2.5-3.8,4.1-5.3c3-2,6.6-3,10.2-2.4c3.5,0.8,6.6,2.9,8.4,6c1.6,2.3,1.8,5.2,1.6,7.9c-0.4,2.6-1.7,5-3.2,7.1
		c0.9,1.5,1.8,3.1,3.5,3.9c1.6,0.8,3.4,1.3,5.2,1c4.4-0.5,8.3-4.9,7.5-9.4c-3.9-1.6-6.6-5.3-7.4-9.4
		C241.4,146.1,242.4,142,245.1,139.3"/>
	<path class="st1" d="M368.5,137.7c2.4-1,5.5,0.3,6.1,2.9c0.7,2.4-1.2,4.5-1.4,6.8c0,2.3,0.7,4.7,2.4,6.4c2.1,1.7,4.8,3,7.5,2.2
		c1.7-0.5,3.9-0.6,5.2,0.9c2.3,2.1,1.5,6.4-1.4,7.5c-3.5,1-7.2,1.1-10.7,0c-2.6-0.7-4.8-2.5-6.9-4c-3.3-3.4-5.1-8.1-5.1-12.9
		c-0.2-2.4,0.9-4.6,1.6-6.8C366.4,139.3,367.3,138.2,368.5,137.7z"/>
	<path class="st0" d="M144.7,143.7c2.6-1.3,6.2,0.5,6.4,3.5c0.5,2.5-1.7,5.2-4.3,5.1c-2.4,0.2-4.7-1.8-4.7-4.2
		C142,146.2,143.1,144.5,144.7,143.7z"/>
	<path class="st1" d="M198.9,143.6c2.7-1.2,6.2,0.9,6.2,3.9c0.3,2.5-2,5-4.6,4.8c-2.7,0.1-4.9-2.6-4.4-5.3
		C196.3,145.5,197.5,144.2,198.9,143.6z"/>
	<path class="st1" d="M139.5,153.8c1.8-0.4,3.9,0.3,4.9,1.9c2.5,4,3.6,9.1,2.3,13.7c-0.4,1.4-0.7,2.9-1.3,4.2
		c-2.4,3.7-5.8,6.9-10,8.2c-2.5,1-5.2,0.7-7.8,0.5c-2.3,0-4.2-2.1-4.2-4.4c-0.1-2,1.4-4,3.3-4.4c2.1-0.3,4.4,0.5,6.4-0.4
		c2.3-1,4.4-3,4.9-5.6c0.8-2.3,0.2-4.9-1.2-6.8C135,158.2,136.5,154.3,139.5,153.8z"/>
	<path class="st1" d="M337.1,154.2c1.6-0.4,3.4,0.1,4.5,1.4c1.7,1.8,1.4,5.1-0.6,6.6c-2.1,1.7-5.5,1-6.7-1.4
		C332.9,158.4,334.3,154.8,337.1,154.2z"/>
	<path class="st0" d="M391,165.5c2.8-1.5,6.6,0.7,6.5,3.9c0.2,2.5-2,4.8-4.4,4.7c-2.5,0.2-4.8-2.2-4.5-4.7
		C388.5,167.7,389.6,166.2,391,165.5z"/>
	<path class="st1" d="M170.7,167.6c2.6-1.2,5.9,0.6,6.3,3.4c0.5,2.5-1.5,5.2-4.1,5.2c-2.5,0.3-4.8-1.9-4.8-4.3
		C167.8,170.1,169,168.4,170.7,167.6z"/>
	<path class="st1" d="M396.5,176.3c2.7-0.9,5.9,1.4,5.8,4.3c0.1,3.2-3.6,4.8-3.8,7.9c-0.9,4.7,3.1,9.7,7.9,9.4
		c2.3-0.1,4.5,2,4.5,4.4c0.3,2.5-2,4.9-4.5,4.7c-4-0.2-8-1.5-11-4.2c-1.8-1.6-3.3-3.5-4.4-5.5c-2.3-5.5-2.3-12.5,1.7-17.3
		C393.7,178.6,394.6,176.7,396.5,176.3z"/>
	<path class="st1" d="M360.8,182c2.7-1,5.9,1,6,3.9c0.4,2.6-2.1,5.2-4.8,4.9c-2.6,0-4.7-2.8-4.1-5.3
		C358,183.9,359.3,182.5,360.8,182z"/>
	<path class="st0" d="M119.8,183.8c2.7-1,5.9,1,6,3.9c0.4,2.7-2.1,5.2-4.8,4.9c-2.6,0-4.7-2.8-4.1-5.3
		C117.1,185.7,118.3,184.3,119.8,183.8z"/>
	<path class="st1" d="M262.9,190.6c2.7-1,6,1,6,4c0.3,2.4-1.9,4.8-4.3,4.8c-2.4,0.2-4.7-1.9-4.7-4.3
		C259.7,193.1,261.1,191.3,262.9,190.6z"/>
	<path class="st1" d="M246.4,192.3c3-1.4,6.8,1.5,6.2,4.8c-0.2,3.4-4.6,5.1-7.2,3.1C242.6,198.2,243.2,193.4,246.4,192.3z"/>
	<path class="st1" d="M279.3,194c2.9-1.1,6.4,1.5,5.9,4.7c-0.1,3.6-4.8,5.4-7.4,3.1C275.1,199.7,276,194.9,279.3,194z"/>
	<path class="st1" d="M117.2,195.8c2-0.7,4.1,0.3,5.4,1.9c3.6,3.4,5.6,8.3,5.4,13.2c0,4.9-2.5,9.4-6.1,12.6
		c-2.5,2.2-5.8,3.2-8.9,3.9c-3.4,0.6-6-3.4-4.5-6.4c1.5-3.3,6.1-2.2,8.2-4.9c2.9-2.8,3.2-7.8,0.6-10.8c-1-1.2-2.7-2-3.1-3.7
		C113.4,199.2,114.8,196.5,117.2,195.8z"/>
	<path class="st1" d="M151.7,198.6c3-1.4,6.8,1.4,6.2,4.8c-0.2,3.4-4.7,5.2-7.2,3.1C147.9,204.5,148.5,199.7,151.7,198.6z"/>
	<path class="st1" d="M231.2,199c3-1.2,6.5,1.6,6,4.8c-0.2,3.4-4.7,5.3-7.3,3.1C227.1,204.9,227.9,200,231.2,199z"/>
	<path class="st1" d="M293.7,202.2c3-1.1,6.4,1.5,6,4.7c-0.1,3.6-4.8,5.4-7.4,3.1C289.6,207.9,290.5,203.1,293.7,202.2z"/>
	<path class="st2" d="M288.8,258.7C289,258.9,289,258.9,288.8,258.7 M259.7,234.5c-1.2,0.9-2.6,1.2-4.1,1.3c-0.9,1.2-2,2.2-3.5,2.6
		c-0.4,1.5-1.3,2.8-2.6,3.7c0,1.5-0.3,2.9-1.2,4.1c0.5,1.5,0.5,3,0,4.5c0.9,1.1,1.4,2.5,1.4,4c1.3,0.9,2.3,2.1,2.6,3.6
		c1.6,0.3,2.8,1.3,3.7,2.5c1.5,0,2.9,0.4,4.1,1.3c1.4-0.4,3-0.5,4.4,0c1.1-1,2.5-1.5,4-1.4c0.9-1.3,2.1-2.3,3.6-2.6
		c0.3-1.5,1.3-2.6,2.4-3.5c0-1.5,0.3-3,1.3-4.2c-0.4-1.4-0.4-2.9,0-4.3c-1-1.2-1.4-2.7-1.4-4.2c-1.3-0.8-2.2-2-2.7-3.4
		c-1.4-0.5-2.7-1.3-3.5-2.5c-1.5,0-3-0.3-4.2-1.3C262.7,234.9,261.1,234.9,259.7,234.5 M240,229.8
		C240.1,229.9,240.1,229.9,240,229.8 M280.3,226.1C280.4,226.2,280.4,226.2,280.3,226.1 M272.5,221.5
		C272.7,221.8,272.7,221.8,272.5,221.5 M259,204c2.5-1.3,5.9,0.2,6.5,3c0.5,1.9-0.8,3.5-1.1,5.4c-0.3,2.5-0.6,5-0.5,7.5
		c1.1-3.9,2.7-7.8,4.8-11.3c1.1-1.6,2.5-3.6,4.7-3.5c2.5-0.2,4.9,2.1,4.7,4.6c0.1,1.6-1.1,2.8-1.9,4.1c-1.4,2.4-2.4,5-3.3,7.6
		c2.2-3,4.6-5.9,7.4-8.5c1.6-1.2,3.3-2.7,5.5-2.3c2.7,0.3,4.5,3.3,3.6,5.9c-0.4,1.7-2.2,2.5-3.4,3.4c-1.8,1.5-3.2,3.5-4.9,5.2
		c0.2,0.2,0.3,0.3,0.5,0.5c1.6-1.6,3.6-2.6,5.5-3.7c2.4-1.3,5-2.8,7.8-2.7c3.2,0.3,5,4.5,3,7.1c-1.1,1.8-3.4,1.8-5.1,2.7
		c-2.4,1.3-4.6,2.7-6.9,4.2c3.7-1.6,7.7-2.4,11.6-3c2,0,4.3-0.3,5.9,1.2c2,1.8,1.9,5.3-0.3,6.9c-1.5,1.3-3.6,0.7-5.4,0.9
		c-2.9,0.4-5.6,1.3-8.4,2c5.1-0.2,10.4,0,15.3,1.8c2.7,1.1,3.4,5.1,1.4,7.2c-1.3,1.5-3.6,1.7-5.4,1c-3.1-1.2-6.5-1.1-9.8-1.1
		c3.9,0.7,7.5,2.5,11,4.4c1.6,1.3,3.8,2.7,3.7,5c0.2,2.5-2.1,4.9-4.7,4.7c-1.8,0.1-2.9-1.3-4.2-2.2c-2.2-1.4-4.7-2.2-7.1-3.1
		c3.7,3.1,7.9,6,10.3,10.3c0.8,1.8,0.3,4.1-1.2,5.3c-1.9,1.6-5.2,1.4-6.5-0.8c-1.9-3-4.9-5.1-7.6-7.3c2.9,4.3,6.5,8.6,7,14
		c0.2,3.5-4.5,5.7-7.2,3.5c-1.8-1.2-1.6-3.5-2.5-5.2c-1.1-2-2.3-3.9-3.7-5.7c1,4.5,2.8,9.1,2.2,13.9c-0.1,2.2-2.2,4-4.4,3.9
		c-2.4,0.2-4.7-2-4.5-4.4c0.3-3.4-0.8-6.7-1.7-9.9c-0.2,4.7-0.2,9.7-2.2,14.1c-1.2,2.7-5.1,3.3-7.1,1.3c-1.5-1.3-1.8-3.5-1-5.2
		c1.3-3.3,1.1-6.9,1.4-10.4c-1.4,4.8-3.1,9.7-6.3,13.6c-1.6,2.1-5,2.2-6.8,0.2c-1.6-1.6-1.6-4.5,0-6.1c2.2-2.6,3.1-6,4.3-9.1
		c-2.9,4.1-6.1,8.1-10.3,10.8c-2.7,1.4-6.4-0.7-6.4-3.7c-0.3-1.8,0.9-3.5,2.4-4.4c2.3-1.5,3.8-3.8,5.8-5.7c-0.2-0.2-0.4-0.3-0.6-0.5
		c-2.5,2.1-5.4,3.6-8.3,5c-2,0.7-4.5,1.6-6.5,0.3c-2.3-1.4-2.7-4.9-0.9-6.8c1.1-1.3,2.9-1.3,4.4-2c2.4-1.1,4.5-2.6,6.7-4
		c-4.6,1.3-9.3,2.8-14.1,2.5c-2.3,0-4.3-2.2-4.2-4.4c-0.1-2.3,1.9-4.5,4.2-4.5c3.5,0.1,6.8-0.9,10.1-1.7c-4.8-0.4-9.8-0.2-14.3-2.3
		c-2.5-1.2-3.2-4.9-1.3-6.9c1.2-1.5,3.3-1.9,5-1.2c3.5,1.4,7.4,1.3,11.1,1.5c-5.1-1.2-10.2-3.2-14.2-6.6c-2.7-2.4-0.9-7.4,2.7-7.6
		c2.5-0.5,4,1.8,6,2.7c1.9,1,3.9,1.8,6,2.4c-3.5-2.9-7.3-5.6-9.7-9.5c-1.2-1.8-0.9-4.4,0.7-5.8c1.9-1.8,5.5-1.4,6.8,0.9
		c1.5,2.6,4.1,4.2,6.1,6.3c0.2-0.2,0.4-0.4,0.6-0.5c-1.6-1.4-2.5-3.4-3.6-5.2c-1.3-2.5-2.9-5.1-2.7-8c0.4-3.1,4.4-4.8,7-3
		c1.6,0.9,1.8,2.8,2.4,4.4c1.2,2.7,2.8,5.1,4.5,7.5c-1.5-3.7-2.5-7.6-2.9-11.6c0-1.9-0.2-4.2,1.3-5.7c1.8-2,5.4-1.8,6.9,0.4
		c1.3,1.5,0.6,3.5,0.8,5.3c0.3,2.8,1.2,5.4,1.9,8.1c-0.2-4.1,0.2-8.1,0.9-12.1C256.5,207,257.1,204.9,259,204"/>
	<path class="st0" d="M409.3,209.8c2.6-1.2,6.1,0.6,6.3,3.5c0.5,2.5-1.6,5.1-4.2,5.1c-2.4,0.3-4.7-1.8-4.8-4.2
		C406.5,212.3,407.6,210.5,409.3,209.8z"/>
	<path class="st1" d="M218.7,210.4c2.9-1.3,6.5,1.1,6.3,4.3c0.2,3.5-4.2,5.7-7,3.7C215,216.6,215.4,211.6,218.7,210.4z"/>
	<path class="st1" d="M304.6,214.8c2.6-1.2,6.1,0.6,6.4,3.5c0.5,2.5-1.6,5.1-4.2,5.1c-2.4,0.3-4.8-1.8-4.8-4.2
		C301.8,217.3,303,215.5,304.6,214.8z"/>
	<path class="st1" d="M375.1,216.3c1.5-0.3,3.2,0,4.3,1.2c1.8,1.7,1.8,5-0.2,6.6c-1.9,1.8-5.5,1.4-6.8-0.9
		C370.8,220.7,372.2,216.9,375.1,216.3z"/>
	<path class="st1" d="M410.8,221.9c2.9-1.1,6.4,1.5,5.9,4.6c0,2.2-1.9,3.4-3.6,4.4c-2.6,1.4-3.8,4.6-3.7,7.4c0.3,3,2.3,5.8,5.2,6.8
		c1.9,0.6,3.5,2.4,3.3,4.5c0.2,3-3.1,5.3-5.9,4.3c-3.8-1.6-7.3-4.2-9.3-7.8c-1.3-2.6-2.4-5.4-2.3-8.3c0.1-4.5,1.7-9.1,4.9-12.3
		C407.2,224.2,408.9,222.8,410.8,221.9z"/>
	<path class="st1" d="M210.6,225.1c2.7-1.2,6.2,0.8,6.2,3.8c0.3,2.6-2,5-4.6,4.8c-2.3,0.1-4.5-2-4.4-4.3
		C207.7,227.6,208.9,225.8,210.6,225.1z"/>
	<path class="st1" d="M311.9,229.6c2.7-1,5.9,1,6,3.9c0.4,2.7-2.1,5.2-4.8,4.9c-2.6,0-4.7-2.8-4.1-5.3
		C309.1,231.4,310.4,230.1,311.9,229.6z"/>
	<path class="st0" d="M107.5,230.7c2.6-1.4,6.2,0.4,6.5,3.4c0.5,2.6-1.7,5.2-4.4,5.1c-2.3,0.2-4.5-1.8-4.6-4.2
		C104.8,233.3,105.9,231.5,107.5,230.7z"/>
	<path class="st1" d="M143.6,234.9c3.1-1,6.4,2,5.6,5.2c-0.4,3.4-5.1,4.9-7.5,2.5C139.2,240.5,140.3,235.7,143.6,234.9z"/>
	<path class="st1" d="M207.1,241.2c3-1.2,6.6,1.6,6,4.8c-0.2,3.5-4.9,5.2-7.4,2.9C203.1,246.9,203.9,242.2,207.1,241.2z"/>
	<path class="st1" d="M109.5,242.6c2-0.7,3.9,0.7,5.7,1.5c2.3,1.2,4.1,3.2,5.6,5.2c1.3,1.6,1.8,3.6,2.4,5.4c0.7,1.8,0.5,3.8,0.4,5.7
		c-0.1,2.8-1.3,5.5-2.7,7.9c-1.6,2.8-4.4,4.5-7,6.2c-3,1.6-6.9-1.3-6.3-4.6c0.2-3,3.4-3.8,5.2-5.6c1.8-2.2,2.6-5.3,1.5-8
		c-0.7-2.5-2.9-4.4-5.3-5.1c-2.3-0.8-3.4-3.6-2.5-5.8C107,244.1,108.1,243,109.5,242.6z"/>
	<path class="st1" d="M313.1,246.5c2.6-1.3,6.2,0.5,6.5,3.5c0.5,2.5-1.7,5.2-4.3,5.1c-2.4,0.2-4.6-1.8-4.6-4.2
		C310.5,249.1,311.5,247.3,313.1,246.5z"/>
	<path class="st1" d="M377.9,253.1c2.6-0.9,5.7,1.1,5.8,3.8c0.4,2.6-2,5.3-4.7,5c-2.7,0-4.9-2.8-4.2-5.4
		C375.1,254.9,376.4,253.5,377.9,253.1z"/>
	<path class="st0" d="M412.9,257.2c2.7-1,5.9,1,6,3.9c0.3,2.7-2.1,5.2-4.8,4.9c-2.6,0-4.7-2.8-4.1-5.3
		C410.2,259,411.4,257.7,412.9,257.2z"/>
	<path class="st1" d="M208.4,258.1c2.9-1.6,7,1,6.5,4.4c0,3.5-4.6,5.5-7.3,3.3C205.1,263.9,205.5,259.4,208.4,258.1z"/>
	<path class="st1" d="M310.1,262.8c2.6-1.2,6.1,0.6,6.3,3.5c0.4,2.5-1.6,5.1-4.2,5.1c-2.4,0.3-4.8-1.8-4.8-4.2
		C307.3,265.3,308.4,263.5,310.1,262.8z"/>
	<path class="st1" d="M409.7,269.3c2-0.8,4.4-0.2,5.6,1.7c1.2,1.9,0.8,4.7-1,6c-2,1.4-4.8,1.1-6.5,2.9c-3.8,3.1-3.8,9.8,0.4,12.6
		c2.2,1.4,2.6,4.9,0.8,6.8c-1.4,1.6-3.9,1.9-5.7,0.9c-3.7-2.8-6.5-7-7-11.7c-0.8-5,0.8-10.3,4.3-14c1.4-1.4,2.9-2.7,4.5-3.7
		C406.5,270.2,408.1,269.8,409.7,269.3z"/>
	<path class="st1" d="M146.1,271.5c2.9-1.1,6.4,1.5,5.9,4.7c-0.1,3.5-4.8,5.4-7.4,3.1C142,277.2,142.8,272.4,146.1,271.5z"/>
	<path class="st1" d="M216,272.9c2.8-1.3,6.5,1.1,6.2,4.3c0.2,3.4-4.2,5.7-7,3.7C212.3,279.2,212.7,274.1,216,272.9z"/>
	<path class="st1" d="M302.1,277c2.9-1.3,6.7,1.3,6.2,4.5c0,3.4-4.4,5.4-7.1,3.4C298.3,283.1,298.8,278.2,302.1,277z"/>
	<path class="st0" d="M111.4,277.9c3-1.3,6.7,1.5,6.1,4.8c-0.2,3.4-4.6,5.2-7.2,3C107.6,283.8,108.2,279,111.4,277.9z"/>
	<path class="st1" d="M227,285.1c3-1.2,6.6,1.5,6.1,4.8c-0.2,3.5-4.9,5.2-7.4,2.9C223.1,290.8,223.8,286.1,227,285.1z"/>
	<path class="st1" d="M290.3,288.4c3.1-1,6.4,2,5.7,5.2c-0.5,3.4-5.1,4.8-7.5,2.5C285.9,294,287,289.1,290.3,288.4z"/>
	<path class="st1" d="M369.4,288.9c2.6-0.9,5.8,1,5.9,3.8c0.4,2.7-2.1,5.3-4.8,5c-2.5,0-4.6-2.5-4.2-5
		C366.5,290.9,367.8,289.4,369.4,288.9z"/>
	<path class="st1" d="M115.7,289.3c1.7-0.8,3.6-0.2,5.4,0.2c3.1,0.7,6.2,2.2,8.4,4.6c1.7,2.1,3.6,4.1,4.2,6.7
		c1.3,5.1,1,11.1-2.5,15.3c-1.3,1.6-2.5,3.7-4.8,3.7c-2.5,0.3-4.9-1.9-4.8-4.4c-0.2-2.7,2.6-4,3.5-6.4c0.9-2.7,0.6-6-1.5-8
		c-1.4-2-3.9-2.9-6.3-2.9c-2.3-0.1-4.3-2.1-4.2-4.4C113,291.8,114.1,290,115.7,289.3z"/>
	<path class="st1" d="M242,293.8c2.5-0.7,5.4,1.2,5.6,3.9c0.4,2.6-1.8,5.1-4.4,5c-2.5,0.2-4.7-2.1-4.6-4.6
		C238.6,296.1,240.1,294.2,242,293.8z"/>
	<path class="st1" d="M274.2,295.4c2.6-1.3,6.2,0.5,6.4,3.5c0.4,2.5-1.7,5.1-4.3,5.1c-2.4,0.2-4.6-1.8-4.7-4.2
		C271.5,298,272.6,296.2,274.2,295.4z"/>
	<path class="st1" d="M257.8,296.9c2.9-1.2,6.5,1.3,6.1,4.4c0.1,3.6-4.7,5.7-7.3,3.3C253.9,302.7,254.6,297.9,257.8,296.9z"/>
	<path class="st0" d="M400.5,304.1c2.7-1.5,6.6,0.7,6.5,3.8c0.3,2.5-2,4.8-4.4,4.7c-2.5,0.2-4.8-2.2-4.6-4.7
		C398,306.3,399.1,304.8,400.5,304.1z"/>
	<path class="st1" d="M160.4,305.6c2.7-0.8,5.8,1.5,5.6,4.3c0.2,2.4-2,4.7-4.4,4.6c-2.5,0.2-4.7-2.1-4.5-4.6
		C157,307.9,158.5,306,160.4,305.6z"/>
	<path class="st1" d="M390.3,313.9c2.5-0.4,5.1-0.4,7.6,0c3.2,0.9,4.1,5.6,1.5,7.7c-1.9,1.8-4.8,0.6-7.1,1c-4.2,0.9-7.1,5.3-6.4,9.5
		c0.3,2.3,2.8,3.9,2.3,6.4c-0.2,3.5-5,5.2-7.5,2.9c-5.7-6.6-4.9-17.6,1.7-23.3C384.7,316.1,387.3,314.4,390.3,313.9z"/>
	<path class="st1" d="M350.1,320c2.9-1.3,6.6,1.2,6.2,4.4c0.1,3.5-4.4,5.6-7.1,3.5C346.3,326.1,346.8,321.2,350.1,320z"/>
	<path class="st0" d="M129.3,322.2c3-1.1,6.5,1.6,6,4.8c-0.1,3.5-4.7,5.3-7.3,3.1C125.2,328,126,323.2,129.3,322.2z"/>
	<path class="st1" d="M139.7,330.9c2.4-0.3,4.8-0.2,7.1,0.3c3,0.7,5.6,2.6,7.9,4.5c4.2,4.5,6.2,11.4,3.9,17.3
		c-0.6,1.6-1,3.6-2.6,4.6c-2.3,1.6-6,0.4-6.8-2.3c-0.8-2.5,1.1-4.6,1.4-7c0.2-4.1-3-8-7.1-8.6c-2.1-0.4-4.2,1-6.3,0.4
		c-1.7-0.6-3-2.2-3.1-4c-0.2-1.8,0.9-3.7,2.6-4.5C137.7,331.2,138.7,331.1,139.7,330.9z"/>
	<path class="st1" d="M184,333.1c3-1.2,6.6,1.5,6.1,4.8c-0.2,3.5-4.9,5.3-7.4,2.9C180.1,338.8,180.8,334.1,184,333.1z"/>
	<path class="st1" d="M321.9,344.3c2.6-1.2,6.1,0.5,6.3,3.5c0.5,2.5-1.6,5.1-4.2,5.1c-2.4,0.3-4.8-1.8-4.8-4.2
		C319.1,346.8,320.2,345.1,321.9,344.3z"/>
	<path class="st0" d="M375.6,344.2c2.7-1.1,6,0.9,6.1,3.8c0.3,2.5-1.9,5-4.4,4.9c-2.4,0.2-4.7-2-4.6-4.4
		C372.6,346.6,373.8,344.8,375.6,344.2z"/>
	<path class="st1" d="M360.3,350.5c3.5-0.4,6.8,0.8,9.9,2.2c2.9,1.6,2.7,6.4-0.3,7.8c-3.3,1.7-6.3-2-9.6-1c-2.7,0.6-5.2,2.5-6.2,5.1
		c-0.9,1.8-0.6,3.9-0.1,5.7c0.7,2.6-1.5,5.4-4.1,5.4c-2.1,0.2-4.2-1.3-4.7-3.4c-1-4.6-0.6-9.8,2-13.8
		C349.9,354,355,351.1,360.3,350.5z"/>
	<path class="st1" d="M215.5,352.7c2.9-1.4,6.7,1.2,6.3,4.5c0,3.4-4.4,5.4-7.1,3.4C211.8,358.7,212.3,353.8,215.5,352.7z"/>
	<path class="st1" d="M287.9,358.3c2.6-1.2,6,0.6,6.3,3.4c0.5,2.5-1.6,5.2-4.1,5.2c-2.5,0.3-4.8-1.8-4.8-4.3
		C285.1,360.8,286.3,359,287.9,358.3z"/>
	<path class="st0" d="M160,359.1c2.7-1,6,1,6,4c0.3,2.4-1.9,4.8-4.3,4.8c-2.4,0.2-4.7-1.9-4.7-4.3
		C156.9,361.6,158.2,359.8,160,359.1z"/>
	<path class="st1" d="M251.9,361.3c2.9-0.9,6.2,1.7,5.7,4.8c-0.1,3.6-5,5.4-7.5,2.9C247.4,366.9,248.5,362,251.9,361.3z"/>
	<path class="st1" d="M175.5,363.5c5-1.1,10.4,0.2,14.4,3.3c3.4,2.8,5.9,6.9,6.4,11.3c-0.2,2.5,0.6,5.5-1.2,7.5
		c-1.7,2.1-5.4,1.9-7-0.3c-1.9-2.4,0.2-5.7-1.3-8.2c-1.3-3.4-5.1-5.4-8.7-5.1c-2.4,0.2-3.9,2.7-6.4,2.4c-2.5-0.1-4.5-2.5-4.2-4.9
		c0-1.7,1.2-3.1,2.6-3.8C171.9,364.8,173.6,364,175.5,363.5z"/>
	<path class="st0" d="M338.8,374.8c2.9-1.2,6.5,1.3,6.1,4.4c0.1,3.6-4.7,5.7-7.3,3.3C335,380.6,335.7,375.9,338.8,374.8z"/>
	<path class="st1" d="M317.3,375.9c4.4-0.7,9.4-0.1,12.9,2.9c1.6,1.2,3.8,2.4,3.8,4.7c0.4,2.6-1.9,5.2-4.6,5c-3.1,0-4.6-3.7-7.7-3.8
		c-4.7-0.9-9.7,3.1-9.5,8c0.1,2.1-1.6,4-3.7,4.4c-2.3,0.5-4.9-1.1-5.3-3.4C302.5,385.2,309.1,377.1,317.3,375.9z"/>
	<path class="st1" d="M221,382.6c2.2-0.2,4.4-0.3,6.5-0.1c5,1.2,9.6,4.4,12,9c0.8,2.3,1.9,4.6,1.7,7c-0.4,3.1-4.5,4.8-7,2.9
		c-2.4-1.6-1.7-5-3.4-7c-1.7-2-4.2-3.5-6.9-3.2c-2.5,0-4.7,1.4-6.2,3.3c-1.5,2.1-4.9,2.3-6.7,0.5c-1.8-1.6-2-4.8-0.2-6.5
		c1.4-1.4,2.9-2.8,4.6-3.9C217.2,383.8,219.1,383.1,221,382.6z"/>
	<path class="st0" d="M200.7,384.3c3-1.3,6.8,1.5,6.1,4.8c-0.2,3.4-4.7,5.1-7.2,3C196.8,390.2,197.5,385.4,200.7,384.3z"/>
	<path class="st1" d="M269.4,386.6c4.1-0.9,8.5,0,12.2,2c1.8,1,3.5,2.3,4.5,4.1c1,1.8,2.8,3.4,2.6,5.6c0,2.9-3.2,4.9-5.9,4
		c-2.3-0.6-2.9-3.1-4.3-4.8c-3.7-3.9-11.3-2.6-13.2,2.6c-0.5,1.9-2.2,3.7-4.3,3.7c-2.9,0.4-5.4-2.6-4.8-5.3
		C258.2,392.5,263.3,387.8,269.4,386.6z"/>
	<path class="st0" d="M295,393c2.5-0.7,5.4,1.2,5.6,3.9c0.4,2.6-1.8,5.1-4.4,5c-2.5,0.2-4.7-2.1-4.5-4.6
		C291.6,395.3,293.1,393.4,295,393z"/>
	<path class="st0" d="M246.6,396.4c2.6-1.3,6.2,0.5,6.4,3.5c0.5,2.5-1.7,5.2-4.3,5.1c-2.4,0.2-4.6-1.8-4.7-4.2
		C243.9,399,245,397.2,246.6,396.4z"/>
	<path class="st3" d="M511,250c0-34.8,24.9-57.9,63-57.9c21.1,0,30,6.8,32.8,6.8c1.3,0,2.1-1.5,2.8-5.3h8.6v35.8h-10.6
		c-4.3-17.8-15.3-26.7-31.8-26.7c-23.1,0-36.8,18-36.8,47.4c0,31.3,12.7,48.3,36.3,48.3c20,0,31.2-9.4,35.5-31h10.6l-1.2,31.3
		c-14.4,6.9-29.4,10.2-45.5,10.2C534.9,308.9,511,287,511,250z"/>
	<path class="st3" d="M633.8,267.7c0-25.1,17.2-41.2,41.7-41.2c24.6,0,41.7,16.2,41.7,41.2c0,25.1-17.2,41.2-41.7,41.2
		C650.9,308.9,633.8,292.8,633.8,267.7z M691.5,270.2c0-16.2-4.6-33.8-16.7-33.8c-8.2,0-15.3,6.8-15.3,29c0,16.2,4.6,33.7,16.7,33.7
		C684.4,299,691.5,292.3,691.5,270.2z"/>
	<path class="st3" d="M803.2,290c0,7.9,1.5,9.7,8.6,10.4v6.3h-37.9v-6.3c6.4-0.7,7.9-2.6,7.9-10.4v-28.7c0-11.2-4-16.5-12.9-16.5
		c-4.8,0-9.1,1.5-12.4,4.3V290c0,8.1,1.2,9.6,9.1,10.4v6.3h-40.1v-6.3c7.9-0.8,9.6-2.3,9.6-10.4v-36.6c0-9.2-2-11.5-9.6-11.5v-6.3
		l24.4-8.1h6.6v14.8c4.9-10.1,12.5-15.8,23.4-15.8c15.7,0,23.3,9.7,23.3,29.9V290z"/>
	<path class="st3" d="M1014.9,300.4v6.3h-27.6l-1.8-1.5l-1.7-12c-5.1,8.9-13.2,15.8-25.1,15.8c-19.8,0-30.9-15.5-30.9-40.1
		c0-26.6,14-42.4,37.3-42.4c7.4,0,13.5,1.5,18.6,4.5V216c0-8.6-2.6-10.7-14.5-10.7v-6.9l29.4-8.9h6.6v96.7
		C1005.3,297.1,1007,299.5,1014.9,300.4z M983.9,285.8v-26.9c0-14.8-5.1-21.8-14.7-21.8c-10.7,0-17.2,9.6-17.2,26.6
		c0,16.7,6.3,26.9,17.5,26.9C974.7,290.6,979.9,288.8,983.9,285.8z"/>
	<path class="st3" d="M1021.5,267.7c0-25.1,17.2-41.2,41.7-41.2c24.6,0,41.7,16.2,41.7,41.2c0,25.1-17.2,41.2-41.7,41.2
		C1038.7,308.9,1021.5,292.8,1021.5,267.7z M1079.3,270.2c0-16.2-4.6-33.8-16.7-33.8c-8.2,0-15.3,6.8-15.3,29
		c0,16.2,4.6,33.7,16.7,33.7C1072.2,299,1079.3,292.3,1079.3,270.2z"/>
	<path class="st3" d="M907.8,290v-62.5h-6.6c0,0-13.4,1-29.8,1c-8.6,0-19.6,0-19.6,0c-0.2-3.3-0.3-4.8-0.3-5.9
		c0-16.5,12.3-25.2,23.8-25.2c4.2,0,6.3,1.1,6.3,8.3l0.1,0c0.7,7.6,4.9,12.5,12.9,12.5c6.6,0,15.1-6.9,15.1-15.6
		c0-3.8-2.9-8-6.4-10.4c-4.1-2.9-12.5-4.1-22.8-4.1c-26.7,0-44.8,18.1-49.7,41.7l-13.9,8.6v7.8h13.9v40.4c0,11.7-1.7,13.4-13.9,14
		v6.3H871v-6.3c-16.5-0.7-18.9-2.9-18.9-16v-42.6c0,0,13.7-4.6,23.9-4.6c8.2,0,10.4,7.1,10.4,16.2V290c0,8.1-1.7,9.6-10.4,10.4v6.3
		h41.7v-6.3C908.9,299.5,907.8,298,907.8,290z"/>
</g>
</svg>
