<svg width="146" height="40" viewBox="0 0 146 40" fill="none" xmlns="http://www.w3.org/2000/svg">
<path d="M21.5154 3.14098C21.0507 3.26192 20.5572 3.48572 20.3228 3.93088C20.1597 4.19962 20.0919 4.53504 19.8388 4.74129C19.6161 4.94929 19.222 4.9335 19.0216 4.70269C18.9146 4.56771 18.8649 4.39764 18.7602 4.26104C18.3545 3.65687 17.5688 3.35897 16.8615 3.5138C16.326 3.62245 15.846 3.97772 15.5771 4.45149C15.3737 4.79677 15.4269 5.21628 15.307 5.58734C15.2257 5.84096 14.9831 6.05247 14.7055 6.0244C14.4394 6.04019 14.2852 5.79709 14.0974 5.65402C13.3789 5.02124 12.1711 5.15271 11.5515 5.8608C11.317 6.18921 11.0557 6.54785 11.0675 6.97154C11.0575 7.35542 11.2276 7.72878 11.1628 8.11265C11.102 8.46265 10.6775 8.67592 10.3596 8.51584C10.0077 8.32714 9.60547 8.20795 9.20327 8.26923C8.22344 8.36452 7.41729 9.33138 7.53371 10.3154C7.57166 10.7653 7.89201 11.1163 8.016 11.5383C8.10959 11.866 7.85987 12.2429 7.5144 12.2581C7.22146 12.2458 6.92745 12.1863 6.63518 12.2353C5.98921 12.348 5.46128 12.8412 5.22331 13.4407C5.05557 13.8187 5.09474 14.2458 5.17361 14.6396C5.27422 14.9941 5.52786 15.2799 5.80027 15.5177C6.00137 15.6901 6.20071 15.9244 6.17383 16.2083C6.16911 16.4881 5.92249 16.7329 5.64306 16.74C4.9509 16.827 4.32127 17.3336 4.12247 18.0073C3.89274 18.5986 4.05872 19.2693 4.42067 19.77C4.62582 20.0445 4.94091 20.2018 5.24438 20.3431C5.39929 20.4096 5.55366 20.4926 5.66238 20.6259C5.86699 20.8584 5.83714 21.2685 5.57999 21.4521C5.41576 21.5637 5.23209 21.6448 5.07542 21.7682C4.40136 22.2941 4.19742 23.2937 4.56559 24.0562C4.73805 24.3402 4.94915 24.6118 5.22439 24.8024C5.59147 25.0513 6.05039 25.0448 6.46731 25.1413C6.75903 25.2003 6.98066 25.4931 6.93204 25.7927C6.92096 26.0527 6.6707 26.1854 6.53511 26.3776C6.08848 26.9344 6.03405 27.7581 6.37264 28.3816C6.61641 28.8706 7.10342 29.2276 7.63068 29.3526C8.11877 29.4818 8.60052 29.1808 9.08686 29.3C9.42301 29.4011 9.58494 29.8299 9.40667 30.1315C9.13129 30.638 9.0693 31.2784 9.33063 31.803C9.52997 32.1671 9.78834 32.5362 10.183 32.7051C10.6361 32.9172 11.196 33.0376 11.6609 32.7927C11.9707 32.6624 12.2554 32.4311 12.6044 32.4281C12.9172 32.4164 13.2112 32.7132 13.1691 33.0293C13.1375 33.3045 13.0913 33.5856 13.155 33.8608C13.3064 34.5478 13.87 35.1118 14.5458 35.294C15.0281 35.3951 15.5654 35.3437 15.9798 35.0609C16.2628 34.882 16.4435 34.5854 16.7182 34.3972C16.9474 34.2336 17.2987 34.2394 17.4963 34.4516C17.6891 34.6292 17.6436 34.9155 17.7353 35.1416C17.9978 36.0408 19.022 36.6162 19.9282 36.3838C20.245 36.2827 20.5765 36.1623 20.8115 35.9164C21.123 35.6183 21.2008 35.1627 21.4903 34.8478C21.6961 34.6082 22.1081 34.5971 22.3268 34.8249C22.456 34.974 22.5168 35.1691 22.6459 35.3198C23.1749 36.0747 24.3074 36.2845 25.0895 35.8123C25.452 35.5804 25.784 35.2567 25.9032 34.8313C25.9838 34.5071 25.9851 34.1629 26.1119 33.8515C26.2557 33.5213 26.7357 33.4081 27.0028 33.6545C27.3069 33.9385 27.6593 34.2113 28.0861 34.2605C28.6286 34.3832 29.1957 34.1862 29.6347 33.8685C29.9287 33.5922 30.1725 33.2404 30.2707 32.8455C30.3864 32.378 30.1519 31.9182 30.2052 31.4502C30.2519 31.1009 30.6711 30.8753 30.9897 31.0266C31.3095 31.1767 31.6532 31.3205 32.0145 31.2884C32.7037 31.2575 33.386 30.8355 33.6665 30.1958C33.794 29.8757 33.8892 29.5257 33.8325 29.1792C33.7939 28.7305 33.425 28.3951 33.3572 27.9557C33.3017 27.6566 33.5197 27.3393 33.822 27.2949C33.9967 27.2803 34.1692 27.327 34.3439 27.3253C34.9572 27.3603 35.5751 27.0448 35.9165 26.5364C36.3082 26.0235 36.369 25.3019 36.1217 24.713C35.9585 24.3181 35.5786 24.0844 35.3301 23.7507C35.1519 23.5224 35.1652 23.1583 35.3839 22.9602C35.5528 22.7866 35.8142 22.8136 36.0263 22.7323C36.9582 22.4957 37.5452 21.4189 37.3032 20.5028C37.1932 20.1306 37.0162 19.7561 36.6951 19.5207C36.3999 19.2735 35.9837 19.214 35.72 18.9242C35.5054 18.6963 35.5254 18.2873 35.7727 18.0916C35.8884 18.0058 36.0276 17.9607 36.148 17.8824C36.8063 17.4875 37.1108 16.6414 36.9466 15.9047C36.8876 15.5366 36.6484 15.2368 36.4094 14.9653C36.1942 14.7228 35.8897 14.5779 35.5751 14.5166C35.2635 14.4488 34.9075 14.4804 34.6462 14.2677C34.4411 14.1134 34.382 13.8178 34.4755 13.5852C34.5702 13.3948 34.7684 13.2854 34.8812 13.1073C35.4137 12.3874 35.2864 11.3077 34.659 10.6872C34.3668 10.4459 34.0276 10.2333 33.6465 10.1761C33.2157 10.0931 32.7942 10.3181 32.3639 10.2509C32.0213 10.1947 31.8033 9.78923 31.9466 9.47257C32.0593 9.23365 32.1664 8.98705 32.2056 8.72411C32.2834 7.96053 31.8636 7.16065 31.168 6.82347C30.7178 6.6395 30.1888 6.52315 29.7276 6.73641C29.4125 6.85438 29.1494 7.12151 28.7957 7.12029C28.4701 7.1431 28.1608 6.8282 28.217 6.50033C28.2743 6.12469 28.2755 5.72623 28.1112 5.37502C27.8885 4.79596 27.3483 4.37644 26.7533 4.23215C26.3253 4.17074 25.8647 4.20124 25.4812 4.41734C25.1533 4.6055 24.9504 4.942 24.6475 5.16107C24.3534 5.37907 23.8624 5.24935 23.7583 4.88653C23.6671 4.49388 23.5888 4.06208 23.2865 3.76944C22.8562 3.27461 22.1612 3.0245 21.5151 3.14139L21.5154 3.14098ZM21.3183 2.00514C22.1649 1.86206 23.0687 2.08397 23.745 2.61565C24.0877 2.89843 24.3892 3.23493 24.5921 3.63285C25.1522 3.16366 25.9179 3.0164 26.6324 3.06324C27.0908 3.06445 27.5146 3.26368 27.9156 3.46574C28.2424 3.65323 28.5072 3.92737 28.7626 4.20016C29.0795 4.62089 29.3034 5.12099 29.3729 5.64511C30.0534 5.3518 30.8361 5.46464 31.512 5.71516C31.8416 5.81856 32.1123 6.04235 32.3708 6.26385C32.7426 6.57403 32.9841 7.00826 33.1717 7.44761C33.3564 7.94137 33.3973 8.48412 33.3378 9.00581C34.1235 8.97949 34.8788 9.33178 35.4557 9.84781C36.0093 10.3719 36.301 11.1239 36.3746 11.8722C36.391 12.4139 36.2689 12.9572 36.042 13.4485C36.8511 13.6367 37.4497 14.2863 37.8455 14.984C38.1343 15.5584 38.1822 16.2238 38.0999 16.8531C37.994 17.4718 37.6783 18.0491 37.2463 18.5013C38.3798 19.2369 38.8189 20.8407 38.2822 22.0688C38.0361 22.7688 37.476 23.3244 36.8329 23.6744C37.6606 24.7202 37.6051 26.3491 36.7417 27.3582C36.2869 27.9576 35.5761 28.3433 34.8354 28.4514C35.0745 29.0917 35.0395 29.8156 34.8044 30.4531C34.5646 31.163 34.0221 31.7571 33.3533 32.0896C32.7804 32.4168 32.0905 32.4886 31.4446 32.4075C31.5199 33.3346 31.0055 34.2047 30.3286 34.7994C29.7989 35.1838 29.1617 35.4199 28.5059 35.4508C27.9915 35.4345 27.4612 35.3591 27.0088 35.0968C26.9726 35.4403 26.7603 35.729 26.5797 36.0123C26.1231 36.5744 25.4917 37.026 24.7669 37.1528C23.7695 37.3543 22.6833 37.0494 21.9678 36.3178C21.5598 36.9587 20.8589 37.3531 20.1311 37.5179C19.4331 37.6657 18.6877 37.5565 18.0611 37.2158C17.5034 36.9325 17.076 36.4405 16.7867 35.8942C16.2477 36.3511 15.5158 36.5177 14.8224 36.4861C13.427 36.444 12.166 35.2795 11.9965 33.8972C11.5253 34.1256 10.9705 34.1058 10.4678 34.0094C9.82534 33.8814 9.20327 33.5665 8.78528 33.0535C8.424 32.6101 8.11121 32.0935 8.04922 31.5139C8.00074 31.1873 8.01654 30.856 8.04517 30.5288C7.16352 30.5791 6.3147 30.1409 5.73544 29.4971C4.93159 28.5757 4.77789 27.1723 5.34027 26.0902C4.58557 25.9336 4.01145 25.3465 3.61331 24.7167C3.41748 24.4281 3.33914 24.0844 3.2812 23.7462C3.20233 23.4172 3.23677 23.0765 3.27472 22.7448C3.3355 22.0962 3.70028 21.5213 4.13111 21.0509C3.42963 20.6063 3.02851 19.8076 2.88819 19.0083C2.78771 18.2663 2.99867 17.5056 3.38682 16.8728C3.70015 16.4626 4.0883 16.0969 4.55951 15.876C4.05845 15.3378 3.93812 14.5702 3.95797 13.8619C4.04805 12.4912 5.18158 11.2374 6.56063 11.0879C6.29282 10.4914 6.33144 9.7984 6.52971 9.18668C6.79279 8.32376 7.50008 7.65359 8.31325 7.29779C8.82944 7.12367 9.38128 7.06293 9.92272 7.13649C9.9057 6.77947 9.94784 6.41435 10.0806 6.08068C10.2787 5.66117 10.5167 5.25219 10.8446 4.91973C11.1135 4.67839 11.4228 4.48335 11.7479 4.32731C12.377 4.10473 13.076 4.0066 13.7274 4.19463C13.9408 4.24956 14.1483 4.32664 14.3517 4.41086C14.7492 3.05298 16.2394 2.13161 17.6348 2.35838C18.3124 2.40278 18.9222 2.76736 19.4097 3.22076C19.8166 2.55059 20.5719 2.16671 21.3185 2.00487" fill="#5FE0FF"/>
<path d="M21.52 32.2843C21.1757 32.4082 21.1504 32.9386 21.4785 33.0964C21.7737 33.3056 22.2321 33.0222 22.1842 32.6687C22.1631 32.3638 21.7959 32.1487 21.52 32.2843ZM17.4243 31.981C17.1659 32.1042 17.1121 32.5016 17.3249 32.6915C17.4237 32.7891 17.5621 32.8242 17.6884 32.8732C17.8481 32.8007 18.055 32.74 18.0989 32.5442C18.2661 32.1668 17.7609 31.7707 17.4243 31.981ZM25.4385 31.3535C25.1947 31.4709 25.1081 31.8209 25.2906 32.0289C25.5122 32.3613 26.1213 32.2007 26.1336 31.7952C26.174 31.4371 25.7442 31.1746 25.4385 31.3535ZM13.6868 30.4135C13.5384 30.4812 13.4624 30.6431 13.4302 30.795C13.439 31.0299 13.619 31.2356 13.8435 31.2941C14.1242 31.3495 14.4117 31.0813 14.3708 30.798C14.3451 30.4872 13.9698 30.257 13.6868 30.4136M29.0075 29.1984C28.6871 29.2709 28.5264 29.7132 28.7835 29.9451C29.0185 30.2472 29.557 30.059 29.592 29.6909C29.6628 29.3737 29.3003 29.0973 29.0073 29.1984M20.6505 28.7029C20.6891 28.9121 20.7341 29.1206 20.7481 29.3339C21.0463 29.4875 21.3158 29.6874 21.549 29.9281C21.7641 29.5366 22.1289 29.2416 22.5299 29.0552C22.3464 28.6672 21.9284 28.3955 21.4963 28.4101C21.1935 28.4417 20.9392 28.6246 20.6505 28.7029ZM17.8766 28.2412C17.8613 28.4545 17.8404 28.669 17.7894 28.8775C18.0116 29.1277 18.2168 29.394 18.3694 29.6925C18.692 29.3782 19.1334 29.2391 19.5672 29.1649C19.5092 28.7507 19.2082 28.372 18.8055 28.2464C18.5009 28.1605 18.1858 28.2535 17.8766 28.2412ZM24.2031 27.7212C23.8757 27.8042 23.6922 28.1144 23.4093 28.2739C23.5232 28.4596 23.6309 28.6513 23.6927 28.8611C24.0277 28.9032 24.354 28.9973 24.6475 29.1679C24.7275 28.7308 24.9918 28.3406 25.314 28.0426C25.0421 27.7375 24.5976 27.595 24.2031 27.7212ZM10.6516 27.744C10.2968 27.8813 10.2529 28.4422 10.6107 28.6016C10.8697 28.767 11.2263 28.576 11.2754 28.2855C11.3502 27.9548 10.9667 27.6189 10.6516 27.7439M15.3915 26.9247C15.3313 27.1397 15.2372 27.3442 15.1138 27.5306C15.2617 27.8339 15.3669 28.1563 15.3968 28.4935C15.8048 28.2948 16.2784 28.2803 16.718 28.3638C16.8011 27.9192 16.5982 27.4407 16.2124 27.2029C15.9575 27.0545 15.633 27.0989 15.3917 26.9248M31.6932 26.0875C31.4482 26.1453 31.2571 26.4024 31.3156 26.6548C31.3477 26.9195 31.6582 27.058 31.8973 26.9966C32.0971 26.9113 32.2819 26.7038 32.2381 26.4732C32.2083 26.2185 31.9393 26.0426 31.6932 26.0875ZM26.3916 26.3329C26.1847 26.5304 26.094 26.8102 25.9133 27.0282C26.07 27.1672 26.2237 27.311 26.3623 27.4688C26.6979 27.4437 27.0375 27.4256 27.3713 27.4881C27.3022 27.044 27.4385 26.5883 27.6519 26.2004C27.2532 25.9818 26.7306 26.0257 26.3916 26.3331M12.975 25.4286C13.0235 25.7605 13.0317 26.0975 12.9609 26.4277C13.4053 26.3652 13.8577 26.4977 14.2499 26.7017C14.4434 26.3547 14.4417 25.8988 14.2172 25.5664C14.0173 25.2971 13.6893 25.1814 13.4309 24.9827C13.2871 25.1388 13.1439 25.2976 12.975 25.4286ZM8.54135 24.2846C8.17184 24.4038 8.12632 24.9623 8.47409 25.1365C8.78742 25.3585 9.24459 24.9887 9.13884 24.6346C9.09738 24.3682 8.7962 24.1712 8.54135 24.2846ZM28.2412 24.107C28.0074 24.3705 28.0336 24.7479 27.8962 25.0552C28.0961 25.137 28.2914 25.2316 28.4703 25.3538C28.7744 25.2019 29.0988 25.0938 29.4361 25.0464C29.2327 24.641 29.2275 24.1683 29.3028 23.7301C28.917 23.6817 28.4937 23.7991 28.2412 24.107ZM11.6005 22.7579C11.5427 23.0915 11.4468 23.4198 11.2954 23.7243C11.7415 23.7874 12.1133 24.0666 12.4226 24.3775C12.7359 24.0701 12.8657 23.5806 12.699 23.1674C12.5775 22.9004 12.3285 22.7257 12.1729 22.4821C11.9887 22.586 11.7998 22.6836 11.6005 22.7579ZM33.1588 22.36C32.9665 22.4377 32.849 22.6492 32.8688 22.8537C32.8824 23.1295 33.2032 23.3573 33.4634 23.2341C33.7142 23.1616 33.8521 22.8672 33.7609 22.6264C33.6889 22.3798 33.3892 22.2641 33.1588 22.36ZM29.2548 21.5011C29.0672 21.83 29.1968 22.2139 29.184 22.5692C29.3968 22.595 29.6102 22.6246 29.8189 22.6773C30.0644 22.4465 30.3298 22.235 30.6403 22.0965C30.3229 21.7793 30.1592 21.3329 30.1066 20.8941C29.7511 20.952 29.3922 21.1518 29.2548 21.5011ZM7.54734 20.3577C7.41525 20.4237 7.33449 20.5604 7.30059 20.7001C7.22631 20.9905 7.52451 21.3136 7.82083 21.2406C8.10728 21.1979 8.29379 20.8404 8.16346 20.5815C8.08513 20.3285 7.7695 20.2478 7.54734 20.3577ZM11.1279 19.8109C10.9613 20.1037 10.779 20.3917 10.5217 20.6136C10.9251 20.814 11.1968 21.206 11.4014 21.5952C11.7406 21.4228 12.0082 21.0798 12.0323 20.6919C12.0953 20.3338 11.8124 20.048 11.7639 19.7074C11.554 19.7547 11.343 19.7991 11.1278 19.8107M33.1941 18.8199C33.2186 19.1137 33.5671 19.3247 33.8302 19.1674C34.0804 19.0856 34.1101 18.8041 34.1061 18.5803C34.012 18.4676 33.9249 18.3302 33.7722 18.2945C33.4677 18.1864 33.128 18.5101 33.1941 18.8197M29.3655 18.7706C29.2912 19.1469 29.5555 19.4664 29.6268 19.8199C29.842 19.7761 30.0577 19.7294 30.2781 19.7194C30.4324 19.4161 30.6195 19.1287 30.8784 18.9044C30.4774 18.6969 30.1927 18.3225 29.9916 17.9275C29.67 18.0946 29.4041 18.4002 29.3655 18.7706ZM11.5697 16.8501C11.3259 17.0769 11.0641 17.2866 10.7648 17.4355C11.0665 17.7557 11.2319 18.198 11.2774 18.6321C11.6937 18.5854 12.0608 18.2833 12.2058 17.8942C12.2942 17.5805 12.1976 17.2586 12.2076 16.9412C11.993 16.9237 11.7766 16.9109 11.5697 16.8501ZM7.95237 16.2723C7.59636 16.3676 7.46711 16.894 7.78571 17.1073C8.09269 17.3567 8.59767 17.0442 8.52811 16.6621C8.49597 16.3934 8.21411 16.1894 7.95224 16.2724M28.667 16.2707C28.7546 16.5891 29.047 16.7755 29.2241 17.0384C29.4076 16.9368 29.5894 16.8287 29.7888 16.7591C29.8455 16.4244 29.9454 16.0948 30.1196 15.8009C29.6742 15.7379 29.2749 15.472 28.9726 15.1483C28.6814 15.4328 28.5314 15.8752 28.667 16.2707ZM32.5135 14.3577C32.2118 14.4945 32.1458 14.9542 32.4153 15.1599C32.6621 15.4246 33.1361 15.1915 33.1496 14.8526C33.2093 14.5161 32.8246 14.2163 32.5137 14.3577M12.9214 14.1766C12.6191 14.3244 12.2975 14.4325 11.9608 14.4669C12.1537 14.8677 12.1807 15.3444 12.0924 15.7762C12.5653 15.8844 13.1102 15.6278 13.2961 15.1727C13.4054 14.9467 13.3832 14.6825 13.4995 14.4587C13.3014 14.3769 13.0968 14.3028 12.9214 14.1766ZM27.2827 14.0871C27.479 14.2816 27.7481 14.3746 27.9596 14.5505C28.0999 14.3934 28.2501 14.2449 28.4115 14.1082C28.3793 13.7734 28.3763 13.4369 28.4144 13.1027C27.9736 13.1361 27.5247 13.0466 27.1436 12.8199C26.9149 13.2219 26.9611 13.7487 27.2827 14.0871ZM9.53239 12.5203C9.2038 12.5915 9.0366 13.0181 9.26471 13.278C9.47864 13.5849 10.0095 13.4288 10.0656 13.0718C10.1819 12.7627 9.8387 12.4302 9.53239 12.5203ZM14.0303 12.036C14.0788 12.4776 13.9485 12.9159 13.7596 13.3108C14.1501 13.551 14.6926 13.489 15.0259 13.1753C15.2119 12.9796 15.3141 12.7225 15.4813 12.5122C15.3224 12.3644 15.1575 12.2206 15.0242 12.0488C14.6933 12.0874 14.3594 12.0962 14.0303 12.036ZM21.2513 11.762C21.0379 11.9851 20.7316 12.0669 20.451 12.1704C19.8869 12.3568 19.2753 12.2399 18.751 11.9899C18.5886 12.288 18.3032 12.4895 18.0267 12.6735C17.5696 12.9854 16.9774 13.0679 16.4425 12.9498C16.4209 13.0719 16.4051 13.1992 16.3373 13.3068C16.121 13.6779 15.8696 14.057 15.4844 14.2715C15.201 14.4526 14.8764 14.5548 14.5462 14.6075C14.6082 15.4972 14.0739 16.3871 13.2595 16.7535C13.4548 17.1946 13.4044 17.6929 13.3391 18.1569C13.2239 18.5588 12.9743 18.9065 12.6884 19.2056C12.9116 19.4247 12.9987 19.7333 13.1076 20.0178C13.2765 20.5763 13.1696 21.1916 12.9153 21.7075C13.3069 21.9429 13.5765 22.3408 13.7776 22.7422C13.9267 23.1482 13.9478 23.5946 13.8893 24.0211C14.1325 24.0492 14.3417 24.1835 14.5411 24.3162C14.7966 24.5019 15.0537 24.7053 15.2139 24.9834C15.3987 25.2586 15.4811 25.5828 15.5401 25.9048C15.9797 25.8703 16.4181 26.014 16.8064 26.2109C17.1887 26.44 17.4799 26.797 17.6903 27.186C17.985 27.0533 18.3159 27.061 18.6321 27.0633C19.2027 27.0726 19.7417 27.3543 20.1309 27.7621C20.4788 27.463 20.9388 27.3327 21.3831 27.259C21.8147 27.245 22.2553 27.3303 22.633 27.5453C22.7756 27.2906 23.0065 27.1042 23.235 26.9301C23.7243 26.5625 24.3738 26.4626 24.9683 26.5649C24.9993 26.1898 25.2595 25.8895 25.488 25.6108C25.8172 25.1995 26.3421 25.0207 26.8385 24.9097C26.8139 24.4558 26.9665 24.0099 27.1694 23.6103C27.4038 23.248 27.7463 22.9629 28.1281 22.7654C28.0013 22.4827 28.0024 22.166 28.0031 21.8622C28.0043 21.2785 28.2936 20.7293 28.694 20.318C28.3749 19.9773 28.2813 19.4942 28.1982 19.0507C28.1935 18.6213 28.2742 18.1818 28.4899 17.8056C28.2035 17.6742 28.0029 17.4165 27.8282 17.1635C27.5002 16.6868 27.4125 16.0791 27.5008 15.5153C27.0348 15.416 26.6537 15.0918 26.3251 14.7639C26.0982 14.4216 25.9013 14.0482 25.8521 13.634C24.9629 13.6568 24.0591 13.1432 23.7031 12.3142C23.4039 12.4672 23.0554 12.4737 22.7268 12.4655C22.1632 12.4504 21.6388 12.1576 21.2513 11.762ZM24.6683 11.1643C24.6296 11.5353 24.7227 11.9549 25.0266 12.1978C25.2884 12.4432 25.6655 12.456 25.9906 12.5606C26.083 12.3655 26.1712 12.1669 26.2904 11.9863C26.142 11.6865 26.0268 11.3705 25.9869 11.0374C25.5807 11.2266 25.1037 11.2419 24.6681 11.1641M30.4012 10.8965C30.0475 11.0134 30.0306 11.5596 30.3475 11.729C30.6176 11.9453 31.0688 11.6788 31.0338 11.3422C31.0421 11.0313 30.6994 10.7545 30.4012 10.8965ZM16.738 10.3647C16.6638 10.8023 16.3943 11.1826 16.0838 11.4882C16.2949 11.7336 16.6286 11.8359 16.942 11.8511C17.3804 11.8493 17.6487 11.4626 17.9872 11.2493C17.8779 11.0624 17.768 10.8748 17.6937 10.6715C17.364 10.6101 17.0402 10.5119 16.7379 10.3648M21.8205 10.3531C21.8714 10.8258 22.2601 11.2393 22.7301 11.3148C22.9902 11.3376 23.2468 11.2663 23.5076 11.2716C23.5322 11.0618 23.5613 10.8521 23.611 10.647C23.3783 10.4039 23.1702 10.137 23.0183 9.83609C22.6974 10.148 22.2566 10.2981 21.8205 10.3531ZM18.87 10.4729C19.0355 10.8066 19.3606 11.0653 19.737 11.1045C20.097 11.1571 20.3999 10.9134 20.7337 10.8282C20.7056 10.6202 20.674 10.4122 20.6576 10.203C20.3594 10.0388 20.0824 9.83785 19.8374 9.60177C19.6299 9.99496 19.247 10.2574 18.8699 10.4729M12.1675 9.43763C12.019 9.48609 11.874 9.5849 11.8243 9.73972C11.7349 9.9542 11.8559 10.22 12.0658 10.3105C12.3528 10.456 12.7421 10.2013 12.7323 9.88104C12.751 9.59704 12.4281 9.36636 12.1675 9.43763ZM27.307 8.2644C27.0732 8.34444 26.9504 8.64477 27.0667 8.8633C27.1386 9.06658 27.3684 9.20453 27.5817 9.1589C27.7928 9.13204 27.9371 8.91581 27.9459 8.71428C27.96 8.40235 27.6015 8.12659 27.307 8.2644ZM15.6086 7.32319C15.3151 7.39325 15.1363 7.7836 15.3407 8.03021C15.5325 8.33405 16.0294 8.25805 16.1632 7.94018C16.3352 7.61475 15.947 7.20522 15.6086 7.32319ZM23.5706 6.69973C23.3964 6.77275 23.2608 6.94282 23.2561 7.13503C23.2591 7.30038 23.3578 7.45871 23.5057 7.53403C23.7641 7.71166 24.1838 7.52121 24.1931 7.19861C24.2416 6.87371 23.8757 6.57581 23.5705 6.69959M19.2649 7.02624C19.3333 7.19915 19.5326 7.23721 19.6859 7.30079C19.8408 7.23937 20.0326 7.1951 20.1044 7.02448C20.2588 6.75696 20.0379 6.39818 19.7409 6.36835C19.3878 6.28008 19.0786 6.72186 19.2651 7.02624M18.4928 5.71398C19.0657 5.07715 20.1718 5.03044 20.795 5.6199C21.151 5.94304 21.3491 6.43031 21.3222 6.90989C21.2813 7.45912 20.9446 7.94747 20.4868 8.24078C20.537 8.54934 20.6622 8.86829 20.9492 9.02784C21.542 9.47475 22.558 9.09506 22.6323 8.33486C22.3131 8.02346 22.0915 7.58991 22.1096 7.13706C22.0921 6.53991 22.4639 5.96382 22.9929 5.69805C23.4588 5.43862 24.0458 5.48303 24.5117 5.72019C25.3799 6.11459 25.6475 7.3865 25.0402 8.11039C24.8047 8.44406 24.4293 8.63802 24.0417 8.73736C24.0171 8.99679 24.0207 9.27202 24.1569 9.50269C24.3819 9.86079 24.8117 10.1121 25.2413 10.0502C25.5897 10.0175 25.9358 9.81827 26.0866 9.49271C25.8598 9.09951 25.8025 8.6198 25.9498 8.188C26.0696 7.74109 26.4175 7.38177 26.8425 7.20873C27.6615 6.83767 28.7149 7.2993 29.0272 8.13603C29.2084 8.67527 29.1231 9.32439 28.7367 9.75564C28.5502 9.92801 28.3672 10.1243 28.1164 10.199C27.8603 10.3089 27.5774 10.3147 27.3032 10.3223C27.2377 10.4841 27.1372 10.6407 27.1355 10.8206C27.1384 11.3202 27.495 11.8034 27.9843 11.9272C28.338 12.0218 28.7267 11.9091 28.9927 11.6625C28.9056 11.1313 29.0289 10.5407 29.4417 10.1703C30.049 9.53576 31.2159 9.56033 31.7684 10.2539C31.9736 10.4963 32.1583 10.7791 32.187 11.1034C32.2075 11.3721 32.2138 11.6521 32.1169 11.9086C31.917 12.4876 31.3527 12.9105 30.7413 12.9461C30.4508 13.0063 30.1696 12.8994 29.8948 12.8222C29.7603 12.977 29.6176 13.1359 29.5634 13.3393C29.4599 13.736 29.602 14.1842 29.9111 14.4529C30.2297 14.7334 30.722 14.8233 31.1031 14.616C31.1599 14.0095 31.5866 13.4339 32.1776 13.2546C32.9248 12.9853 33.8502 13.3785 34.1565 14.1152C34.285 14.4185 34.3581 14.7567 34.3031 15.0862C34.2102 15.6909 33.7373 16.2163 33.1491 16.3809C32.782 16.4475 32.3856 16.4527 32.0412 16.2909C31.8828 16.2038 31.736 16.0975 31.5899 15.9923C31.4204 16.1098 31.2274 16.2114 31.1151 16.3913C30.965 16.646 30.8842 16.9609 30.9766 17.2507C31.1011 17.7638 31.6308 18.1686 32.1645 18.0815C32.3855 17.6416 32.7889 17.2806 33.2724 17.1614C33.764 17.0469 34.3002 17.1835 34.6947 17.4938C34.9133 17.7048 35.0951 17.9613 35.201 18.2469C35.2693 18.7008 35.2999 19.2139 35.0373 19.6158C34.7626 20.0733 34.2417 20.348 33.7178 20.3912C33.1105 20.4057 32.5381 20.0599 32.2177 19.5516C31.8507 19.5948 31.4957 19.7993 31.3584 20.1563C31.0263 20.7598 31.4414 21.6176 32.1294 21.7069C32.6393 21.1163 33.6056 20.9971 34.241 21.451C34.7215 21.7589 34.9817 22.3496 34.9302 22.9116C34.884 23.2815 34.7671 23.6624 34.5011 23.9353C34.1235 24.3279 33.5436 24.5026 33.0092 24.4103C32.624 24.3541 32.303 24.0966 32.0569 23.8096C31.8786 23.6162 31.8119 23.3557 31.7172 23.1173C31.2039 22.9946 30.641 23.3107 30.4785 23.8114C30.2809 24.2946 30.4973 24.9034 30.9625 25.1442C31.3449 24.9339 31.7997 24.8644 32.2206 24.9923C32.78 25.1361 33.2308 25.6123 33.3565 26.1731C33.4133 26.55 33.4103 26.9688 33.1969 27.299C32.9789 27.6753 32.6428 28.0118 32.2125 28.1275C31.6051 28.2712 30.8801 28.1099 30.5031 27.5817C30.2149 27.2452 30.1448 26.7883 30.1459 26.3595C29.8833 26.2426 29.5817 26.1433 29.2993 26.2531C28.8445 26.3823 28.5223 26.8263 28.499 27.2914C28.5042 27.5695 28.5961 27.8477 28.7907 28.0515C29.328 27.9504 29.8961 28.118 30.2943 28.4896C30.5403 28.7741 30.7444 29.1282 30.7432 29.5144C30.7631 29.9783 30.6104 30.4726 30.2551 30.7869C29.9195 31.1136 29.4507 31.3186 28.9765 31.2614C28.5018 31.2409 28.0745 30.9651 27.7898 30.597C27.4624 30.1145 27.4396 29.4916 27.6296 28.9518C27.483 28.8121 27.3239 28.676 27.1228 28.6246C26.5014 28.447 25.7987 28.9383 25.7309 29.577C25.6894 29.7757 25.763 29.9707 25.8378 30.1519C26.285 30.2096 26.7306 30.4294 26.9801 30.8162C27.3349 31.29 27.3841 31.9731 27.1076 32.4943C26.7335 33.2691 25.6847 33.5892 24.9212 33.2212C24.401 32.9524 24.0063 32.3921 24.0385 31.7927C24.0269 31.3719 24.1992 30.9724 24.4595 30.6487C24.3086 30.3233 24.0146 30.0633 23.6498 30.0195C22.9629 29.8787 22.2584 30.526 22.3684 31.2271C22.9086 31.4713 23.3184 32.0147 23.3307 32.6177C23.4095 33.3812 22.8162 34.1134 22.0837 34.2782C21.6271 34.3594 21.1151 34.3108 20.7385 34.0182C20.2914 33.7073 20.0335 33.1564 20.072 32.6142C20.1024 32.0614 20.4486 31.5706 20.9121 31.2843C20.8676 30.9619 20.7034 30.6463 20.4175 30.4764C20.1468 30.3256 19.8142 30.2462 19.5137 30.3542C19.1238 30.4546 18.8203 30.7906 18.7397 31.1827C19.0945 31.5152 19.3214 32.0007 19.2775 32.4932C19.2395 32.9619 19.0162 33.4386 18.6117 33.6997C18.2288 33.9544 17.7337 34.0888 17.2841 33.9463C16.7731 33.8487 16.3341 33.4794 16.1353 33.0015C15.957 32.526 15.964 31.951 16.2715 31.5287C16.503 31.139 16.914 30.8901 17.3461 30.7802C17.3654 30.529 17.3882 30.2538 17.2338 30.037C16.9818 29.559 16.3506 29.3382 15.8518 29.5387C15.625 29.6333 15.4308 29.8044 15.3133 30.0212C15.5624 30.4899 15.6045 31.0799 15.3642 31.5608C15.1637 31.916 14.8574 32.2297 14.4617 32.3584C13.9676 32.5255 13.3866 32.46 12.9709 32.1328C12.28 31.7261 12.0741 30.7435 12.453 30.057C12.7558 29.4563 13.4574 29.1648 14.1074 29.2046C14.1717 29.0199 14.2646 28.8347 14.2477 28.6338C14.2465 28.1383 13.8503 27.6954 13.3749 27.5902C13.0357 27.5044 12.6681 27.6141 12.4073 27.8421C12.4874 28.3201 12.3973 28.8447 12.0729 29.2181C11.7397 29.6539 11.1674 29.8702 10.6278 29.8059C10.3572 29.7522 10.0941 29.6516 9.86139 29.5038C9.52928 29.2258 9.24351 28.8472 9.1961 28.4048C9.10723 27.7598 9.43461 27.0582 10.0203 26.7566C10.474 26.5089 11.02 26.5195 11.493 26.7082C11.738 26.4633 11.9238 26.1333 11.8555 25.7751C11.7905 25.0652 10.9447 24.5639 10.301 24.9039C10.2443 25.4047 9.94026 25.8685 9.50997 26.1296C9.05456 26.3896 8.46639 26.4387 7.99464 26.1921C7.75911 26.0677 7.54747 25.8959 7.37906 25.6896C7.19835 25.3793 7.06573 25.0277 7.06168 24.6654C7.06222 24.0063 7.52938 23.3923 8.1455 23.1773C8.71436 22.9786 9.35155 23.1539 9.81398 23.5179C10.2385 23.3287 10.5172 22.8641 10.4361 22.3991C10.3799 21.8195 9.80007 21.3229 9.21069 21.4474C9.03295 21.8172 8.73488 22.1426 8.34376 22.2864C7.86269 22.4675 7.27804 22.4435 6.85653 22.1304C6.41922 21.84 6.13168 21.3364 6.14032 20.8076C6.07955 20.0702 6.63085 19.347 7.34759 19.1857C7.86202 19.0618 8.43898 19.1997 8.83078 19.5596C8.95935 19.6881 9.07104 19.8323 9.18327 19.975C9.65799 19.9248 10.083 19.5415 10.1274 19.0577C10.2321 18.5132 9.83978 17.898 9.27916 17.826C9.06051 17.9873 8.85414 18.1848 8.58403 18.2561C8.02219 18.4558 7.34935 18.3186 6.92959 17.8903C6.20637 17.2364 6.33089 15.9312 7.12718 15.3884C7.7714 14.8941 8.78972 15.0239 9.29307 15.6577C9.4754 15.8763 9.58533 16.142 9.6661 16.4127C9.86665 16.4167 10.0771 16.4536 10.2689 16.3741C10.6027 16.2426 10.8581 15.944 10.9563 15.6017C11.0808 15.1355 10.8604 14.5963 10.4225 14.3788C9.97889 14.6254 9.42056 14.6621 8.95165 14.4636C8.42318 14.2217 8.03611 13.6795 8.01747 13.0934C8.00923 12.8176 8.00572 12.5156 8.16414 12.2766C8.36051 11.9424 8.61604 11.6042 8.9919 11.4639C9.53793 11.2355 10.2183 11.3144 10.6692 11.7081C10.8738 11.905 11.0462 12.1417 11.145 12.4099C11.2549 12.6447 11.2245 12.9117 11.2386 13.1636C11.4881 13.2798 11.7665 13.371 12.0417 13.2851C12.6269 13.1531 13.0139 12.4992 12.8526 11.9231C12.8064 11.7555 12.7065 11.6105 12.5988 11.4768C12.1779 11.5422 11.7254 11.4896 11.3706 11.2407C10.9293 10.9679 10.6528 10.4601 10.6446 9.94367C10.5815 8.98667 11.532 8.12254 12.4767 8.26507C12.9648 8.33459 13.4332 8.61453 13.6793 9.04917C13.9295 9.51363 13.9348 10.0792 13.7511 10.5682C13.8938 10.6962 14.0353 10.844 14.2311 10.8878C14.821 11.0753 15.5073 10.6705 15.636 10.0669C15.7003 9.83258 15.657 9.58611 15.5489 9.37217C14.9789 9.32479 14.4731 8.93686 14.2394 8.42273C14.0558 8.02657 14.0709 7.56156 14.2095 7.15433C14.3428 6.89612 14.5287 6.66409 14.745 6.47013C15.1261 6.21475 15.6009 6.08449 16.058 6.15927C16.5059 6.25808 16.9133 6.53667 17.1443 6.93634C17.3536 7.23262 17.371 7.60759 17.3536 7.95705C17.3057 8.29774 17.135 8.60144 16.9351 8.87491C17.0526 9.06712 17.173 9.27566 17.3822 9.38148C17.5892 9.48015 17.8231 9.54737 18.054 9.50715C18.6275 9.44641 19.122 8.87437 19.0203 8.29018C18.5182 8.08164 18.171 7.60665 18.0698 7.08023C18.0178 6.59417 18.1441 6.06951 18.4924 5.71357" fill="#AF66E1"/>
<path d="M24.1341 21.1212C24.1543 21.141 24.1543 21.141 24.1341 21.1212V21.1212ZM20.3745 18.0023C20.2201 18.1128 20.0378 18.1636 19.8495 18.1665C19.7396 18.3243 19.5877 18.4452 19.4029 18.503C19.3544 18.6982 19.2357 18.864 19.068 18.9745C19.0745 19.1655 19.0265 19.3513 18.9078 19.5026C18.9698 19.6913 18.9738 19.893 18.9101 20.0817C19.0316 20.2277 19.089 20.4077 19.0884 20.597C19.2515 20.7097 19.3813 20.8652 19.4222 21.0645C19.6233 21.0996 19.7812 21.2263 19.8998 21.3864C20.0891 21.3859 20.2746 21.4326 20.426 21.5512C20.6113 21.4933 20.8083 21.4847 20.9948 21.5465C21.1404 21.4185 21.324 21.356 21.5175 21.3595C21.632 21.1954 21.7887 21.065 21.9875 21.0206C22.0314 20.833 22.1512 20.6823 22.2978 20.5632C22.2931 20.3662 22.3365 20.1723 22.4633 20.0174C22.4176 19.8351 22.4166 19.6458 22.4638 19.4642C22.3352 19.3106 22.2791 19.12 22.2826 18.9219C22.1189 18.8173 22.0019 18.6613 21.9371 18.4796C21.7536 18.42 21.5946 18.3078 21.4829 18.1507C21.2883 18.1507 21.0953 18.1098 20.9427 17.9836C20.7586 18.0478 20.5626 18.0461 20.3745 18.0023ZM17.8274 17.3883C17.8375 17.3985 17.8375 17.3985 17.8274 17.3883V17.3883ZM23.0302 16.9209C23.04 16.9306 23.04 16.9306 23.0302 16.9209V16.9209ZM22.0318 16.3278C22.0512 16.3485 22.0512 16.3485 22.0318 16.3278V16.3278ZM20.2809 14.0615C20.603 13.8921 21.0479 14.0907 21.1146 14.4529C21.1754 14.6978 21.0071 14.9098 20.979 15.1447C20.9369 15.4649 20.9065 15.7873 20.9089 16.111C21.0545 15.6039 21.2521 15.1096 21.5268 14.6585C21.6677 14.4488 21.8436 14.1951 22.1296 14.2086C22.4529 14.177 22.7562 14.4739 22.7334 14.7975C22.7497 15.0078 22.5878 15.1586 22.4831 15.321C22.2961 15.6254 22.1698 15.9619 22.0546 16.2985C22.3398 15.9076 22.6521 15.5355 23.0099 15.2083C23.2162 15.0587 23.4401 14.8641 23.7166 14.9138C24.065 14.9476 24.2983 15.342 24.1848 15.6692C24.1304 15.8918 23.9066 15.9871 23.7405 16.1139C23.506 16.3125 23.3266 16.5667 23.1091 16.7828C23.129 16.8044 23.1495 16.8255 23.1706 16.8471C23.3717 16.6396 23.6353 16.5146 23.8803 16.3691C24.1901 16.1985 24.524 16.0098 24.8875 16.0238C25.305 16.063 25.527 16.6087 25.2757 16.9376C25.1289 17.1644 24.8331 17.1644 24.6157 17.2829C24.3087 17.4465 24.0159 17.6347 23.7271 17.8281C24.2006 17.6171 24.7157 17.5132 25.2272 17.446C25.4827 17.4483 25.7873 17.4068 25.9866 17.6037C26.2467 17.8305 26.2257 18.292 25.9452 18.493C25.7493 18.6659 25.4757 18.5778 25.2419 18.6052C24.8719 18.6525 24.5171 18.7705 24.1574 18.8634C24.8187 18.833 25.5043 18.8599 26.1299 19.0977C26.4836 19.2402 26.5736 19.7573 26.3064 20.022C26.1357 20.2195 25.8417 20.2423 25.612 20.1447C25.2057 19.9952 24.7672 20.0092 24.3411 20.0092C24.8457 20.1033 25.3157 20.3259 25.7605 20.5742C25.9734 20.7366 26.2493 20.9195 26.2405 21.2216C26.2709 21.5493 25.9658 21.8544 25.6378 21.8233C25.411 21.8396 25.266 21.6497 25.0975 21.5341C24.8123 21.3552 24.4907 21.2483 24.1762 21.1356C24.655 21.5388 25.1922 21.9086 25.5062 22.4672C25.6079 22.695 25.5507 22.9918 25.3519 23.1502C25.1128 23.3629 24.6854 23.3248 24.5106 23.0485C24.2616 22.6594 23.8822 22.3901 23.5285 22.1056C23.905 22.6583 24.3726 23.2151 24.427 23.9081C24.4474 24.3644 23.8465 24.6395 23.4998 24.3574C23.2684 24.2079 23.2935 23.9063 23.1772 23.6872C23.0392 23.429 22.8807 23.1812 22.706 22.947C22.841 23.5336 23.066 24.1225 22.9901 24.7343C22.9733 25.0165 22.706 25.2519 22.4248 25.2421C22.1161 25.2637 21.8174 24.9826 21.8431 24.67C21.8788 24.2336 21.746 23.8094 21.618 23.3981C21.5881 24.0098 21.5964 24.6507 21.3398 25.2198C21.1901 25.5622 20.6845 25.6416 20.4249 25.3822C20.2349 25.2163 20.1974 24.9305 20.2981 24.7062C20.4647 24.2791 20.4361 23.814 20.4776 23.3659C20.2923 23.9828 20.0794 24.6186 19.6609 25.121C19.4598 25.3932 19.0108 25.3985 18.7892 25.1496C18.5816 24.9411 18.5834 24.5718 18.7845 24.3592C19.0674 24.0202 19.1802 23.5856 19.3393 23.1836C18.9663 23.7071 18.5583 24.2289 18.0064 24.5742C17.6592 24.7576 17.1769 24.4901 17.1757 24.0916C17.143 23.8545 17.2909 23.6453 17.485 23.5266C17.7825 23.3332 17.9773 23.0318 18.2291 22.7892C18.2052 22.7671 18.1812 22.746 18.1578 22.725C17.841 22.9979 17.4669 23.1929 17.0926 23.3735C16.829 23.4676 16.5057 23.5863 16.2491 23.4132C15.9539 23.2333 15.9006 22.7811 16.1356 22.5322C16.276 22.3616 16.5122 22.3604 16.701 22.2775C17.0108 22.1402 17.2856 21.9393 17.5697 21.7576C16.9774 21.9229 16.3747 22.1139 15.7528 22.0825C15.457 22.0837 15.2038 21.8037 15.2155 21.5122C15.1979 21.2166 15.4558 20.9256 15.7575 20.9349C16.2029 20.953 16.6304 20.8145 17.0577 20.7093C16.4398 20.6574 15.7908 20.6772 15.2156 20.4131C14.8877 20.263 14.8059 19.782 15.0449 19.5209C15.1958 19.3327 15.4682 19.2707 15.6897 19.3602C16.1469 19.5414 16.6455 19.5221 17.1278 19.5554C16.4683 19.4023 15.8125 19.1441 15.2928 18.7006C14.9496 18.3915 15.1712 17.7406 15.6371 17.7167C15.954 17.6571 16.1533 17.9428 16.4053 18.0708C16.6521 18.1958 16.9092 18.3044 17.1764 18.3787C16.731 18.0023 16.234 17.6595 15.9254 17.1522C15.7646 16.9244 15.8061 16.5797 16.0183 16.398C16.2661 16.1649 16.7222 16.2139 16.8947 16.5154C17.0852 16.8526 17.4254 17.0536 17.688 17.3264C17.712 17.3036 17.7359 17.2807 17.7598 17.2586C17.5477 17.0781 17.4319 16.821 17.2969 16.5849C17.1267 16.2648 16.925 15.9235 16.9467 15.5496C16.9923 15.1442 17.5183 14.9297 17.8452 15.1629C18.0492 15.2833 18.0807 15.5305 18.1597 15.7315C18.3106 16.0757 18.5198 16.3899 18.7374 16.6949C18.5386 16.2212 18.42 15.7139 18.3661 15.2033C18.3719 14.9556 18.3339 14.6599 18.5315 14.4712C18.7625 14.2147 19.2237 14.2421 19.4213 14.5261C19.5855 14.7172 19.5014 14.9795 19.526 15.2061C19.5657 15.5631 19.6873 15.9037 19.7703 16.2519C19.7481 15.7278 19.7966 15.2021 19.889 14.6867C19.962 14.4524 20.0409 14.1772 20.2812 14.0615" fill="#5FE0FF"/>
<path d="M20.7853 12.3408C21.1343 12.2063 21.5651 12.4752 21.5646 12.8566C21.599 13.171 21.3243 13.4759 21.0075 13.4701C20.697 13.4982 20.4007 13.2265 20.4054 12.9151C20.3826 12.665 20.5519 12.4238 20.7853 12.3408Z" fill="#3055F1"/>
<path d="M18.6585 12.5554C19.0514 12.3801 19.5331 12.743 19.4559 13.1694C19.429 13.6029 18.8596 13.8337 18.5275 13.5655C18.1692 13.3201 18.2463 12.6991 18.6585 12.5554Z" fill="#3055F1"/>
<path d="M22.9017 12.7757C23.2817 12.6366 23.7242 12.9749 23.6669 13.3804C23.6593 13.8385 23.0425 14.0827 22.7116 13.7776C22.3656 13.5129 22.4807 12.8942 22.9017 12.7757Z" fill="#3055F1"/>
<path d="M16.6943 13.4223C17.0814 13.2715 17.5356 13.6233 17.4688 14.037C17.449 14.4811 16.8603 14.7165 16.5289 14.4332C16.1716 14.1767 16.271 13.5496 16.6943 13.4223Z" fill="#3055F1"/>
<path d="M24.7689 13.829C25.1501 13.6865 25.5967 14.0259 25.5382 14.4332C25.53 14.8918 24.9126 15.1349 24.5824 14.8293C24.238 14.5653 24.3509 13.9506 24.7689 13.829Z" fill="#3055F1"/>
<path d="M15.0829 14.8937C15.4518 14.7278 15.9242 15.0328 15.8914 15.4435C15.9147 15.8922 15.3436 16.1785 14.987 15.9208C14.6052 15.6894 14.6655 15.0503 15.0829 14.8937Z" fill="#3055F1"/>
<path d="M26.1783 15.4545C26.515 15.2932 26.9669 15.5258 26.999 15.9049C27.0575 16.2274 26.7904 16.564 26.46 16.5658C26.1502 16.6014 25.8467 16.3367 25.8439 16.0248C25.8175 15.7869 25.9637 15.5533 26.1783 15.4545Z" fill="#3055F1"/>
<path d="M14.0361 16.7921C14.3845 16.6361 14.837 16.9008 14.8405 17.2887C14.8826 17.6182 14.5832 17.9343 14.2523 17.9121C13.9536 17.9221 13.6764 17.6552 13.6817 17.3554C13.6601 17.1152 13.815 16.8816 14.0359 16.7921H14.0361Z" fill="#3055F1"/>
<path d="M27.111 17.3634C27.4542 17.2372 27.8704 17.4955 27.8815 17.8665C27.9282 18.21 27.6056 18.5397 27.2601 18.4946C26.921 18.4916 26.6573 18.1358 26.7299 17.8093C26.7597 17.6048 26.9181 17.4295 27.111 17.3634Z" fill="#3055F1"/>
<path d="M13.5893 18.8588C13.9792 18.7017 14.4434 19.0598 14.3692 19.4787C14.3446 19.9263 13.7407 20.1536 13.4157 19.8551C13.0772 19.5939 13.1777 18.9886 13.5893 18.8589V18.8588Z" fill="#3055F1"/>
<path d="M27.2772 19.5511C27.6151 19.3782 28.0786 19.6113 28.1102 19.997C28.1692 20.3254 27.891 20.6648 27.5549 20.6566C27.2503 20.6835 26.9574 20.4194 26.9551 20.1138C26.9299 19.8813 27.0696 19.6521 27.2772 19.5511Z" fill="#3055F1"/>
<path d="M13.7605 21.0471C14.1411 20.8378 14.6643 21.1727 14.604 21.6103C14.6063 22.0614 14.006 22.3179 13.6681 22.0316C13.3325 21.7944 13.3864 21.2184 13.7605 21.0471Z" fill="#3055F1"/>
<path d="M26.8826 21.6477C27.2193 21.4881 27.6694 21.7207 27.701 22.0998C27.7588 22.4223 27.4917 22.7577 27.162 22.7595C26.8516 22.7946 26.5482 22.5299 26.5459 22.2178C26.5202 21.9789 26.6669 21.7451 26.8826 21.6475V21.6477Z" fill="#3055F1"/>
<path d="M14.738 22.9567C15.1051 22.7926 15.5728 23.0993 15.5401 23.5065C15.564 23.9511 15.0005 24.2397 14.6421 23.9885C14.2522 23.7617 14.3107 23.1063 14.738 22.9567Z" fill="#3055F1"/>
<path d="M25.8452 23.4834C26.224 23.3122 26.7058 23.6452 26.649 24.0647C26.649 24.5046 26.0784 24.7641 25.7347 24.5029C25.3617 24.2675 25.4289 23.6329 25.8452 23.4834Z" fill="#3055F1"/>
<path d="M16.1576 24.5285C16.5475 24.3679 17.0152 24.7254 16.9416 25.1449C16.9187 25.5936 16.3142 25.8221 15.9881 25.5241C15.6507 25.2635 15.749 24.6612 16.1576 24.5285Z" fill="#3055F1"/>
<path d="M24.3319 24.9527C24.7336 24.823 25.1644 25.2162 25.0633 25.6281C25.0048 26.0617 24.409 26.2498 24.1004 25.9488C23.762 25.6708 23.9006 25.0496 24.3319 24.9527Z" fill="#3055F1"/>
<path d="M18.0909 25.6479C18.4188 25.5568 18.7924 25.8009 18.8147 26.1462C18.8679 26.4757 18.5809 26.8071 18.2458 26.7936C17.926 26.8157 17.6332 26.5213 17.6566 26.2029C17.649 25.9464 17.8431 25.7056 18.0909 25.6479Z" fill="#3055F1"/>
<path d="M22.2523 25.8598C22.5915 25.6904 23.0532 25.9253 23.0825 26.3109C23.1398 26.6381 22.8621 26.9746 22.5277 26.9676C22.2226 26.995 21.9285 26.7309 21.9267 26.4241C21.9016 26.1905 22.043 25.9602 22.2523 25.8598Z" fill="#3055F1"/>
<path d="M20.1301 26.0483C20.502 25.894 20.9639 26.2107 20.9205 26.6179C20.9363 27.0818 20.3142 27.3529 19.9735 27.0485C19.6275 26.7931 19.7204 26.1845 20.1301 26.0483Z" fill="#3055F1"/>
<path d="M26.2489 5.13539C26.6184 4.96829 27.0919 5.27442 27.0586 5.68583C27.0814 6.13518 26.5073 6.42079 26.1513 6.16028C25.7724 5.92839 25.8339 5.2925 26.2489 5.13539Z" fill="#3055F1"/>
<path d="M30.3738 7.6466C30.5814 7.59922 30.8152 7.65888 30.9555 7.82423C31.1736 8.06207 31.1397 8.48212 30.8766 8.67379C30.6107 8.88935 30.1639 8.80526 30.0062 8.49791C29.8202 8.18071 30.0091 7.72138 30.3739 7.6466H30.3738Z" fill="#3055F1"/>
<path d="M21.6333 4.02501C22.0267 3.84792 22.5142 4.20669 22.4371 4.63727C22.4115 5.0738 21.8351 5.30447 21.5047 5.02993C21.1517 4.78332 21.2305 4.17578 21.6333 4.02501Z" fill="#3055F1"/>
<path d="M16.884 4.46814C17.2201 4.3086 17.6691 4.53995 17.7024 4.91748C17.7627 5.24238 17.4925 5.58063 17.1599 5.58009C16.8512 5.61343 16.5501 5.34928 16.5478 5.03842C16.5222 4.80005 16.6688 4.56627 16.884 4.46814Z" fill="#3055F1"/>
<path d="M12.5235 6.27203C12.8724 6.11951 13.3231 6.38717 13.3231 6.7751C13.3628 7.1035 13.0635 7.41598 12.7344 7.39384C12.3865 7.40667 12.0983 7.05262 12.1703 6.71436C12.1937 6.51635 12.3417 6.34627 12.5235 6.27203Z" fill="#3055F1"/>
<path d="M8.88188 9.37311C9.21223 9.22234 9.64765 9.44559 9.68979 9.81247C9.75759 10.1391 9.49045 10.4861 9.15429 10.4884C8.83745 10.5253 8.52885 10.2483 8.53574 9.92936C8.5171 9.69328 8.66782 9.46665 8.88188 9.37311Z" fill="#3055F1"/>
<path d="M33.4224 11.2289C33.7662 11.0997 34.1859 11.3598 34.1959 11.7319C34.2416 12.0737 33.9223 12.4009 33.5791 12.3594C33.2389 12.3589 32.9718 12.003 33.0441 11.6752C33.0728 11.4713 33.23 11.2954 33.4224 11.2289Z" fill="#3055F1"/>
<path d="M6.43936 13.3733C6.83156 13.1987 7.31331 13.5603 7.23619 13.9868C7.20986 14.4227 6.63587 14.6535 6.30431 14.3805C5.94951 14.1339 6.02839 13.5164 6.43936 13.3733Z" fill="#3055F1"/>
<path d="M35.2804 15.6527C35.4763 15.6082 35.6967 15.6544 35.8398 15.8017C36.0731 16.023 36.0661 16.4432 35.8193 16.6523C35.5697 16.8877 35.1154 16.8329 34.9371 16.5366C34.7214 16.2229 34.9027 15.7327 35.2803 15.6527H35.2804Z" fill="#3055F1"/>
<path d="M5.39247 18.0564C5.79237 17.9301 6.21969 18.3204 6.12083 18.7306C6.06357 19.167 5.46378 19.3563 5.15505 19.0513C4.81768 18.7715 4.95989 18.1515 5.39247 18.0564Z" fill="#3055F1"/>
<path d="M35.636 20.3967C35.971 20.2851 36.3656 20.5322 36.3879 20.8892C36.4423 21.231 36.1313 21.5693 35.7846 21.5343C35.4344 21.5408 35.1585 21.1727 35.2386 20.8367C35.2754 20.6317 35.4374 20.4564 35.6362 20.3968L35.636 20.3967Z" fill="#3055F1"/>
<path d="M5.7099 22.7688C6.09049 22.628 6.53658 22.9668 6.47688 23.3747C6.46864 23.831 5.85549 24.074 5.5246 23.7726C5.17683 23.5084 5.28906 22.8898 5.7099 22.7688Z" fill="#3055F1"/>
<path d="M34.5402 25.0166C34.8781 24.8962 35.285 25.1434 35.3059 25.5074C35.3591 25.8539 35.0381 26.1934 34.6881 26.1495C34.3642 26.1465 34.0999 25.8218 34.1496 25.5039C34.1659 25.2831 34.3308 25.0844 34.5402 25.0166Z" fill="#3055F1"/>
<path d="M7.5635 27.1687C7.91424 27.0664 8.31063 27.3562 8.29253 27.7261C8.31414 28.038 8.03066 28.326 7.71841 28.3132C7.40102 28.3337 7.11038 28.042 7.13199 27.7248C7.12321 27.4689 7.31621 27.227 7.56336 27.1686L7.5635 27.1687Z" fill="#3055F1"/>
<path d="M32.0417 29.0351C32.4135 28.8662 32.8893 29.1834 32.8467 29.5966C32.8625 30.0442 32.2808 30.321 31.9313 30.0535C31.56 29.8174 31.6255 29.1841 32.0417 29.0351Z" fill="#3055F1"/>
<path d="M10.6044 30.7221C10.9938 30.5625 11.4597 30.9178 11.3884 31.3368C11.3673 31.7872 10.7588 32.0175 10.4326 31.7159C10.097 31.4547 10.1963 30.8535 10.6044 30.7221Z" fill="#3055F1"/>
<path d="M28.4012 32.1662C28.7374 32.0062 29.1863 32.237 29.2202 32.6144C29.2804 32.9386 29.0115 33.2775 28.6789 33.2775C28.3684 33.3114 28.0651 33.0444 28.0651 32.7313C28.041 32.4946 28.1878 32.2633 28.4012 32.1662Z" fill="#3055F1"/>
<path d="M14.6718 33.2445C15.0524 33.0669 15.5405 33.404 15.4803 33.8271C15.478 34.2641 14.9121 34.5211 14.5689 34.2629C14.1959 34.0303 14.2586 33.3982 14.6718 33.2445Z" fill="#3055F1"/>
<path d="M24.0239 33.9745C24.356 33.822 24.7944 34.0476 24.8336 34.4174C24.8984 34.7423 24.633 35.0858 24.2986 35.0893C23.9823 35.1267 23.673 34.851 23.6795 34.5325C23.6596 34.2959 23.8093 34.0681 24.0239 33.9745Z" fill="#3055F1"/>
<path d="M19.3645 34.3594C19.7428 34.2402 20.1618 34.5849 20.0999 34.9804C20.0864 35.4414 19.4579 35.6745 19.1335 35.3585C18.7909 35.081 18.9301 34.4552 19.3645 34.3594Z" fill="#3055F1"/>
<path d="M20.6544 0.0775964C21.0742 -0.0970661 21.5658 0.30895 21.4454 0.755864C21.1543 1.67844 20.209 2.37493 19.2316 2.29597C18.8277 2.28666 18.4302 2.16275 18.0893 1.9484C17.78 1.73041 17.548 1.4232 17.3527 1.10357C17.2083 0.879235 17.2487 0.553126 17.4498 0.375629C17.6708 0.157099 18.0842 0.168167 18.2805 0.414773C18.4255 0.598884 18.5226 0.825513 18.7131 0.97156C19.1246 1.24962 19.7286 1.20116 20.0735 0.836582C20.3238 0.621561 20.2975 0.18396 20.6547 0.0775964H20.6544Z" fill="#D3B2F3"/>
<path d="M23.7696 0.390301C24.0338 0.285692 24.3712 0.392595 24.4992 0.653779C24.5981 0.889182 24.5963 1.16967 24.7658 1.37416C25.1067 1.79597 25.7667 1.92339 26.2121 1.59094C26.3957 1.46298 26.4863 1.22109 26.7125 1.15212C27.0281 1.02942 27.4263 1.2404 27.4835 1.5769C27.4929 1.72646 27.5116 1.89761 27.414 2.02381C27.0615 2.48018 26.5446 2.81897 25.97 2.90657C25.7169 2.92466 25.4603 2.94396 25.2083 2.91238C24.5723 2.76512 23.9753 2.3672 23.6597 1.78774C23.5399 1.53937 23.4621 1.27131 23.413 1.00067C23.3673 0.744215 23.5299 0.481276 23.7695 0.390166L23.7696 0.390301Z" fill="#D3B2F3"/>
<path d="M14.6481 0.51713C14.9732 0.436548 15.3303 0.681939 15.3636 1.01615C15.3624 1.68807 15.0801 2.38564 14.5201 2.7818C13.8857 3.34156 12.9194 3.39758 12.1659 3.06229C11.9216 2.90274 11.676 2.73335 11.476 2.52008C11.2077 2.17359 11.4825 1.59521 11.9279 1.60695C12.3219 1.5643 12.5003 2.01823 12.8609 2.08248C13.4689 2.27064 14.195 1.77986 14.188 1.13007C14.1663 0.846748 14.3657 0.569232 14.6481 0.51713Z" fill="#D3B2F3"/>
<path d="M29.5199 1.86542C29.8204 1.7299 30.2115 1.88756 30.3138 2.20543C30.374 2.46486 30.2804 2.73657 30.3517 2.99533C30.5043 3.51067 31.0848 3.87228 31.6138 3.72394C31.8687 3.68601 32.0418 3.42483 32.3135 3.44939C32.6374 3.44534 32.9233 3.75202 32.89 4.0757C32.8887 4.31636 32.7087 4.511 32.5 4.60738C31.8657 4.9702 31.0608 5.00111 30.3984 4.69214C29.7964 4.37319 29.3064 3.79291 29.1959 3.10817C29.1661 2.84928 29.1673 2.58701 29.1877 2.32759C29.197 2.12539 29.3408 1.94951 29.5198 1.86542H29.5199Z" fill="#D3B2F3"/>
<path d="M9.16173 3.30058C9.44238 3.21649 9.77259 3.37009 9.87618 3.64707C10.0165 4.20615 9.99894 4.81504 9.74166 5.33849C9.56866 5.60426 9.40497 5.89406 9.13661 6.07641C8.63501 6.45854 7.97324 6.65196 7.34888 6.51752C7.13076 6.45206 6.91278 6.38255 6.70466 6.29022C6.39484 6.14593 6.30719 5.70414 6.50883 5.43783C6.63686 5.25493 6.87537 5.16261 7.09349 5.21228C7.31093 5.26425 7.50851 5.38816 7.73365 5.41029C8.22417 5.41326 8.69714 5.04923 8.79181 4.56249C8.85907 4.34923 8.76899 4.13542 8.74157 3.92391C8.69592 3.64869 8.89878 3.37293 9.16187 3.30044L9.16173 3.30058Z" fill="#D3B2F3"/>
<path d="M34.4203 5.51365C34.7296 5.37989 35.1271 5.55685 35.2119 5.88701C35.3025 6.19611 35.0633 6.46134 35.0329 6.75816C35.0307 7.05498 35.1288 7.36516 35.3428 7.57788C35.6082 7.79236 35.9631 7.96581 36.3096 7.8554C36.5353 7.78589 36.8135 7.78062 36.986 7.96811C37.2847 8.23564 37.1859 8.7908 36.8112 8.93685C36.3646 9.07183 35.8793 9.07939 35.4334 8.93563C35.092 8.85154 34.819 8.61844 34.5384 8.42096C34.1081 7.98511 33.8736 7.37218 33.8824 6.76113C33.8596 6.45203 33.9964 6.16695 34.0946 5.88242C34.1448 5.72058 34.2623 5.58033 34.4202 5.51379L34.4203 5.51365Z" fill="#D3B2F3"/>
<path d="M4.86386 7.58746C5.09831 7.53253 5.36492 7.6289 5.49173 7.83812C5.8156 8.35576 5.95646 9.00717 5.79048 9.60324C5.7378 9.78613 5.69634 9.97429 5.61747 10.149C5.31346 10.6252 4.87331 11.037 4.32377 11.2065C4.00166 11.335 3.6497 11.2906 3.31247 11.2748C3.01899 11.2766 2.76765 11.0003 2.77643 10.711C2.75942 10.4493 2.95295 10.1963 3.20672 10.1372C3.48142 10.0928 3.77436 10.2062 4.03745 10.0828C4.33741 9.94959 4.60387 9.69016 4.66478 9.35771C4.76419 9.05914 4.68869 8.73073 4.50582 8.48183C4.27961 8.1622 4.47314 7.6563 4.86413 7.58733L4.86386 7.58746Z" fill="#D3B2F3"/>
<path d="M38.0378 10.4894C38.3898 10.3772 38.7955 10.6652 38.7809 11.0391C38.799 11.4539 38.312 11.6573 38.2858 12.0634C38.1695 12.6686 38.6839 13.3119 39.3106 13.2815C39.6123 13.2745 39.8963 13.5387 39.8917 13.8436C39.9251 14.1661 39.6316 14.4716 39.3088 14.4559C38.7956 14.436 38.274 14.2659 37.8918 13.9149C37.6656 13.7091 37.4721 13.4655 37.3224 13.2003C37.0319 12.4862 37.0284 11.5854 37.5399 10.9689C37.6807 10.7883 37.7953 10.5482 38.038 10.4892L38.0378 10.4894Z" fill="#D3B2F3"/>
<path d="M1.97584 13.0062C2.23772 12.9161 2.50607 13.0494 2.6703 13.2533C3.13746 13.6874 3.39582 14.3214 3.36476 14.9582C3.37056 15.5852 3.04265 16.1752 2.57968 16.5819C2.25527 16.8599 1.83552 16.9897 1.42562 17.0797C0.989528 17.1522 0.645811 16.6356 0.845153 16.2524C1.04152 15.8236 1.63199 15.9673 1.90858 15.6261C2.28215 15.2668 2.32361 14.6252 1.99164 14.2268C1.8578 14.0672 1.64198 13.9651 1.58715 13.7488C1.48721 13.4485 1.67075 13.0939 1.97584 13.0062Z" fill="#D3B2F3"/>
<path d="M39.8855 16.371C40.2637 16.2273 40.7086 16.5662 40.6524 16.9705C40.6542 17.2527 40.4029 17.4133 40.1882 17.539C39.8516 17.7231 39.7007 18.1267 39.7112 18.4937C39.7544 18.8811 40.0129 19.2439 40.3876 19.3742C40.6326 19.4542 40.8389 19.6833 40.8144 19.9532C40.84 20.3377 40.4134 20.6403 40.0555 20.5141C39.5685 20.3061 39.1178 19.9742 38.8524 19.5086C38.687 19.1756 38.5361 18.8128 38.5602 18.4335C38.5677 17.8492 38.7793 17.2603 39.1938 16.8414C39.413 16.6703 39.6322 16.4896 39.8855 16.371Z" fill="#D3B2F3"/>
<path d="M0.986686 19.0497C1.25099 18.9621 1.49355 19.1337 1.71747 19.2489C2.01271 19.409 2.24541 19.6567 2.44407 19.9231C2.61127 20.1235 2.67029 20.3847 2.75511 20.6254C2.84398 20.8603 2.81764 21.1167 2.80481 21.3621C2.79779 21.7279 2.63464 22.0662 2.4588 22.3788C2.25365 22.7351 1.89521 22.9561 1.55973 23.1745C1.17104 23.3749 0.663497 23.0109 0.740749 22.5773C0.761277 22.1957 1.18265 22.0913 1.40779 21.8557C1.63752 21.5729 1.74624 21.168 1.60484 20.8204C1.50895 20.4985 1.23424 20.2584 0.917942 20.1596C0.620954 20.0573 0.477795 19.6899 0.594078 19.4053C0.662417 19.2359 0.809763 19.0985 0.986956 19.0495L0.986686 19.0497Z" fill="#D3B2F3"/>
<path d="M39.7396 22.4872C39.9933 22.3855 40.3095 22.4661 40.4563 22.7045C40.6153 22.9451 40.5638 23.3062 40.3306 23.4815C40.0768 23.6674 39.7092 23.6188 39.4852 23.8554C38.9947 24.2569 39.0007 25.1228 39.5408 25.4791C39.826 25.6631 39.8722 26.1072 39.6414 26.3513C39.4654 26.5605 39.1333 26.5997 38.9013 26.47C38.419 26.1107 38.0565 25.5649 37.9969 24.9579C37.8987 24.3171 38.1016 23.6304 38.5482 23.1579C38.726 22.9808 38.9165 22.8131 39.1329 22.6841C39.3299 22.6046 39.5386 22.5573 39.7397 22.4872H39.7396Z" fill="#D3B2F3"/>
<path d="M1.79201 25.0652C2.01526 24.9613 2.262 25.0447 2.48998 25.0863C2.89623 25.1816 3.29559 25.3661 3.57853 25.6805C3.79246 25.9452 4.03745 26.2039 4.12226 26.5441C4.29595 27.2032 4.248 27.979 3.79894 28.523C3.63647 28.7245 3.47562 29.0038 3.17984 28.9985C2.85652 29.0389 2.54441 28.7514 2.55778 28.4265C2.53495 28.0795 2.89974 27.9053 3.00495 27.6062C3.1242 27.2592 3.08274 26.8379 2.81614 26.568C2.6326 26.3068 2.31224 26.1981 2.00472 26.1881C1.71354 26.1788 1.45167 25.9189 1.46274 25.6238C1.43762 25.3889 1.58551 25.1669 1.79187 25.0652H1.79201Z" fill="#D3B2F3"/>
<path d="M37.2351 28.2417C37.5578 28.1873 37.8928 28.1862 38.216 28.2376C38.634 28.3528 38.7503 28.9633 38.4142 29.2315C38.1628 29.4686 37.7998 29.3068 37.4975 29.3658C36.958 29.4767 36.5827 30.054 36.6773 30.5927C36.7218 30.8913 37.0439 31.0946 36.9708 31.42C36.9434 31.8722 36.3301 32.096 36.0056 31.7899C35.2725 30.9438 35.3795 29.5234 36.2207 28.7879C36.5095 28.5303 36.8463 28.3077 37.235 28.2417H37.2351Z" fill="#D3B2F3"/>
<path d="M4.88848 30.4421C5.19249 30.4012 5.50352 30.4187 5.80281 30.4852C6.19096 30.5805 6.5259 30.8159 6.82532 31.0719C7.36311 31.6567 7.63025 32.5442 7.33448 33.305C7.2556 33.5147 7.20996 33.7671 7.00481 33.8956C6.70309 34.1059 6.22904 33.9511 6.12492 33.5935C6.02146 33.2728 6.26821 32.9941 6.30549 32.6867C6.32534 32.1586 5.92139 31.6543 5.39413 31.579C5.11767 31.5228 4.85161 31.711 4.57744 31.6281C4.35825 31.5545 4.19105 31.343 4.18105 31.1105C4.15877 30.8726 4.29734 30.6314 4.51316 30.5297C4.63187 30.477 4.7622 30.4631 4.88848 30.4421Z" fill="#D3B2F3"/>
<path d="M33.3641 32.9711C33.8095 32.9231 34.2427 33.0762 34.6432 33.2533C35.018 33.4653 34.9869 34.0818 34.5987 34.2629C34.176 34.4878 33.7873 34.0023 33.357 34.1362C33.0021 34.211 32.6888 34.4528 32.562 34.7976C32.452 35.0319 32.4866 35.2948 32.5491 35.5373C32.6368 35.8692 32.3574 36.2355 32.0142 36.2366C31.74 36.2687 31.4687 36.0672 31.4056 35.802C31.2706 35.2043 31.3232 34.5394 31.6657 34.0175C32.0188 33.4181 32.6783 33.0372 33.3639 32.9712L33.3641 32.9711Z" fill="#D3B2F3"/>
<path d="M9.51164 34.6471C10.1511 34.5068 10.8503 34.6739 11.366 35.0736C11.8079 35.4317 12.1317 35.9646 12.1926 36.5337C12.167 36.8544 12.2645 37.2372 12.0377 37.5035C11.812 37.7728 11.3408 37.7541 11.1362 37.4684C10.8895 37.1593 11.1608 36.7369 10.9725 36.4073C10.7983 35.9645 10.3078 35.7045 9.84428 35.7552C9.54027 35.7856 9.33512 36.1028 9.01652 36.0626C8.70022 36.0515 8.43605 35.743 8.48048 35.4275C8.47643 35.2102 8.63134 35.0273 8.81664 34.9338C9.03759 34.814 9.26624 34.7036 9.51177 34.6469L9.51164 34.6471Z" fill="#D3B2F3"/>
<path d="M27.8116 36.2393C28.3797 36.1487 29.0222 36.2276 29.4706 36.6179C29.6752 36.7757 29.9576 36.9253 29.9634 37.2209C30.0136 37.5551 29.7138 37.8858 29.3752 37.86C28.973 37.8635 28.7784 37.388 28.3814 37.3645C27.7705 37.2493 27.1233 37.7705 27.1502 38.3998C27.1572 38.6703 26.9415 38.9174 26.6779 38.9641C26.3797 39.0296 26.0506 38.8233 25.9928 38.5225C25.9039 37.4486 26.7475 36.398 27.8114 36.2392L27.8116 36.2393Z" fill="#D3B2F3"/>
<path d="M15.3831 37.1104C15.6625 37.0841 15.9478 37.0655 16.2267 37.1029C16.8714 37.2524 17.4719 37.6684 17.777 38.2631C17.8781 38.5547 18.016 38.8538 17.9962 39.1694C17.9453 39.5754 17.4133 39.7852 17.0901 39.5433C16.7785 39.3423 16.8755 38.904 16.651 38.6418C16.4336 38.3899 16.1062 38.1942 15.7625 38.2333C15.4398 38.2293 15.1504 38.4109 14.9604 38.6634C14.7663 38.9321 14.333 38.9619 14.1005 38.7294C13.8637 38.5201 13.8479 38.1136 14.0724 37.8903C14.2554 37.7062 14.4447 37.5235 14.6622 37.3809C14.8891 37.2594 15.1323 37.1659 15.3831 37.1104Z" fill="#D3B2F3"/>
<path d="M21.6342 37.6221C22.1679 37.5082 22.7344 37.6244 23.2103 37.881C23.4372 38.013 23.6569 38.1738 23.7932 38.4039C23.9276 38.6312 24.1592 38.8398 24.1294 39.1278C24.1264 39.4971 23.7136 39.7634 23.3706 39.6432C23.0777 39.5614 22.9947 39.2372 22.817 39.0285C22.3359 38.5254 21.3531 38.6913 21.1181 39.3662C21.0486 39.6163 20.8375 39.8442 20.5628 39.8412C20.1927 39.8873 19.8694 39.5105 19.9472 39.1529C20.1792 38.3858 20.8433 37.7734 21.6342 37.6221Z" fill="#D3B2F3"/>
<path d="M22.1933 0.0405789C22.5664 -0.115996 23.0316 0.202958 22.9861 0.613159C22.9989 1.07533 22.3788 1.34353 22.0384 1.04023C21.6935 0.785526 21.7859 0.179067 22.1933 0.0405789Z" fill="#3055F1"/>
<path d="M16.082 0.498945C16.4626 0.359917 16.9057 0.699928 16.846 1.10594C16.8367 1.56339 16.2211 1.80527 15.8913 1.50089C15.5453 1.2362 15.6604 0.617456 16.0819 0.498945H16.082Z" fill="#3055F1"/>
<path d="M28.188 1.59925C28.5265 1.43916 28.9784 1.67456 29.007 2.05493C29.063 2.37564 28.7977 2.7081 28.4697 2.71107C28.1576 2.74724 27.8519 2.48025 27.8512 2.16589C27.8273 1.92805 27.9739 1.6967 28.1879 1.59911L28.188 1.59925Z" fill="#3055F1"/>
<path d="M10.3186 2.28989C10.6666 2.15612 11.0979 2.42257 11.0979 2.80281C11.1341 3.11771 10.8594 3.42506 10.5414 3.41925C10.2298 3.44787 9.93225 3.17332 9.93927 2.86071C9.91821 2.61181 10.0872 2.3729 10.3186 2.28989Z" fill="#3055F1"/>
<path d="M33.4488 4.31673C33.8031 4.15665 34.2655 4.43538 34.2555 4.8314C34.29 5.17789 33.951 5.48808 33.609 5.43314C33.2699 5.411 33.0233 5.04993 33.1074 4.72383C33.1431 4.54268 33.2799 4.388 33.4488 4.31673Z" fill="#3055F1"/>
<path d="M5.52956 6.28454C5.86801 6.11447 6.32936 6.34879 6.35908 6.73389C6.41755 7.06108 6.14042 7.39879 5.80548 7.39177C5.49917 7.41918 5.20516 7.15462 5.20394 6.84727C5.17936 6.61416 5.3209 6.38443 5.52956 6.28454Z" fill="#3055F1"/>
<path d="M37.3287 9.09423C37.6842 8.90432 38.1787 9.18184 38.1694 9.59258C38.2016 9.91099 37.9146 10.2113 37.596 10.1978C37.2721 10.2189 36.9781 9.91504 37.0102 9.59258C37.0062 9.3816 37.1446 9.18832 37.3288 9.09423H37.3287Z" fill="#3055F1"/>
<path d="M2.31854 11.4616C2.66172 11.3349 3.0785 11.5926 3.09025 11.9629C3.13766 12.3071 2.81487 12.6366 2.4694 12.5922C2.12919 12.5899 1.86556 12.2324 1.93917 11.9052C1.96902 11.7019 2.12676 11.5276 2.31854 11.4616Z" fill="#3055F1"/>
<path d="M39.6851 14.8108C40.0218 14.6513 40.4719 14.8833 40.5047 15.2619C40.5632 15.5851 40.2948 15.9221 39.964 15.9228C39.6541 15.9572 39.3513 15.6926 39.3496 15.3806C39.3239 15.1422 39.4706 14.9091 39.6852 14.811L39.6851 14.8108Z" fill="#3055F1"/>
<path d="M0.726746 17.5086C1.06412 17.3304 1.53289 17.5635 1.56571 17.9497C1.6277 18.2834 1.34125 18.6239 1.00104 18.6116C0.701085 18.6327 0.415847 18.3745 0.41058 18.0741C0.383704 17.841 0.52092 17.612 0.726746 17.5086Z" fill="#3055F1"/>
<path d="M40.149 20.9277C40.4928 20.801 40.9102 21.0615 40.9195 21.4331C40.9645 21.776 40.6431 22.1027 40.2992 22.0588C39.9583 22.0565 39.6942 21.6983 39.7685 21.37C39.7988 21.1673 39.9567 20.9937 40.149 20.9277Z" fill="#3055F1"/>
<path d="M1.23938 23.5976C1.63104 23.4265 2.10873 23.7881 2.03215 24.2134C2.00582 24.6487 1.43237 24.8788 1.10094 24.6066C0.74372 24.3594 0.824888 23.7384 1.23938 23.5976Z" fill="#3055F1"/>
<path d="M38.5559 26.9752C38.9108 26.7853 39.4052 27.0618 39.3966 27.4718C39.4299 27.7902 39.144 28.0911 38.8254 28.0788C38.5003 28.101 38.2046 27.7948 38.2379 27.4711C38.235 27.2609 38.373 27.0686 38.556 26.9751L38.5559 26.9752Z" fill="#3055F1"/>
<path d="M3.54129 29.3151C3.92714 29.1673 4.37782 29.5161 4.31354 29.928C4.2972 30.3744 3.702 30.6122 3.37058 30.3247C3.01578 30.066 3.11802 29.4413 3.54129 29.3151Z" fill="#3055F1"/>
<path d="M35.3352 32.1527C35.6784 32.0143 36.1109 32.2714 36.1215 32.6476C36.1659 32.9725 35.8812 33.2932 35.5526 33.2798C35.2398 33.3021 34.9505 33.0198 34.9628 32.7078C34.9482 32.4664 35.1107 32.2351 35.3352 32.1527Z" fill="#3055F1"/>
<path d="M7.51263 34.0781C7.86161 33.9436 8.29312 34.2125 8.29136 34.594C8.32648 34.9083 8.05056 35.2145 7.73304 35.208C7.42268 35.2348 7.12677 34.9614 7.13272 34.6506C7.11111 34.4012 7.28047 34.1604 7.51263 34.0781Z" fill="#3055F1"/>
<path d="M30.5931 36.0996C30.9661 35.943 31.4308 36.2627 31.3846 36.6717C31.3981 37.1338 30.7796 37.402 30.4394 37.0999C30.0927 36.8458 30.1844 36.237 30.5931 36.0996Z" fill="#3055F1"/>
<path d="M12.7564 37.3297C13.1493 37.1579 13.6281 37.5214 13.5497 37.9479C13.5204 38.3814 12.9487 38.6098 12.6179 38.3381C12.2613 38.0904 12.3432 37.4699 12.7564 37.3297Z" fill="#3055F1"/>
<path d="M24.9323 38.4449C25.2614 38.3538 25.6355 38.5997 25.6554 38.9462C25.7068 39.2757 25.4186 39.6058 25.0837 39.5906C24.7663 39.6111 24.4751 39.3189 24.4973 39.0017C24.489 38.7445 24.6833 38.5027 24.9322 38.4449H24.9323Z" fill="#3055F1"/>
<path d="M18.6872 38.8898C19.0239 38.7227 19.4818 38.9545 19.5145 39.3361C19.5747 39.6651 19.2963 40.0058 18.9596 39.9981C18.6551 40.0249 18.3616 39.7614 18.3593 39.4559C18.3342 39.2205 18.4763 38.989 18.6872 38.8898Z" fill="#3055F1"/>
<path d="M53.7539 20.167C53.7539 14.558 57.4463 10.7937 62.9603 10.7937C64.9787 10.7937 66.9974 11.2367 68.3512 11.9746V17.1656H67.1941C66.554 14.2872 64.954 12.8112 62.394 12.8112C59.2431 12.8112 57.3725 14.9516 57.3725 18.5679C57.3725 22.6272 59.834 25.4317 63.4278 25.4317C65.4711 25.4317 66.9725 24.5951 67.9573 22.8732L68.9418 23.3652C68.0065 26.8833 65.5203 28.8514 61.9756 28.8514C57.1263 28.8514 53.7539 25.3088 53.7539 20.167Z" fill="#3055F1"/>
<path d="M70.5166 22.2584C70.5166 18.2481 73.3965 15.739 77.0151 15.739C80.6336 15.739 83.5136 18.2483 83.5136 22.2584C83.5136 26.2437 80.6335 28.7286 77.0151 28.7286C73.3967 28.7286 70.5166 26.2437 70.5166 22.2584ZM79.5998 22.2584C79.5998 18.691 78.8121 16.9935 77.0152 16.9935C75.1936 16.9935 74.4058 18.6909 74.4058 22.2584C74.4058 25.8258 75.2182 27.4738 77.0152 27.4738C78.8123 27.4738 79.5998 25.8256 79.5998 22.2584Z" fill="#3055F1"/>
<path d="M99.9317 28.4332H93.1623V27.4C94.1471 27.326 94.4916 26.9324 94.4916 25.85V20.3393C94.4916 18.8139 93.8024 18.0267 92.4978 18.0267C91.4394 18.0267 90.7009 18.5679 90.2825 19.429V25.7761C90.2825 27.0554 90.5777 27.3015 91.587 27.3999V28.4331H84.8423V27.3999C86.2701 27.3013 86.6886 26.9817 86.6886 25.7761V19.306C86.6886 18.6908 86.2208 18.3957 85.6301 18.3957C85.4086 18.3957 85.0886 18.4203 84.7686 18.4448V17.4116L88.7808 16.0338H90.0116V17.4607C90.0116 17.9774 89.8639 18.5432 89.667 19.1829L89.8639 19.2566C90.627 16.9934 92.0793 15.7388 94.2454 15.7388C96.5348 15.7388 98.0856 16.9688 98.0856 19.8226V25.6778C98.0856 26.9817 98.6025 27.3015 99.9317 27.4V28.4332Z" fill="#3055F1"/>
<path d="M100.768 28.4332V27.3999L101.186 27.3505C102.442 27.2768 102.614 26.5633 102.614 25.776V17.4361H100.768V16.6242L102.614 16.0338V15.2957C102.614 12.5157 104.829 9.58813 109.605 9.58813C113.962 9.58813 115.217 11.2858 115.217 12.3927C115.217 13.4753 114.356 14.0165 113.469 14.0165C112.386 14.0165 111.968 13.549 111.279 12.6142C110.343 11.4087 109.531 10.9166 108.128 10.9166C106.282 10.9166 105.346 12.2452 105.346 13.5735C105.346 14.5823 105.494 15.3203 106.085 16.0338H108.054V17.4361H106.208V25.6776C106.208 26.7109 106.602 27.2767 107.66 27.3504L108.054 27.3998V28.4331H100.768L100.768 28.4332ZM109.408 28.4332V27.3999L109.826 27.3505C111.082 27.2768 111.254 26.5633 111.254 25.776V19.6257C111.254 18.5679 110.811 18.2725 109.851 18.3465L109.26 18.3711V17.3378L113.617 16.0339H114.848V25.6777C114.848 26.711 115.242 27.2768 116.3 27.3505L116.694 27.3999V28.4332H109.408H109.408Z" fill="#3055F1"/>
<path d="M131.684 28.4331H126.515V27.5721C126.515 27.1291 126.638 26.1697 126.909 25.4563L126.736 25.3823C126.121 27.3505 124.841 28.7283 122.65 28.7283C119.77 28.7283 117.801 26.4403 117.801 22.9468C117.801 18.2725 121.025 15.7386 124.669 15.7386C125.333 15.7386 125.85 15.8615 126.269 16.0337V13.3029C126.269 12.3435 125.801 11.9744 124.89 11.9744C124.521 11.9744 124.152 11.9989 123.758 12.0729V11.0642L128.804 9.7356H129.887V25.6774C129.887 26.9075 130.355 27.3256 131.684 27.3996V28.4328L131.684 28.4331ZM126.269 17.4116C125.924 17.1162 125.456 16.9688 124.816 16.9688C122.995 16.9688 121.543 18.3957 121.543 21.7661C121.543 24.4477 122.576 26.2191 124.324 26.2191C125.333 26.2191 125.949 25.7515 126.269 25.2104V17.4116H126.269Z" fill="#3055F1"/>
<path d="M132.595 22.2584C132.595 18.2481 135.475 15.739 139.093 15.739C142.712 15.739 145.592 18.2483 145.592 22.2584C145.592 26.2437 142.712 28.7286 139.093 28.7286C135.475 28.7286 132.595 26.2437 132.595 22.2584ZM141.678 22.2584C141.678 18.691 140.89 16.9935 139.093 16.9935C137.272 16.9935 136.484 18.6909 136.484 22.2584C136.484 25.8258 137.296 27.4738 139.093 27.4738C140.89 27.4738 141.678 25.8256 141.678 22.2584Z" fill="#3055F1"/>
</svg>
